Black Italic.ufo
<glyph name="exclam" format="2">
  <advance width="1000"/>
  <unicode hex="0021"/>
  <outline>
    <contour>
      <point x="988" y="2048" type="line"/>
      <point x="704" y="640" type="line"/>
      <point x="252" y="640" type="line"/>
      <point x="432" y="2048" type="line"/>
    </contour>
    <contour>
      <point x="388" y="-32" type="qcurve"/>
      <point x="271" y="-32"/>
      <point x="124" y="131"/>
      <point x="136" y="248" type="qcurve"/>
      <point x="148" y="362"/>
      <point x="331" y="524"/>
      <point x="448" y="524" type="qcurve"/>
      <point x="559" y="524"/>
      <point x="708" y="362"/>
      <point x="696" y="248" type="qcurve"/>
      <point x="688" y="170"/>
      <point x="595" y="43"/>
      <point x="460" y="-32"/>
    </contour>
  </outline>
</glyph>
<glyph name="numbersign" format="2">
  <advance width="1864"/>
  <unicode hex="0023"/>
  <outline>
    <contour>
      <point x="948" y="0" type="line"/>
      <point x="1320" y="2048" type="line"/>
      <point x="1720" y="2048" type="line"/>
      <point x="1348" y="0" type="line"/>
    </contour>
    <contour>
      <point x="48" y="468" type="line"/>
      <point x="124" y="868" type="line"/>
      <point x="1772" y="868" type="line"/>
      <point x="1696" y="468" type="line"/>
    </contour>
    <contour>
      <point x="228" y="0" type="line"/>
      <point x="600" y="2048" type="line"/>
      <point x="1000" y="2048" type="line"/>
      <point x="628" y="0" type="line"/>
    </contour>
    <contour>
      <point x="178" y="1180" type="line"/>
      <point x="252" y="1580" type="line"/>
      <point x="1900" y="1580" type="line"/>
      <point x="1826" y="1180" type="line"/>
    </contour>
  </outline>
</glyph>
<glyph name="dollar" format="2">
  <advance width="1876"/>
  <unicode hex="0024"/>
  <outline>
    <contour>
      <point x="710" y="-256" type="line"/>
      <point x="1134" y="2304" type="line"/>
      <point x="1298" y="2304" type="line"/>
      <point x="874" y="-256" type="line"/>
    </contour>
    <contour>
      <point x="1340" y="1408" type="line"/>
      <point x="1349" y="1507"/>
      <point x="1235" y="1620"/>
      <point x="1100" y="1620" type="qcurve"/>
      <point x="1014" y="1620"/>
      <point x="899" y="1580"/>
      <point x="836" y="1510"/>
      <point x="828" y="1464" type="qcurve"/>
      <point x="819" y="1428"/>
      <point x="840" y="1369"/>
      <point x="901" y="1321"/>
      <point x="1002" y="1283"/>
      <point x="1072" y="1268" type="qcurve"/>
      <point x="1232" y="1232" type="line"/>
      <point x="1396" y="1196"/>
      <point x="1619" y="1079"/>
      <point x="1747" y="919"/>
      <point x="1788" y="721"/>
      <point x="1768" y="604" type="qcurve"/>
      <point x="1734" y="402"/>
      <point x="1488" y="122"/>
      <point x="1092" y="-24"/>
      <point x="832" y="-24" type="qcurve"/>
      <point x="566" y="-24"/>
      <point x="195" y="135"/>
      <point x="30" y="464"/>
      <point x="72" y="720" type="qcurve"/>
      <point x="600" y="720" type="line"/>
      <point x="588" y="626"/>
      <point x="652" y="498"/>
      <point x="794" y="432"/>
      <point x="900" y="432" type="qcurve"/>
      <point x="990" y="432"/>
      <point x="1118" y="476"/>
      <point x="1192" y="554"/>
      <point x="1200" y="604" type="qcurve"/>
      <point x="1208" y="650"/>
      <point x="1160" y="722"/>
      <point x="1034" y="780"/>
      <point x="924" y="804" type="qcurve"/>
      <point x="728" y="848" type="line"/>
      <point x="467" y="908"/>
      <point x="201" y="1184"/>
      <point x="240" y="1424" type="qcurve"/>
      <point x="272" y="1620"/>
      <point x="531" y="1913"/>
      <point x="932" y="2076"/>
      <point x="1176" y="2076" type="qcurve"/>
      <point x="1424" y="2076"/>
      <point x="1759" y="1910"/>
      <point x="1906" y="1610"/>
      <point x="1872" y="1408" type="qcurve"/>
    </contour>
  </outline>
</glyph>
<glyph name="percent" format="2">
  <advance width="2508"/>
  <unicode hex="0025"/>
  <outline>
    <contour>
      <point x="1244" y="384" type="qcurve"/>
      <point x="1264" y="492" type="line"/>
      <point x="1288" y="622"/>
      <point x="1437" y="842"/>
      <point x="1673" y="976"/>
      <point x="1828" y="976" type="qcurve"/>
      <point x="1987" y="976"/>
      <point x="2185" y="844"/>
      <point x="2261" y="624"/>
      <point x="2236" y="492" type="qcurve"/>
      <point x="2216" y="384" type="line"/>
      <point x="2192" y="255"/>
      <point x="2043" y="34"/>
      <point x="1805" y="-100"/>
      <point x="1648" y="-100" type="qcurve"/>
      <point x="1491" y="-100"/>
      <point x="1295" y="34"/>
      <point x="1220" y="255"/>
    </contour>
    <contour>
      <point x="1612" y="492" type="qcurve"/>
      <point x="1592" y="384" type="line"/>
      <point x="1582" y="328"/>
      <point x="1621" y="216"/>
      <point x="1700" y="216" type="qcurve"/>
      <point x="1783" y="216"/>
      <point x="1853" y="325"/>
      <point x="1864" y="384" type="qcurve"/>
      <point x="1884" y="492" type="line"/>
      <point x="1895" y="552"/>
      <point x="1862" y="664"/>
      <point x="1776" y="664" type="qcurve"/>
      <point x="1697" y="664"/>
      <point x="1623" y="552"/>
    </contour>
    <contour>
      <point x="368" y="1556" type="qcurve"/>
      <point x="384" y="1664" type="line"/>
      <point x="404" y="1797"/>
      <point x="555" y="2016"/>
      <point x="795" y="2148"/>
      <point x="948" y="2148" type="qcurve"/>
      <point x="1107" y="2148"/>
      <point x="1301" y="2016"/>
      <point x="1376" y="1797"/>
      <point x="1356" y="1664" type="qcurve"/>
      <point x="1340" y="1556" type="line"/>
      <point x="1321" y="1424"/>
      <point x="1171" y="1206"/>
      <point x="929" y="1076"/>
      <point x="772" y="1076" type="qcurve"/>
      <point x="615" y="1076"/>
      <point x="423" y="1207"/>
      <point x="349" y="1426"/>
    </contour>
    <contour>
      <point x="736" y="1664" type="qcurve"/>
      <point x="720" y="1556" type="line"/>
      <point x="711" y="1496"/>
      <point x="748" y="1388"/>
      <point x="824" y="1388" type="qcurve"/>
      <point x="907" y="1388"/>
      <point x="979" y="1496"/>
      <point x="988" y="1556" type="qcurve"/>
      <point x="1004" y="1664" type="line"/>
      <point x="1013" y="1724"/>
      <point x="982" y="1836"/>
      <point x="896" y="1836" type="qcurve"/>
      <point x="817" y="1836"/>
      <point x="744" y="1721"/>
    </contour>
    <contour>
      <point x="274" y="0" type="line"/>
      <point x="2022" y="2048" type="line"/>
      <point x="2322" y="2048" type="line"/>
      <point x="574" y="0" type="line"/>
    </contour>
  </outline>
</glyph>
<glyph name="ampersand" format="2">
  <advance width="1964"/>
  <unicode hex="0026"/>
  <outline>
    <contour>
      <point x="668" y="-32" type="qcurve"/>
      <point x="448" y="-32"/>
      <point x="158" y="124"/>
      <point x="31" y="386"/>
      <point x="56" y="544" type="qcurve"/>
      <point x="84" y="718"/>
      <point x="316" y="948"/>
      <point x="492" y="1056" type="qcurve"/>
      <point x="1004" y="1344" type="line"/>
      <point x="1081" y="1388"/>
      <point x="1145" y="1484"/>
      <point x="1152" y="1520" type="qcurve"/>
      <point x="1162" y="1568"/>
      <point x="1103" y="1644"/>
      <point x="1024" y="1644" type="qcurve"/>
      <point x="979" y="1644"/>
      <point x="903" y="1611"/>
      <point x="854" y="1549"/>
      <point x="848" y="1504" type="qcurve"/>
      <point x="841" y="1444"/>
      <point x="890" y="1321"/>
      <point x="983" y="1180"/>
      <point x="1040" y="1092" type="qcurve"/>
      <point x="1852" y="0" type="line"/>
      <point x="1300" y="0" type="line"/>
      <point x="616" y="880" type="line"/>
      <point x="565" y="946"/>
      <point x="447" y="1134"/>
      <point x="380" y="1372"/>
      <point x="404" y="1512" type="qcurve"/>
      <point x="431" y="1668"/>
      <point x="623" y="1926"/>
      <point x="917" y="2080"/>
      <point x="1096" y="2080" type="qcurve"/>
      <point x="1269" y="2080"/>
      <point x="1496" y="1938"/>
      <point x="1593" y="1702"/>
      <point x="1568" y="1560" type="qcurve"/>
      <point x="1545" y="1416"/>
      <point x="1364" y="1169"/>
      <point x="1216" y="1076" type="qcurve"/>
      <point x="740" y="776" type="line"/>
      <point x="687" y="742"/>
      <point x="601" y="653"/>
      <point x="588" y="584" type="qcurve"/>
      <point x="581" y="526"/>
      <point x="622" y="444"/>
      <point x="713" y="400"/>
      <point x="780" y="400" type="qcurve"/>
      <point x="882" y="400"/>
      <point x="1103" y="499"/>
      <point x="1302" y="678"/>
      <point x="1444" y="923"/>
      <point x="1468" y="1068" type="qcurve"/>
      <point x="1904" y="1068" type="line"/>
      <point x="1877" y="890"/>
      <point x="1748" y="560"/>
      <point x="1539" y="286"/>
      <point x="1388" y="192" type="qcurve"/>
      <point x="1343" y="171"/>
      <point x="1257" y="133"/>
      <point x="1212" y="112" type="qcurve"/>
      <point x="1078" y="34"/>
      <point x="798" y="-32"/>
    </contour>
  </outline>
</glyph>
<glyph name="quotesingle" format="2">
  <advance width="564"/>
  <unicode hex="0027"/>
  <outline>
    <contour>
      <point x="672" y="2048" type="line"/>
      <point x="536" y="1220" type="line"/>
      <point x="176" y="1220" type="line"/>
      <point x="312" y="2048" type="line"/>
    </contour>
  </outline>
</glyph>
<glyph name="parenleft" format="2">
  <advance width="1240"/>
  <unicode hex="0028"/>
  <outline>
    <contour>
      <point x="244" y="792" type="qcurve"/>
      <point x="304" y="1161"/>
      <point x="608" y="1781"/>
      <point x="872" y="2048" type="qcurve"/>
      <point x="1412" y="2048" type="line"/>
      <point x="1313" y="1949"/>
      <point x="1127" y="1666"/>
      <point x="967" y="1330"/>
      <point x="850" y="969"/>
      <point x="820" y="792" type="qcurve"/>
      <point x="780" y="556"/>
      <point x="801" y="77"/>
      <point x="908" y="-332"/>
      <point x="996" y="-464" type="qcurve"/>
      <point x="456" y="-464" type="line"/>
      <point x="282" y="-197"/>
      <point x="184" y="423"/>
    </contour>
  </outline>
</glyph>
<glyph name="parenright" format="2">
  <advance width="1240"/>
  <unicode hex="0029"/>
  <outline>
    <contour>
      <point x="1004" y="792" type="qcurve"/>
      <point x="944" y="423"/>
      <point x="640" y="-197"/>
      <point x="376" y="-464" type="qcurve"/>
      <point x="-164" y="-464" type="line"/>
      <point x="-65" y="-365"/>
      <point x="121" y="-82"/>
      <point x="281" y="254"/>
      <point x="398" y="615"/>
      <point x="428" y="792" type="qcurve"/>
      <point x="468" y="1028"/>
      <point x="447" y="1507"/>
      <point x="340" y="1916"/>
      <point x="252" y="2048" type="qcurve"/>
      <point x="792" y="2048" type="line"/>
      <point x="966" y="1781"/>
      <point x="1064" y="1161"/>
    </contour>
  </outline>
</glyph>
<glyph name="asterisk" format="2">
  <advance width="1712"/>
  <unicode hex="002A"/>
  <outline>
    <contour>
      <point x="716" y="896" type="line"/>
      <point x="808" y="1248" type="line"/>
      <point x="480" y="1044" type="line"/>
      <point x="368" y="1324" type="line"/>
      <point x="712" y="1472" type="line"/>
      <point x="416" y="1620" type="line"/>
      <point x="624" y="1900" type="line"/>
      <point x="880" y="1696" type="line"/>
      <point x="908" y="2048" type="line"/>
      <point x="1228" y="2048" type="line"/>
      <point x="1136" y="1696" type="line"/>
      <point x="1464" y="1900" type="line"/>
      <point x="1576" y="1620" type="line"/>
      <point x="1232" y="1472" type="line"/>
      <point x="1528" y="1324" type="line"/>
      <point x="1320" y="1044" type="line"/>
      <point x="1064" y="1248" type="line"/>
      <point x="1036" y="896" type="line"/>
    </contour>
  </outline>
</glyph>
<glyph name="plus" format="2">
  <advance width="1952"/>
  <unicode hex="002B"/>
  <outline>
    <contour>
      <point x="640" y="92" type="line"/>
      <point x="884" y="1572" type="line"/>
      <point x="1332" y="1572" type="line"/>
      <point x="1088" y="92" type="line"/>
    </contour>
    <contour>
      <point x="208" y="608" type="line"/>
      <point x="284" y="1056" type="line"/>
      <point x="1764" y="1056" type="line"/>
      <point x="1688" y="608" type="line"/>
    </contour>
  </outline>
</glyph>
<glyph name="comma" format="2">
  <advance width="896"/>
  <unicode hex="002C"/>
  <outline>
    <contour>
      <point x="596" y="280" type="line"/>
      <point x="568" y="168" type="line"/>
      <point x="535" y="24"/>
      <point x="417" y="-239"/>
      <point x="301" y="-444"/>
      <point x="268" y="-500" type="qcurve"/>
      <point x="-72" y="-500" type="line"/>
      <point x="-49" y="-448"/>
      <point x="45" y="-236"/>
      <point x="139" y="32"/>
      <point x="160" y="168" type="qcurve"/>
      <point x="180" y="280" type="line"/>
    </contour>
  </outline>
</glyph>
<glyph name="hyphenminus" format="2">
  <advance width="1336"/>
  <unicode hex="002D"/>
  <outline>
    <contour>
      <point x="1190" y="1024" type="line"/>
      <point x="1122" y="608" type="line"/>
      <point x="162" y="608" type="line"/>
      <point x="230" y="1024" type="line"/>
    </contour>
  </outline>
</glyph>
<glyph name="period" format="2">
  <advance width="880"/>
  <unicode hex="002E"/>
  <outline>
    <contour>
      <point x="324" y="-32" type="qcurve"/>
      <point x="207" y="-32"/>
      <point x="60" y="131"/>
      <point x="72" y="248" type="qcurve"/>
      <point x="84" y="362"/>
      <point x="267" y="524"/>
      <point x="384" y="524" type="qcurve"/>
      <point x="495" y="524"/>
      <point x="644" y="362"/>
      <point x="632" y="248" type="qcurve"/>
      <point x="624" y="170"/>
      <point x="531" y="43"/>
      <point x="396" y="-32"/>
    </contour>
  </outline>
</glyph>
<glyph name="slash" format="2">
  <advance width="1160"/>
  <unicode hex="002F"/>
  <outline>
    <contour>
      <point x="1372" y="2144" type="line"/>
      <point x="308" y="-308" type="line"/>
      <point x="-160" y="-308" type="line"/>
      <point x="904" y="2144" type="line"/>
    </contour>
  </outline>
</glyph>
<glyph name="zero" format="2">
  <advance width="2056"/>
  <unicode hex="0030"/>
  <outline>
    <contour>
      <point x="892" y="-56" type="qcurve"/>
      <point x="612" y="-56"/>
      <point x="246" y="201"/>
      <point x="106" y="683"/>
      <point x="164" y="1020" type="qcurve"/>
      <point x="222" y="1358"/>
      <point x="521" y="1830"/>
      <point x="966" y="2076"/>
      <point x="1244" y="2076" type="qcurve"/>
      <point x="1522" y="2076"/>
      <point x="1886" y="1830"/>
      <point x="2028" y="1359"/>
      <point x="1972" y="1020" type="qcurve"/>
      <point x="1916" y="682"/>
      <point x="1617" y="200"/>
      <point x="1170" y="-56"/>
    </contour>
    <contour>
      <point x="968" y="396" type="qcurve"/>
      <point x="1112" y="396"/>
      <point x="1341" y="697"/>
      <point x="1396" y="1020" type="qcurve"/>
      <point x="1432" y="1230"/>
      <point x="1394" y="1499"/>
      <point x="1268" y="1628"/>
      <point x="1172" y="1628" type="qcurve"/>
      <point x="1028" y="1628"/>
      <point x="793" y="1335"/>
      <point x="740" y="1020" type="qcurve"/>
      <point x="704" y="804"/>
      <point x="744" y="528"/>
      <point x="872" y="396"/>
    </contour>
  </outline>
</glyph>
<glyph name="one" format="2">
  <advance width="1396"/>
  <unicode hex="0031"/>
  <unicode hex="E06C"/>
  <outline>
    <contour>
      <point x="1324" y="2048" type="line"/>
      <point x="984" y="0" type="line"/>
      <point x="428" y="0" type="line"/>
      <point x="660" y="1404" type="line"/>
      <point x="640" y="1404" type="line"/>
      <point x="606" y="1366"/>
      <point x="487" y="1296"/>
      <point x="318" y="1252"/>
      <point x="208" y="1252" type="qcurve"/>
      <point x="280" y="1688" type="line"/>
      <point x="366" y="1688"/>
      <point x="528" y="1746"/>
      <point x="663" y="1846"/>
      <point x="752" y="1976"/>
      <point x="764" y="2048" type="qcurve"/>
    </contour>
  </outline>
</glyph>
<glyph name="two" format="2">
  <advance width="1820"/>
  <unicode hex="0032"/>
  <outline>
    <contour>
      <point x="8" y="0" type="line"/>
      <point x="74" y="400" type="line"/>
      <point x="944" y="1032" type="line"/>
      <point x="1031" y="1095"/>
      <point x="1158" y="1206"/>
      <point x="1236" y="1324"/>
      <point x="1248" y="1396" type="qcurve"/>
      <point x="1268" y="1515"/>
      <point x="1142" y="1648"/>
      <point x="1028" y="1648" type="qcurve"/>
      <point x="951" y="1648"/>
      <point x="823" y="1586"/>
      <point x="738" y="1466"/>
      <point x="724" y="1380" type="qcurve"/>
      <point x="196" y="1380" type="line"/>
      <point x="232" y="1596"/>
      <point x="479" y="1908"/>
      <point x="860" y="2076"/>
      <point x="1098" y="2076" type="qcurve"/>
      <point x="1344" y="2076"/>
      <point x="1680" y="1919"/>
      <point x="1831" y="1635"/>
      <point x="1798" y="1444" type="qcurve"/>
      <point x="1778" y="1326"/>
      <point x="1641" y="1094"/>
      <point x="1340" y="811"/>
      <point x="1074" y="616" type="qcurve"/>
      <point x="856" y="456" type="line"/>
      <point x="854" y="444" type="line"/>
      <point x="1654" y="444" type="line"/>
      <point x="1580" y="0" type="line"/>
    </contour>
  </outline>
</glyph>
<glyph name="three" format="2">
  <advance width="1900"/>
  <unicode hex="0033"/>
  <unicode hex="E06D"/>
  <outline>
    <contour>
      <point x="80" y="624" type="qcurve"/>
      <point x="640" y="624" type="line"/>
      <point x="632" y="564"/>
      <point x="690" y="472"/>
      <point x="806" y="420"/>
      <point x="884" y="420" type="qcurve"/>
      <point x="964" y="420"/>
      <point x="1089" y="478"/>
      <point x="1168" y="576"/>
      <point x="1180" y="636" type="qcurve"/>
      <point x="1190" y="704"/>
      <point x="1130" y="799"/>
      <point x="1006" y="848"/>
      <point x="920" y="848" type="qcurve"/>
      <point x="660" y="848" type="line"/>
      <point x="724" y="1216" type="line"/>
      <point x="1204" y="1592" type="line"/>
      <point x="1204" y="1604" type="line"/>
      <point x="348" y="1604" type="line"/>
      <point x="420" y="2048" type="line"/>
      <point x="1936" y="2048" type="line"/>
      <point x="1868" y="1648" type="line"/>
      <point x="1236" y="1164" type="line"/>
      <point x="1236" y="1148" type="line"/>
      <point x="1413" y="1126"/>
      <point x="1632" y="1010"/>
      <point x="1745" y="852"/>
      <point x="1774" y="674"/>
      <point x="1760" y="588" type="qcurve"/>
      <point x="1728" y="402"/>
      <point x="1457" y="125"/>
      <point x="1048" y="-28"/>
      <point x="808" y="-28" type="qcurve"/>
      <point x="556" y="-28"/>
      <point x="209" y="140"/>
      <point x="50" y="434"/>
    </contour>
  </outline>
</glyph>
<glyph name="four" format="2">
  <advance width="1976"/>
  <unicode hex="0034"/>
  <unicode hex="E06E"/>
  <outline>
    <contour>
      <point x="40" y="320" type="line"/>
      <point x="112" y="752" type="line"/>
      <point x="1056" y="2048" type="line"/>
      <point x="1588" y="2048" type="line"/>
      <point x="664" y="768" type="line"/>
      <point x="660" y="752" type="line"/>
      <point x="1876" y="752" type="line"/>
      <point x="1804" y="320" type="line"/>
    </contour>
    <contour>
      <point x="984" y="0" type="line"/>
      <point x="1060" y="448" type="line"/>
      <point x="1112" y="640" type="line"/>
      <point x="1216" y="1280" type="line"/>
      <point x="1716" y="1280" type="line"/>
      <point x="1504" y="0" type="line"/>
    </contour>
  </outline>
</glyph>
<glyph name="five" format="2">
  <advance width="1884"/>
  <unicode hex="0035"/>
  <outline>
    <contour>
      <point x="824" y="-28" type="qcurve"/>
      <point x="589" y="-28"/>
      <point x="251" y="140"/>
      <point x="91" y="434"/>
      <point x="120" y="624" type="qcurve"/>
      <point x="660" y="624" type="line"/>
      <point x="646" y="519"/>
      <point x="782" y="392"/>
      <point x="892" y="392" type="qcurve"/>
      <point x="979" y="392"/>
      <point x="1121" y="465"/>
      <point x="1217" y="598"/>
      <point x="1232" y="688" type="qcurve"/>
      <point x="1247" y="778"/>
      <point x="1195" y="911"/>
      <point x="1077" y="984"/>
      <point x="992" y="984" type="qcurve"/>
      <point x="903" y="984"/>
      <point x="741" y="899"/>
      <point x="692" y="824" type="qcurve"/>
      <point x="200" y="824" type="line"/>
      <point x="488" y="2048" type="line"/>
      <point x="1864" y="2048" type="line"/>
      <point x="1792" y="1604" type="line"/>
      <point x="872" y="1604" type="line"/>
      <point x="756" y="1152" type="line"/>
      <point x="768" y="1152" type="line"/>
      <point x="832" y="1245"/>
      <point x="1089" y="1368"/>
      <point x="1244" y="1368" type="qcurve"/>
      <point x="1427" y="1368"/>
      <point x="1685" y="1198"/>
      <point x="1801" y="898"/>
      <point x="1768" y="704" type="qcurve"/>
      <point x="1735" y="490"/>
      <point x="1477" y="160"/>
      <point x="1075" y="-28"/>
    </contour>
  </outline>
</glyph>
<glyph name="six" format="2">
  <advance width="1888"/>
  <unicode hex="0036"/>
  <unicode hex="E06F"/>
  <outline>
    <contour>
      <point x="144" y="676" type="qcurve"/>
      <point x="164" y="792"/>
      <point x="260" y="1011"/>
      <point x="402" y="1224"/>
      <point x="492" y="1332" type="qcurve"/>
      <point x="1096" y="2048" type="line"/>
      <point x="1640" y="2048" type="line"/>
      <point x="1060" y="1360" type="line"/>
      <point x="1099" y="1366"/>
      <point x="1183" y="1376"/>
      <point x="1228" y="1376" type="qcurve"/>
      <point x="1420" y="1376"/>
      <point x="1684" y="1208"/>
      <point x="1798" y="906"/>
      <point x="1764" y="704" type="qcurve"/>
      <point x="1728" y="480"/>
      <point x="1468" y="151"/>
      <point x="1078" y="-28"/>
      <point x="848" y="-28" type="qcurve"/>
      <point x="634" y="-28"/>
      <point x="286" y="129"/>
      <point x="106" y="442"/>
    </contour>
    <contour>
      <point x="692" y="680" type="qcurve"/>
      <point x="678" y="596"/>
      <point x="725" y="466"/>
      <point x="834" y="392"/>
      <point x="912" y="392" type="qcurve"/>
      <point x="990" y="392"/>
      <point x="1121" y="466"/>
      <point x="1210" y="596"/>
      <point x="1224" y="680" type="qcurve"/>
      <point x="1238" y="764"/>
      <point x="1193" y="894"/>
      <point x="1086" y="968"/>
      <point x="1008" y="968" type="qcurve"/>
      <point x="930" y="968"/>
      <point x="797" y="894"/>
      <point x="706" y="764"/>
    </contour>
  </outline>
</glyph>
<glyph name="seven" format="2">
  <advance width="1720"/>
  <unicode hex="0037"/>
  <outline>
    <contour>
      <point x="100" y="0" type="line"/>
      <point x="1168" y="1592" type="line"/>
      <point x="1172" y="1604" type="line"/>
      <point x="228" y="1604" type="line"/>
      <point x="300" y="2048" type="line"/>
      <point x="1820" y="2048" type="line"/>
      <point x="1748" y="1604" type="line"/>
      <point x="672" y="0" type="line"/>
    </contour>
  </outline>
</glyph>
<glyph name="eight" format="2">
  <advance width="1940"/>
  <unicode hex="0038"/>
  <outline>
    <contour>
      <point x="836" y="-28" type="qcurve"/>
      <point x="589" y="-28"/>
      <point x="224" y="125"/>
      <point x="44" y="390"/>
      <point x="72" y="556" type="qcurve"/>
      <point x="94" y="682"/>
      <point x="257" y="892"/>
      <point x="497" y="1032"/>
      <point x="632" y="1052" type="qcurve"/>
      <point x="632" y="1068" type="line"/>
      <point x="466" y="1098"/>
      <point x="281" y="1350"/>
      <point x="308" y="1520" type="qcurve"/>
      <point x="334" y="1681"/>
      <point x="579" y="1932"/>
      <point x="958" y="2076"/>
      <point x="1184" y="2076" type="qcurve"/>
      <point x="1410" y="2076"/>
      <point x="1740" y="1931"/>
      <point x="1902" y="1680"/>
      <point x="1876" y="1520" type="qcurve"/>
      <point x="1848" y="1348"/>
      <point x="1582" y="1098"/>
      <point x="1400" y="1068" type="qcurve"/>
      <point x="1400" y="1052" type="line"/>
      <point x="1529" y="1032"/>
      <point x="1722" y="893"/>
      <point x="1814" y="683"/>
      <point x="1792" y="556" type="qcurve"/>
      <point x="1764" y="391"/>
      <point x="1498" y="126"/>
      <point x="1085" y="-28"/>
    </contour>
    <contour>
      <point x="900" y="356" type="qcurve"/>
      <point x="979" y="356"/>
      <point x="1111" y="421"/>
      <point x="1200" y="534"/>
      <point x="1212" y="604" type="qcurve"/>
      <point x="1224" y="676"/>
      <point x="1172" y="786"/>
      <point x="1059" y="848"/>
      <point x="980" y="848" type="qcurve"/>
      <point x="901" y="848"/>
      <point x="768" y="785"/>
      <point x="680" y="675"/>
      <point x="668" y="604" type="qcurve"/>
      <point x="656" y="533"/>
      <point x="709" y="420"/>
      <point x="823" y="356"/>
    </contour>
    <contour>
      <point x="1044" y="1232" type="qcurve"/>
      <point x="1114" y="1232"/>
      <point x="1231" y="1291"/>
      <point x="1309" y="1393"/>
      <point x="1320" y="1456" type="qcurve"/>
      <point x="1331" y="1521"/>
      <point x="1287" y="1620"/>
      <point x="1189" y="1676"/>
      <point x="1120" y="1676" type="qcurve"/>
      <point x="1051" y="1676"/>
      <point x="932" y="1619"/>
      <point x="851" y="1520"/>
      <point x="840" y="1456" type="qcurve"/>
      <point x="829" y="1392"/>
      <point x="875" y="1291"/>
      <point x="974" y="1232"/>
    </contour>
  </outline>
</glyph>
<glyph name="nine" format="2">
  <advance width="1888"/>
  <unicode hex="0039"/>
  <unicode hex="E070"/>
  <outline>
    <contour>
      <point x="208" y="1344" type="qcurve"/>
      <point x="244" y="1568"/>
      <point x="504" y="1897"/>
      <point x="894" y="2076"/>
      <point x="1124" y="2076" type="qcurve"/>
      <point x="1340" y="2076"/>
      <point x="1688" y="1921"/>
      <point x="1866" y="1608"/>
      <point x="1828" y="1372" type="qcurve"/>
      <point x="1808" y="1256"/>
      <point x="1712" y="1037"/>
      <point x="1570" y="824"/>
      <point x="1480" y="716" type="qcurve"/>
      <point x="876" y="0" type="line"/>
      <point x="332" y="0" type="line"/>
      <point x="912" y="688" type="line"/>
      <point x="873" y="682"/>
      <point x="789" y="672"/>
      <point x="744" y="672" type="qcurve"/>
      <point x="552" y="672"/>
      <point x="288" y="840"/>
      <point x="174" y="1142"/>
    </contour>
    <contour>
      <point x="748" y="1368" type="qcurve"/>
      <point x="734" y="1284"/>
      <point x="779" y="1154"/>
      <point x="886" y="1080"/>
      <point x="964" y="1080" type="qcurve"/>
      <point x="1042" y="1080"/>
      <point x="1175" y="1154"/>
      <point x="1266" y="1284"/>
      <point x="1280" y="1368" type="qcurve"/>
      <point x="1294" y="1452"/>
      <point x="1247" y="1582"/>
      <point x="1138" y="1656"/>
      <point x="1060" y="1656" type="qcurve"/>
      <point x="982" y="1656"/>
      <point x="851" y="1582"/>
      <point x="762" y="1452"/>
    </contour>
  </outline>
</glyph>
<glyph name="colon" format="2">
  <advance width="880"/>
  <unicode hex="003A"/>
  <outline>
    <contour>
      <point x="324" y="-32" type="qcurve"/>
      <point x="207" y="-32"/>
      <point x="60" y="131"/>
      <point x="72" y="248" type="qcurve"/>
      <point x="84" y="362"/>
      <point x="267" y="524"/>
      <point x="384" y="524" type="qcurve"/>
      <point x="495" y="524"/>
      <point x="644" y="362"/>
      <point x="632" y="248" type="qcurve"/>
      <point x="624" y="170"/>
      <point x="531" y="43"/>
      <point x="396" y="-32"/>
    </contour>
    <contour>
      <point x="496" y="1000" type="qcurve"/>
      <point x="379" y="1000"/>
      <point x="232" y="1163"/>
      <point x="244" y="1280" type="qcurve"/>
      <point x="256" y="1394"/>
      <point x="439" y="1556"/>
      <point x="556" y="1556" type="qcurve"/>
      <point x="667" y="1556"/>
      <point x="816" y="1394"/>
      <point x="804" y="1280" type="qcurve"/>
      <point x="796" y="1202"/>
      <point x="703" y="1075"/>
      <point x="568" y="1000"/>
    </contour>
  </outline>
</glyph>
<glyph name="semicolon" format="2">
  <advance width="896"/>
  <unicode hex="003B"/>
  <outline>
    <contour>
      <point x="596" y="280" type="line"/>
      <point x="568" y="168" type="line"/>
      <point x="535" y="24"/>
      <point x="417" y="-239"/>
      <point x="301" y="-444"/>
      <point x="268" y="-500" type="qcurve"/>
      <point x="-72" y="-500" type="line"/>
      <point x="-49" y="-448"/>
      <point x="45" y="-236"/>
      <point x="139" y="32"/>
      <point x="160" y="168" type="qcurve"/>
      <point x="180" y="280" type="line"/>
    </contour>
    <contour>
      <point x="500" y="1000" type="qcurve"/>
      <point x="383" y="1000"/>
      <point x="236" y="1163"/>
      <point x="248" y="1280" type="qcurve"/>
      <point x="260" y="1394"/>
      <point x="443" y="1556"/>
      <point x="560" y="1556" type="qcurve"/>
      <point x="671" y="1556"/>
      <point x="820" y="1394"/>
      <point x="808" y="1280" type="qcurve"/>
      <point x="800" y="1202"/>
      <point x="707" y="1075"/>
      <point x="572" y="1000"/>
    </contour>
  </outline>
</glyph>
<glyph name="less" format="2">
  <advance width="1952"/>
  <unicode hex="003C"/>
  <outline>
    <contour>
      <point x="204" y="592" type="line"/>
      <point x="284" y="1072" type="line"/>
      <point x="1868" y="1668" type="line"/>
      <point x="1784" y="1164" type="line"/>
      <point x="784" y="836" type="line"/>
      <point x="804" y="860" type="line"/>
      <point x="792" y="804" type="line"/>
      <point x="780" y="828" type="line"/>
      <point x="1676" y="500" type="line"/>
      <point x="1592" y="-4" type="line"/>
    </contour>
  </outline>
</glyph>
<glyph name="greater" format="2">
  <advance width="1952"/>
  <unicode hex="003E"/>
  <outline>
    <contour>
      <point x="1692" y="592" type="line"/>
      <point x="104" y="-4" type="line"/>
      <point x="188" y="500" type="line"/>
      <point x="1188" y="828" type="line"/>
      <point x="1168" y="804" type="line"/>
      <point x="1180" y="860" type="line"/>
      <point x="1192" y="836" type="line"/>
      <point x="296" y="1164" type="line"/>
      <point x="380" y="1668" type="line"/>
      <point x="1772" y="1072" type="line"/>
    </contour>
  </outline>
</glyph>
<glyph name="question" format="2">
  <advance width="1688"/>
  <unicode hex="003F"/>
  <outline>
    <contour>
      <point x="524" y="640" type="line"/>
      <point x="532" y="688" type="line"/>
      <point x="560" y="852"/>
      <point x="645" y="1048"/>
      <point x="767" y="1167"/>
      <point x="848" y="1216" type="qcurve"/>
      <point x="918" y="1258"/>
      <point x="1033" y="1336"/>
      <point x="1107" y="1424"/>
      <point x="1116" y="1480" type="qcurve"/>
      <point x="1128" y="1555"/>
      <point x="1039" y="1648"/>
      <point x="964" y="1648" type="qcurve"/>
      <point x="910" y="1648"/>
      <point x="810" y="1598"/>
      <point x="740" y="1510"/>
      <point x="732" y="1452" type="qcurve"/>
      <point x="220" y="1452" type="line"/>
      <point x="258" y="1672"/>
      <point x="498" y="1947"/>
      <point x="844" y="2076"/>
      <point x="1040" y="2076" type="qcurve"/>
      <point x="1252" y="2076"/>
      <point x="1567" y="1951"/>
      <point x="1719" y="1700"/>
      <point x="1688" y="1512" type="qcurve"/>
      <point x="1668" y="1390"/>
      <point x="1557" y="1207"/>
      <point x="1387" y="1068"/>
      <point x="1280" y="1012" type="qcurve"/>
      <point x="1200" y="970"/>
      <point x="1087" y="882"/>
      <point x="1018" y="768"/>
      <point x="1004" y="688" type="qcurve"/>
      <point x="996" y="640" type="line"/>
    </contour>
    <contour>
      <point x="668" y="-32" type="qcurve"/>
      <point x="551" y="-32"/>
      <point x="404" y="131"/>
      <point x="416" y="248" type="qcurve"/>
      <point x="428" y="362"/>
      <point x="611" y="524"/>
      <point x="728" y="524" type="qcurve"/>
      <point x="839" y="524"/>
      <point x="988" y="362"/>
      <point x="976" y="248" type="qcurve"/>
      <point x="968" y="170"/>
      <point x="875" y="43"/>
      <point x="740" y="-32"/>
    </contour>
  </outline>
</glyph>
<glyph name="at" format="2">
  <advance width="3080"/>
  <unicode hex="0040"/>
  <outline>
    <contour>
      <point x="1356" y="-624" type="qcurve"/>
      <point x="1028" y="-624"/>
      <point x="542" y="-447"/>
      <point x="238" y="-107"/>
      <point x="130" y="379"/>
      <point x="180" y="688" type="qcurve"/>
      <point x="232" y="996"/>
      <point x="506" y="1507"/>
      <point x="933" y="1880"/>
      <point x="1500" y="2084"/>
      <point x="1844" y="2084" type="qcurve"/>
      <point x="2154" y="2084"/>
      <point x="2625" y="1915"/>
      <point x="2926" y="1588"/>
      <point x="3036" y="1112"/>
      <point x="2984" y="804" type="qcurve"/>
      <point x="2950" y="594"/>
      <point x="2809" y="279"/>
      <point x="2598" y="63"/>
      <point x="2323" y="-57"/>
      <point x="2156" y="-72" type="qcurve"/>
      <point x="2007" y="-86"/>
      <point x="1889" y="-30"/>
      <point x="1869" y="74"/>
      <point x="1868" y="132" type="qcurve"/>
      <point x="1856" y="132" type="line"/>
      <point x="1823" y="70"/>
      <point x="1639" y="-22"/>
      <point x="1403" y="-68"/>
      <point x="1292" y="-60" type="qcurve"/>
      <point x="1183" y="-52"/>
      <point x="978" y="38"/>
      <point x="824" y="218"/>
      <point x="760" y="501"/>
      <point x="792" y="700" type="qcurve"/>
      <point x="826" y="900"/>
      <point x="981" y="1180"/>
      <point x="1184" y="1362"/>
      <point x="1401" y="1460"/>
      <point x="1496" y="1476" type="qcurve"/>
      <point x="1621" y="1498"/>
      <point x="1843" y="1465"/>
      <point x="1991" y="1388"/>
      <point x="2004" y="1344" type="qcurve"/>
      <point x="2020" y="1344" type="line"/>
      <point x="2036" y="1456" type="line"/>
      <point x="2416" y="1456" type="line"/>
      <point x="2248" y="432" type="line"/>
      <point x="2241" y="372"/>
      <point x="2271" y="332"/>
      <point x="2296" y="332" type="qcurve"/>
      <point x="2343" y="332"/>
      <point x="2445" y="441"/>
      <point x="2533" y="666"/>
      <point x="2560" y="840" type="qcurve"/>
      <point x="2598" y="1064"/>
      <point x="2531" y="1365"/>
      <point x="2365" y="1548"/>
      <point x="2138" y="1641"/>
      <point x="1889" y="1672"/>
      <point x="1776" y="1672" type="qcurve"/>
      <point x="1517" y="1672"/>
      <point x="1119" y="1517"/>
      <point x="836" y="1248"/>
      <point x="664" y="903"/>
      <point x="632" y="712" type="qcurve"/>
      <point x="595" y="487"/>
      <point x="667" y="143"/>
      <point x="879" y="-89"/>
      <point x="1224" y="-208"/>
      <point x="1460" y="-208" type="qcurve"/>
      <point x="1579" y="-208"/>
      <point x="1806" y="-181"/>
      <point x="2001" y="-136"/>
      <point x="2072" y="-108" type="qcurve"/>
      <point x="2140" y="-468" type="line"/>
      <point x="2069" y="-510"/>
      <point x="1830" y="-581"/>
      <point x="1525" y="-624"/>
    </contour>
    <contour>
      <point x="1520" y="352" type="qcurve"/>
      <point x="1635" y="352"/>
      <point x="1780" y="437"/>
      <point x="1859" y="600"/>
      <point x="1876" y="716" type="qcurve"/>
      <point x="1889" y="804"/>
      <point x="1872" y="957"/>
      <point x="1759" y="1052"/>
      <point x="1628" y="1052" type="qcurve"/>
      <point x="1519" y="1052"/>
      <point x="1355" y="975"/>
      <point x="1251" y="824"/>
      <point x="1232" y="712" type="qcurve"/>
      <point x="1217" y="620"/>
      <point x="1254" y="455"/>
      <point x="1389" y="352"/>
    </contour>
  </outline>
</glyph>
<glyph name="A" format="2">
  <advance width="2240"/>
  <unicode hex="0041"/>
  <outline>
    <contour>
      <point x="536" y="0" type="line"/>
      <point x="-64" y="0" type="line"/>
      <point x="952" y="2048" type="line"/>
      <point x="1712" y="2048" type="line"/>
      <point x="2048" y="0" type="line"/>
      <point x="1448" y="0" type="line"/>
      <point x="1248" y="1484" type="line"/>
      <point x="1232" y="1484" type="line"/>
    </contour>
    <contour>
      <point x="560" y="808" type="line"/>
      <point x="1688" y="808" type="line"/>
      <point x="1616" y="392" type="line"/>
      <point x="488" y="392" type="line"/>
    </contour>
  </outline>
</glyph>
<glyph name="B" format="2">
  <advance width="1880"/>
  <unicode hex="0042"/>
  <outline>
    <contour>
      <point x="4" y="0" type="line"/>
      <point x="344" y="2048" type="line"/>
      <point x="1232" y="2048" type="line"/>
      <point x="1466" y="2048"/>
      <point x="1765" y="1922"/>
      <point x="1890" y="1692"/>
      <point x="1864" y="1536" type="qcurve"/>
      <point x="1834" y="1368"/>
      <point x="1575" y="1124"/>
      <point x="1392" y="1088" type="qcurve"/>
      <point x="1388" y="1068" type="line"/>
      <point x="1520" y="1064"/>
      <point x="1716" y="941"/>
      <point x="1808" y="724"/>
      <point x="1784" y="580" type="qcurve"/>
      <point x="1756" y="412"/>
      <point x="1538" y="150"/>
      <point x="1190" y="0"/>
      <point x="968" y="0" type="qcurve"/>
    </contour>
    <contour>
      <point x="636" y="444" type="line"/>
      <point x="896" y="444" type="line"/>
      <point x="1034" y="444"/>
      <point x="1193" y="550"/>
      <point x="1208" y="652" type="qcurve"/>
      <point x="1220" y="724"/>
      <point x="1172" y="824"/>
      <point x="1058" y="876"/>
      <point x="972" y="876" type="qcurve"/>
      <point x="704" y="876" type="line"/>
    </contour>
    <contour>
      <point x="764" y="1220" type="line"/>
      <point x="992" y="1220" type="line"/>
      <point x="1064" y="1220"/>
      <point x="1184" y="1266"/>
      <point x="1262" y="1354"/>
      <point x="1272" y="1416" type="qcurve"/>
      <point x="1287" y="1512"/>
      <point x="1166" y="1612"/>
      <point x="1064" y="1612" type="qcurve"/>
      <point x="828" y="1612" type="line"/>
    </contour>
  </outline>
</glyph>
<glyph name="D" format="2">
  <advance width="2064"/>
  <unicode hex="0044"/>
  <outline>
    <contour>
      <point x="804" y="0" type="qcurve"/>
      <point x="4" y="0" type="line"/>
      <point x="344" y="2048" type="line"/>
      <point x="1112" y="2048" type="line"/>
      <point x="1428" y="2048"/>
      <point x="1852" y="1794"/>
      <point x="2030" y="1322"/>
      <point x="1976" y="996" type="qcurve"/>
      <point x="1924" y="682"/>
      <point x="1607" y="236"/>
      <point x="1116" y="0"/>
    </contour>
    <contour>
      <point x="638" y="472" type="line"/>
      <point x="840" y="472" type="line"/>
      <point x="992" y="472"/>
      <point x="1231" y="579"/>
      <point x="1392" y="832"/>
      <point x="1428" y="1052" type="qcurve"/>
      <point x="1462" y="1260"/>
      <point x="1390" y="1487"/>
      <point x="1188" y="1576"/>
      <point x="1028" y="1576" type="qcurve"/>
      <point x="822" y="1576" type="line"/>
    </contour>
  </outline>
</glyph>
<glyph name="F" format="2">
  <advance width="1644"/>
  <unicode hex="0046"/>
  <outline>
    <contour>
      <point x="4" y="0" type="line"/>
      <point x="344" y="2048" type="line"/>
      <point x="1784" y="2048" type="line"/>
      <point x="1708" y="1600" type="line"/>
      <point x="824" y="1600" type="line"/>
      <point x="768" y="1248" type="line"/>
      <point x="1564" y="1248" type="line"/>
      <point x="1488" y="800" type="line"/>
      <point x="692" y="800" type="line"/>
      <point x="560" y="0" type="line"/>
    </contour>
  </outline>
</glyph>
<glyph name="H" format="2">
  <advance width="2112"/>
  <unicode hex="0048"/>
  <outline>
    <contour>
      <point x="4" y="0" type="line"/>
      <point x="344" y="2048" type="line"/>
      <point x="900" y="2048" type="line"/>
      <point x="768" y="1248" type="line"/>
      <point x="1504" y="1248" type="line"/>
      <point x="1636" y="2048" type="line"/>
      <point x="2192" y="2048" type="line"/>
      <point x="1852" y="0" type="line"/>
      <point x="1296" y="0" type="line"/>
      <point x="1428" y="800" type="line"/>
      <point x="692" y="800" type="line"/>
      <point x="560" y="0" type="line"/>
    </contour>
  </outline>
</glyph>
<glyph name="I" format="2">
  <advance width="1420"/>
  <unicode hex="0049"/>
  <unicode hex="E00C"/>
  <outline>
    <contour>
      <point x="212" y="1600" type="line"/>
      <point x="288" y="2048" type="line"/>
      <point x="1556" y="2048" type="line"/>
      <point x="1480" y="1600" type="line"/>
    </contour>
    <contour>
      <point x="-52" y="0" type="line"/>
      <point x="24" y="448" type="line"/>
      <point x="1292" y="448" type="line"/>
      <point x="1216" y="0" type="line"/>
    </contour>
    <contour>
      <point x="1200" y="2048" type="line"/>
      <point x="860" y="0" type="line"/>
      <point x="304" y="0" type="line"/>
      <point x="644" y="2048" type="line"/>
    </contour>
  </outline>
</glyph>
<glyph name="J" format="2">
  <advance width="1656"/>
  <unicode hex="004A"/>
  <outline>
    <contour>
      <point x="1188" y="2048" type="line"/>
      <point x="1736" y="2048" type="line"/>
      <point x="1504" y="644" type="line"/>
      <point x="1470" y="444"/>
      <point x="1222" y="141"/>
      <point x="844" y="-28"/>
      <point x="616" y="-28" type="qcurve"/>
      <point x="420" y="-28"/>
      <point x="117" y="109"/>
      <point x="-28" y="404"/>
      <point x="12" y="640" type="qcurve"/>
      <point x="568" y="640" type="line"/>
      <point x="558" y="562"/>
      <point x="586" y="457"/>
      <point x="662" y="404"/>
      <point x="724" y="404" type="qcurve"/>
      <point x="786" y="404"/>
      <point x="880" y="459"/>
      <point x="942" y="566"/>
      <point x="956" y="644" type="qcurve"/>
    </contour>
    <contour>
      <point x="736" y="2048" type="line"/>
      <point x="1612" y="2048" type="line"/>
      <point x="1536" y="1600" type="line"/>
      <point x="660" y="1600" type="line"/>
    </contour>
  </outline>
</glyph>
<glyph name="K" format="2">
  <advance width="2012"/>
  <unicode hex="004B"/>
  <outline>
    <contour>
      <point x="4" y="0" type="line"/>
      <point x="344" y="2048" type="line"/>
      <point x="900" y="2048" type="line"/>
      <point x="764" y="1220" type="line"/>
      <point x="792" y="1220" type="line"/>
      <point x="1544" y="2048" type="line"/>
      <point x="2192" y="2048" type="line"/>
      <point x="1352" y="1136" type="line"/>
      <point x="1868" y="0" type="line"/>
      <point x="1204" y="0" type="line"/>
      <point x="876" y="768" type="line"/>
      <point x="648" y="524" type="line"/>
      <point x="560" y="0" type="line"/>
    </contour>
  </outline>
</glyph>
<glyph name="L" format="2">
  <advance width="1608"/>
  <unicode hex="004C"/>
  <outline>
    <contour>
      <point x="4" y="0" type="line"/>
      <point x="344" y="2048" type="line"/>
      <point x="900" y="2048" type="line"/>
      <point x="636" y="448" type="line"/>
      <point x="1464" y="448" type="line"/>
      <point x="1388" y="0" type="line"/>
    </contour>
  </outline>
</glyph>
<glyph name="M" format="2">
  <advance width="2624"/>
  <unicode hex="004D"/>
  <outline>
    <contour>
      <point x="344" y="2048" type="line"/>
      <point x="1036" y="2048" type="line"/>
      <point x="1320" y="888" type="line"/>
      <point x="1344" y="888" type="line"/>
      <point x="2012" y="2048" type="line"/>
      <point x="2704" y="2048" type="line"/>
      <point x="2364" y="0" type="line"/>
      <point x="1820" y="0" type="line"/>
      <point x="2016" y="1184" type="line"/>
      <point x="2000" y="1184" type="line"/>
      <point x="1352" y="16" type="line"/>
      <point x="1024" y="16" type="line"/>
      <point x="764" y="1192" type="line"/>
      <point x="748" y="1192" type="line"/>
      <point x="548" y="0" type="line"/>
      <point x="4" y="0" type="line"/>
    </contour>
  </outline>
</glyph>
<glyph name="N" format="2">
  <advance width="2036"/>
  <unicode hex="004E"/>
  <outline>
    <contour>
      <point x="2116" y="2048" type="line"/>
      <point x="1776" y="0" type="line"/>
      <point x="1312" y="0" type="line"/>
      <point x="752" y="1076" type="line"/>
      <point x="740" y="1076" type="line"/>
      <point x="560" y="0" type="line"/>
      <point x="4" y="0" type="line"/>
      <point x="344" y="2048" type="line"/>
      <point x="816" y="2048" type="line"/>
      <point x="1368" y="976" type="line"/>
      <point x="1384" y="976" type="line"/>
      <point x="1560" y="2048" type="line"/>
    </contour>
  </outline>
</glyph>
<glyph name="P" format="2">
  <advance width="1848"/>
  <unicode hex="0050"/>
  <outline>
    <contour>
      <point x="4" y="0" type="line"/>
      <point x="344" y="2048" type="line"/>
      <point x="1228" y="2048" type="line"/>
      <point x="1456" y="2048"/>
      <point x="1768" y="1868"/>
      <point x="1904" y="1542"/>
      <point x="1868" y="1324" type="qcurve"/>
      <point x="1832" y="1102"/>
      <point x="1585" y="781"/>
      <point x="1204" y="608"/>
      <point x="968" y="608" type="qcurve"/>
      <point x="440" y="608" type="line"/>
      <point x="512" y="1040" type="line"/>
      <point x="928" y="1040" type="line"/>
      <point x="1028" y="1040"/>
      <point x="1180" y="1109"/>
      <point x="1274" y="1236"/>
      <point x="1288" y="1324" type="qcurve"/>
      <point x="1302" y="1412"/>
      <point x="1249" y="1537"/>
      <point x="1122" y="1604"/>
      <point x="1024" y="1604" type="qcurve"/>
      <point x="828" y="1604" type="line"/>
      <point x="560" y="0" type="line"/>
    </contour>
  </outline>
</glyph>
<glyph name="R" format="2">
  <advance width="1908"/>
  <unicode hex="0052"/>
  <outline>
    <contour>
      <point x="4" y="0" type="line"/>
      <point x="344" y="2048" type="line"/>
      <point x="1228" y="2048" type="line"/>
      <point x="1456" y="2048"/>
      <point x="1770" y="1882"/>
      <point x="1908" y="1570"/>
      <point x="1872" y="1352" type="qcurve"/>
      <point x="1836" y="1132"/>
      <point x="1591" y="831"/>
      <point x="1214" y="676"/>
      <point x="980" y="676" type="qcurve"/>
      <point x="452" y="676" type="line"/>
      <point x="524" y="1108" type="line"/>
      <point x="940" y="1108" type="line"/>
      <point x="1038" y="1108"/>
      <point x="1186" y="1157"/>
      <point x="1278" y="1264"/>
      <point x="1292" y="1352" type="qcurve"/>
      <point x="1313" y="1484"/>
      <point x="1168" y="1604"/>
      <point x="1024" y="1604" type="qcurve"/>
      <point x="828" y="1604" type="line"/>
      <point x="560" y="0" type="line"/>
    </contour>
    <contour>
      <point x="1360" y="940" type="line"/>
      <point x="1716" y="0" type="line"/>
      <point x="1112" y="0" type="line"/>
      <point x="768" y="940" type="line"/>
    </contour>
  </outline>
</glyph>
<glyph name="T" format="2">
  <advance width="1932"/>
  <unicode hex="0054"/>
  <outline>
    <contour>
      <point x="212" y="1600" type="line"/>
      <point x="288" y="2048" type="line"/>
      <point x="2068" y="2048" type="line"/>
      <point x="1992" y="1600" type="line"/>
      <point x="1376" y="1600" type="line"/>
      <point x="1112" y="0" type="line"/>
      <point x="564" y="0" type="line"/>
      <point x="828" y="1600" type="line"/>
    </contour>
  </outline>
</glyph>
<glyph name="U" format="2">
  <advance width="2032"/>
  <unicode hex="0055"/>
  <outline>
    <contour>
      <point x="1556" y="2048" type="line"/>
      <point x="2112" y="2048" type="line"/>
      <point x="1894" y="736" type="line"/>
      <point x="1856" y="502"/>
      <point x="1577" y="161"/>
      <point x="1147" y="-24"/>
      <point x="884" y="-24" type="qcurve"/>
      <point x="619" y="-24"/>
      <point x="253" y="161"/>
      <point x="88" y="502"/>
      <point x="126" y="736" type="qcurve"/>
      <point x="344" y="2048" type="line"/>
      <point x="900" y="2048" type="line"/>
      <point x="690" y="784" type="line"/>
      <point x="675" y="689"/>
      <point x="735" y="541"/>
      <point x="869" y="456"/>
      <point x="964" y="456" type="qcurve"/>
      <point x="1060" y="456"/>
      <point x="1223" y="541"/>
      <point x="1331" y="689"/>
      <point x="1346" y="784" type="qcurve"/>
    </contour>
  </outline>
</glyph>
<glyph name="V" format="2">
  <advance width="2240"/>
  <unicode hex="0056"/>
  <outline>
    <contour>
      <point x="904" y="2048" type="line"/>
      <point x="1084" y="604" type="line"/>
      <point x="1100" y="604" type="line"/>
      <point x="1760" y="2048" type="line"/>
      <point x="2388" y="2048" type="line"/>
      <point x="1372" y="0" type="line"/>
      <point x="612" y="0" type="line"/>
      <point x="276" y="2048" type="line"/>
    </contour>
  </outline>
</glyph>
<glyph name="W" format="2">
  <advance width="3080"/>
  <unicode hex="0057"/>
  <outline>
    <contour>
      <point x="524" y="0" type="line"/>
      <point x="260" y="2048" type="line"/>
      <point x="880" y="2048" type="line"/>
      <point x="952" y="788" type="line"/>
      <point x="968" y="788" type="line"/>
      <point x="1508" y="2048" type="line"/>
      <point x="1996" y="2048" type="line"/>
      <point x="2120" y="784" type="line"/>
      <point x="2136" y="784" type="line"/>
      <point x="2624" y="2048" type="line"/>
      <point x="3244" y="2048" type="line"/>
      <point x="2300" y="0" type="line"/>
      <point x="1768" y="0" type="line"/>
      <point x="1612" y="1144" type="line"/>
      <point x="1596" y="1144" type="line"/>
      <point x="1056" y="0" type="line"/>
    </contour>
  </outline>
</glyph>
<glyph name="X" format="2">
  <advance width="2148"/>
  <unicode hex="0058"/>
  <outline>
    <contour>
      <point x="916" y="2048" type="line"/>
      <point x="1152" y="1452" type="line"/>
      <point x="1168" y="1452" type="line"/>
      <point x="1608" y="2048" type="line"/>
      <point x="2252" y="2048" type="line"/>
      <point x="1472" y="1024" type="line"/>
      <point x="1936" y="0" type="line"/>
      <point x="1316" y="0" type="line"/>
      <point x="1068" y="608" type="line"/>
      <point x="1052" y="608" type="line"/>
      <point x="604" y="0" type="line"/>
      <point x="-44" y="0" type="line"/>
      <point x="756" y="1024" type="line"/>
      <point x="316" y="2048" type="line"/>
    </contour>
  </outline>
</glyph>
<glyph name="Y" format="2">
  <advance width="2152"/>
  <unicode hex="0059"/>
  <outline>
    <contour>
      <point x="260" y="2048" type="line"/>
      <point x="880" y="2048" type="line"/>
      <point x="1140" y="1216" type="line"/>
      <point x="1160" y="1216" type="line"/>
      <point x="1696" y="2048" type="line"/>
      <point x="2316" y="2048" type="line"/>
      <point x="1332" y="644" type="line"/>
      <point x="1224" y="0" type="line"/>
      <point x="672" y="0" type="line"/>
      <point x="780" y="644" type="line"/>
    </contour>
  </outline>
</glyph>
<glyph name="Z" format="2">
  <advance width="1956"/>
  <unicode hex="005A"/>
  <outline>
    <contour>
      <point x="12" y="0" type="line"/>
      <point x="64" y="308" type="line"/>
      <point x="1248" y="1600" type="line"/>
      <point x="280" y="1600" type="line"/>
      <point x="356" y="2048" type="line"/>
      <point x="2028" y="2048" type="line"/>
      <point x="1976" y="1740" type="line"/>
      <point x="792" y="448" type="line"/>
      <point x="1760" y="448" type="line"/>
      <point x="1684" y="0" type="line"/>
    </contour>
  </outline>
</glyph>
<glyph name="bracketleft" format="2">
  <advance width="1240"/>
  <unicode hex="005B"/>
  <outline>
    <contour>
      <point x="68" y="-464" type="line"/>
      <point x="484" y="2048" type="line"/>
      <point x="1404" y="2048" type="line"/>
      <point x="1336" y="1648" type="line"/>
      <point x="952" y="1648" type="line"/>
      <point x="672" y="-64" type="line"/>
      <point x="1056" y="-64" type="line"/>
      <point x="988" y="-464" type="line"/>
    </contour>
  </outline>
</glyph>
<glyph name="backslash" format="2">
  <advance width="1150"/>
  <unicode hex="005C"/>
  <outline>
    <contour>
      <point x="498" y="-308" type="line"/>
      <point x="244" y="2144" type="line"/>
      <point x="698" y="2144" type="line"/>
      <point x="954" y="-308" type="line"/>
    </contour>
  </outline>
</glyph>
<glyph name="bracketright" format="2">
  <advance width="1240"/>
  <unicode hex="005D"/>
  <outline>
    <contour>
      <point x="1180" y="2048" type="line"/>
      <point x="764" y="-464" type="line"/>
      <point x="-156" y="-464" type="line"/>
      <point x="-88" y="-64" type="line"/>
      <point x="296" y="-64" type="line"/>
      <point x="576" y="1648" type="line"/>
      <point x="192" y="1648" type="line"/>
      <point x="260" y="2048" type="line"/>
    </contour>
  </outline>
</glyph>
<glyph name="asciicircum" format="2">
  <advance width="1408"/>
  <unicode hex="005E"/>
  <outline>
    <contour>
      <point x="856" y="1796" type="line"/>
      <point x="928" y="1796" type="line"/>
      <point x="908" y="1680" type="line"/>
      <point x="836" y="1680" type="line"/>
    </contour>
    <contour>
      <point x="140" y="1120" type="line"/>
      <point x="716" y="2016" type="line"/>
      <point x="1108" y="2016" type="line"/>
      <point x="1388" y="1120" type="line"/>
      <point x="1024" y="1120" type="line"/>
      <point x="868" y="1720" type="line"/>
      <point x="884" y="1720" type="line"/>
      <point x="536" y="1120" type="line"/>
    </contour>
  </outline>
</glyph>
<glyph name="underscore" format="2">
  <advance width="1388"/>
  <unicode hex="005F"/>
  <outline>
    <contour>
      <point x="1260" y="0" type="line"/>
      <point x="1196" y="-392" type="line"/>
      <point x="-192" y="-392" type="line"/>
      <point x="-128" y="0" type="line"/>
    </contour>
  </outline>
</glyph>
<glyph name="grave" format="2">
  <advance width="1400"/>
  <unicode hex="0060"/>
  <outline>
    <contour>
      <point x="828" y="1728" type="line"/>
      <point x="600" y="2176" type="line"/>
      <point x="1072" y="2176" type="line"/>
      <point x="1192" y="1728" type="line"/>
    </contour>
  </outline>
</glyph>
<glyph name="a" format="2">
  <advance width="1664"/>
  <unicode hex="0061"/>
  <outline>
    <contour>
      <point x="436" y="-24" type="qcurve"/>
      <point x="290" y="-24"/>
      <point x="81" y="73"/>
      <point x="-14" y="272"/>
      <point x="12" y="424" type="qcurve"/>
      <point x="33" y="550"/>
      <point x="149" y="728"/>
      <point x="321" y="842"/>
      <point x="536" y="903"/>
      <point x="656" y="912" type="qcurve"/>
      <point x="786" y="922"/>
      <point x="948" y="952"/>
      <point x="1028" y="1004"/>
      <point x="1036" y="1048" type="qcurve"/>
      <point x="1036" y="1052" type="line"/>
      <point x="1045" y="1112"/>
      <point x="964" y="1176"/>
      <point x="892" y="1176" type="qcurve"/>
      <point x="814" y="1176"/>
      <point x="701" y="1108"/>
      <point x="680" y="1036" type="qcurve"/>
      <point x="172" y="1036" type="line"/>
      <point x="204" y="1176"/>
      <point x="403" y="1413"/>
      <point x="734" y="1556"/>
      <point x="964" y="1556" type="qcurve"/>
      <point x="1095" y="1556"/>
      <point x="1307" y="1506"/>
      <point x="1465" y="1415"/>
      <point x="1565" y="1289"/>
      <point x="1602" y="1137"/>
      <point x="1588" y="1052" type="qcurve"/>
      <point x="1412" y="0" type="line"/>
      <point x="896" y="0" type="line"/>
      <point x="932" y="216" type="line"/>
      <point x="920" y="216" type="line"/>
      <point x="860" y="130"/>
      <point x="711" y="24"/>
      <point x="536" y="-24"/>
    </contour>
    <contour>
      <point x="676" y="324" type="qcurve"/>
      <point x="738" y="324"/>
      <point x="858" y="376"/>
      <point x="944" y="474"/>
      <point x="956" y="544" type="qcurve"/>
      <point x="976" y="672" type="line"/>
      <point x="954" y="663"/>
      <point x="901" y="648"/>
      <point x="844" y="634"/>
      <point x="781" y="622"/>
      <point x="748" y="616" type="qcurve"/>
      <point x="682" y="606"/>
      <point x="592" y="561"/>
      <point x="542" y="496"/>
      <point x="536" y="456" type="qcurve"/>
      <point x="527" y="393"/>
      <point x="604" y="324"/>
    </contour>
  </outline>
</glyph>
<glyph name="e" format="2">
  <advance width="1712"/>
  <unicode hex="0065"/>
  <outline>
    <contour>
      <point x="744" y="-28" type="qcurve"/>
      <point x="498" y="-28"/>
      <point x="174" y="161"/>
      <point x="42" y="516"/>
      <point x="84" y="764" type="qcurve"/>
      <point x="124" y="1002"/>
      <point x="375" y="1358"/>
      <point x="758" y="1556"/>
      <point x="996" y="1556" type="qcurve"/>
      <point x="1170" y="1556"/>
      <point x="1433" y="1448"/>
      <point x="1599" y="1242"/>
      <point x="1658" y="951"/>
      <point x="1628" y="768" type="qcurve"/>
      <point x="1608" y="640" type="line"/>
      <point x="236" y="640" type="line"/>
      <point x="284" y="944" type="line"/>
      <point x="1148" y="944" type="line"/>
      <point x="1158" y="1010"/>
      <point x="1113" y="1111"/>
      <point x="1016" y="1168"/>
      <point x="948" y="1168" type="qcurve"/>
      <point x="880" y="1168"/>
      <point x="761" y="1110"/>
      <point x="678" y="1006"/>
      <point x="664" y="936" type="qcurve"/>
      <point x="604" y="616" type="line"/>
      <point x="592" y="542"/>
      <point x="634" y="426"/>
      <point x="738" y="360"/>
      <point x="820" y="360" type="qcurve"/>
      <point x="876" y="360"/>
      <point x="977" y="391"/>
      <point x="1056" y="452"/>
      <point x="1080" y="496" type="qcurve"/>
      <point x="1584" y="496" type="line"/>
      <point x="1530" y="336"/>
      <point x="1297" y="101"/>
      <point x="958" y="-28"/>
    </contour>
  </outline>
</glyph>
<glyph name="f" format="2">
  <advance width="1134"/>
  <unicode hex="0066"/>
  <outline>
    <contour>
      <point x="1190" y="1536" type="line"/>
      <point x="1122" y="1136" type="line"/>
      <point x="94" y="1136" type="line"/>
      <point x="162" y="1536" type="line"/>
    </contour>
    <contour>
      <point x="100" y="0" type="line"/>
      <point x="364" y="1580" type="line"/>
      <point x="395" y="1770"/>
      <point x="572" y="2020"/>
      <point x="841" y="2144"/>
      <point x="1008" y="2144" type="qcurve"/>
      <point x="1114" y="2144"/>
      <point x="1308" y="2112"/>
      <point x="1352" y="2100" type="qcurve"/>
      <point x="1208" y="1704" type="line"/>
      <point x="1179" y="1713"/>
      <point x="1103" y="1724"/>
      <point x="1072" y="1724" type="qcurve"/>
      <point x="995" y="1724"/>
      <point x="930" y="1658"/>
      <point x="920" y="1604" type="qcurve"/>
      <point x="652" y="0" type="line"/>
    </contour>
  </outline>
</glyph>
<glyph name="g" format="2">
  <advance width="1828"/>
  <unicode hex="0067"/>
  <outline>
    <contour>
      <point x="632" y="-608" type="curve" smooth="yes"/>
      <point x="1118" y="-608"/>
      <point x="1479" y="-386"/>
      <point x="1548" y="4" type="curve"/>
      <point x="1818" y="1536" type="line"/>
      <point x="1266" y="1536" type="line"/>
      <point x="1219" y="1268" type="line"/>
      <point x="1207" y="1268" type="line"/>
      <point x="1174" y="1424"/>
      <point x="1053" y="1556"/>
      <point x="825" y="1556" type="curve"/>
      <point x="521" y="1556"/>
      <point x="184" y="1324"/>
      <point x="86" y="768" type="curve"/>
      <point x="-7" y="236"/>
      <point x="231" y="20"/>
      <point x="559" y="20" type="curve"/>
      <point x="767" y="20"/>
      <point x="946" y="108"/>
      <point x="1034" y="264" type="curve"/>
      <point x="1050" y="264" type="line"/>
      <point x="1004" y="4" type="line"/>
      <point x="972" y="-177"/>
      <point x="856" y="-236"/>
      <point x="713" y="-236" type="curve"/>
      <point x="586" y="-236"/>
      <point x="500" y="-198"/>
      <point x="501" y="-100" type="curve"/>
      <point x="-31" y="-100" type="line"/>
      <point x="-62" y="-396"/>
      <point x="170" y="-608"/>
    </contour>
    <contour>
      <point x="832" y="412" type="curve" smooth="yes"/>
      <point x="680" y="412"/>
      <point x="614" y="540"/>
      <point x="654" y="768" type="curve"/>
      <point x="695" y="996"/>
      <point x="807" y="1132"/>
      <point x="959" y="1132" type="curve"/>
      <point x="1111" y="1132"/>
      <point x="1179" y="996"/>
      <point x="1138" y="768" type="curve"/>
      <point x="1099" y="544"/>
      <point x="984" y="412"/>
    </contour>
  </outline>
</glyph>
<glyph name="i" format="2">
  <advance width="832"/>
  <unicode hex="0069"/>
  <outline>
    <contour>
      <point x="12" y="0" type="line"/>
      <point x="268" y="1536" type="line"/>
      <point x="820" y="1536" type="line"/>
      <point x="564" y="0" type="line"/>
    </contour>
    <contour>
      <point x="568" y="1696" type="qcurve"/>
      <point x="456" y="1696"/>
      <point x="318" y="1845"/>
      <point x="336" y="1948" type="qcurve"/>
      <point x="354" y="2053"/>
      <point x="538" y="2200"/>
      <point x="650" y="2200" type="qcurve"/>
      <point x="763" y="2200"/>
      <point x="897" y="2053"/>
      <point x="880" y="1948" type="qcurve"/>
      <point x="864" y="1845"/>
      <point x="681" y="1696"/>
    </contour>
  </outline>
</glyph>
<glyph name="j" format="2">
  <advance width="832"/>
  <unicode hex="006A"/>
  <outline>
    <contour>
      <point x="268" y="1536" type="line"/>
      <point x="820" y="1536" type="line"/>
      <point x="554" y="-52" type="line"/>
      <point x="520" y="-253"/>
      <point x="312" y="-482"/>
      <point x="-9" y="-576"/>
      <point x="-212" y="-576" type="qcurve"/>
      <point x="-237" y="-576"/>
      <point x="-288" y="-574"/>
      <point x="-318" y="-572" type="qcurve"/>
      <point x="-250" y="-164" type="line"/>
      <point x="-233" y="-166"/>
      <point x="-201" y="-168"/>
      <point x="-186" y="-168" type="qcurve"/>
      <point x="-87" y="-168"/>
      <point x="-5" y="-106"/>
      <point x="6" y="-40" type="qcurve"/>
    </contour>
    <contour>
      <point x="568" y="1696" type="qcurve"/>
      <point x="456" y="1696"/>
      <point x="318" y="1845"/>
      <point x="336" y="1948" type="qcurve"/>
      <point x="354" y="2053"/>
      <point x="538" y="2200"/>
      <point x="650" y="2200" type="qcurve"/>
      <point x="763" y="2200"/>
      <point x="897" y="2053"/>
      <point x="880" y="1948" type="qcurve"/>
      <point x="864" y="1845"/>
      <point x="681" y="1696"/>
    </contour>
  </outline>
</glyph>
<glyph name="k" format="2">
  <advance width="1708"/>
  <unicode hex="006B"/>
  <outline>
    <contour>
      <point x="568" y="364" type="line"/>
      <point x="680" y="1020" type="line"/>
      <point x="752" y="1020" type="line"/>
      <point x="1212" y="1536" type="line"/>
      <point x="1832" y="1536" type="line"/>
      <point x="1076" y="732" type="line"/>
      <point x="920" y="732" type="line"/>
    </contour>
    <contour>
      <point x="12" y="0" type="line"/>
      <point x="352" y="2048" type="line"/>
      <point x="904" y="2048" type="line"/>
      <point x="564" y="0" type="line"/>
    </contour>
    <contour>
      <point x="960" y="0" type="line"/>
      <point x="708" y="608" type="line"/>
      <point x="1136" y="1000" type="line"/>
      <point x="1592" y="0" type="line"/>
    </contour>
  </outline>
</glyph>
<glyph name="l" format="2">
  <advance width="928"/>
  <unicode hex="006C"/>
  <unicode hex="E050"/>
  <outline>
    <contour>
      <point x="352" y="2048" type="line"/>
      <point x="904" y="2048" type="line"/>
      <point x="648" y="500" type="line"/>
      <point x="639" y="452"/>
      <point x="685" y="404"/>
      <point x="736" y="404" type="qcurve"/>
      <point x="760" y="404"/>
      <point x="795" y="409"/>
      <point x="804" y="412" type="qcurve"/>
      <point x="824" y="32" type="line"/>
      <point x="785" y="20"/>
      <point x="684" y="-2"/>
      <point x="588" y="-8" type="qcurve"/>
      <point x="288" y="-23"/>
      <point x="46" y="193"/>
      <point x="88" y="448" type="qcurve"/>
    </contour>
  </outline>
</glyph>
<glyph name="m" format="2">
  <advance width="2648"/>
  <unicode hex="006D"/>
  <outline>
    <contour>
      <point x="16" y="0" type="line"/>
      <point x="272" y="1536" type="line"/>
      <point x="796" y="1536" type="line"/>
      <point x="748" y="1244" type="line"/>
      <point x="764" y="1244" type="line"/>
      <point x="835" y="1388"/>
      <point x="1095" y="1556"/>
      <point x="1256" y="1556" type="qcurve"/>
      <point x="1417" y="1556"/>
      <point x="1623" y="1385"/>
      <point x="1624" y="1244" type="qcurve"/>
      <point x="1640" y="1244" type="line"/>
      <point x="1702" y="1385"/>
      <point x="1984" y="1556"/>
      <point x="2156" y="1556" type="qcurve"/>
      <point x="2375" y="1556"/>
      <point x="2604" y="1272"/>
      <point x="2564" y="1036" type="qcurve"/>
      <point x="2392" y="0" type="line"/>
      <point x="1840" y="0" type="line"/>
      <point x="1992" y="896" type="line"/>
      <point x="2006" y="997"/>
      <point x="1922" y="1112"/>
      <point x="1836" y="1112" type="qcurve"/>
      <point x="1751" y="1112"/>
      <point x="1634" y="997"/>
      <point x="1620" y="896" type="qcurve"/>
      <point x="1468" y="0" type="line"/>
      <point x="940" y="0" type="line"/>
      <point x="1092" y="896" type="line"/>
      <point x="1106" y="997"/>
      <point x="1022" y="1112"/>
      <point x="936" y="1112" type="qcurve"/>
      <point x="880" y="1112"/>
      <point x="789" y="1060"/>
      <point x="730" y="963"/>
      <point x="720" y="896" type="qcurve"/>
      <point x="568" y="0" type="line"/>
    </contour>
  </outline>
</glyph>
<glyph name="n" format="2">
  <advance width="1820"/>
  <unicode hex="006E"/>
  <outline>
    <contour>
      <point x="712" y="864" type="qcurve"/>
      <point x="568" y="0" type="line"/>
      <point x="16" y="0" type="line"/>
      <point x="272" y="1536" type="line"/>
      <point x="796" y="1536" type="line"/>
      <point x="748" y="1244" type="line"/>
      <point x="764" y="1244" type="line"/>
      <point x="837" y="1391"/>
      <point x="1118" y="1556"/>
      <point x="1288" y="1556" type="qcurve"/>
      <point x="1451" y="1556"/>
      <point x="1667" y="1408"/>
      <point x="1757" y="1148"/>
      <point x="1728" y="980" type="qcurve"/>
      <point x="1564" y="0" type="line"/>
      <point x="1012" y="0" type="line"/>
      <point x="1156" y="864" type="line"/>
      <point x="1175" y="978"/>
      <point x="1082" y="1108"/>
      <point x="976" y="1108" type="qcurve"/>
      <point x="909" y="1108"/>
      <point x="798" y="1049"/>
      <point x="725" y="940"/>
    </contour>
  </outline>
</glyph>
<glyph name="o" format="2">
  <advance width="1760"/>
  <unicode hex="006F"/>
  <outline>
    <contour>
      <point x="748" y="-28" type="qcurve"/>
      <point x="498" y="-28"/>
      <point x="175" y="171"/>
      <point x="45" y="528"/>
      <point x="84" y="764" type="qcurve"/>
      <point x="123" y="1000"/>
      <point x="371" y="1357"/>
      <point x="761" y="1556"/>
      <point x="1012" y="1556" type="qcurve"/>
      <point x="1261" y="1556"/>
      <point x="1584" y="1357"/>
      <point x="1715" y="1000"/>
      <point x="1676" y="764" type="qcurve"/>
      <point x="1637" y="528"/>
      <point x="1387" y="171"/>
      <point x="998" y="-28"/>
    </contour>
    <contour>
      <point x="816" y="380" type="qcurve"/>
      <point x="888" y="380"/>
      <point x="1007" y="474"/>
      <point x="1092" y="648"/>
      <point x="1112" y="768" type="qcurve"/>
      <point x="1132" y="889"/>
      <point x="1104" y="1062"/>
      <point x="1016" y="1156"/>
      <point x="944" y="1156" type="qcurve"/>
      <point x="872" y="1156"/>
      <point x="752" y="1062"/>
      <point x="668" y="889"/>
      <point x="648" y="768" type="qcurve"/>
      <point x="628" y="648"/>
      <point x="655" y="474"/>
      <point x="744" y="380"/>
    </contour>
  </outline>
</glyph>
<glyph name="p" format="2">
  <advance width="1830"/>
  <unicode hex="0070"/>
  <outline>
    <contour>
      <point x="-80" y="-576" type="line"/>
      <point x="274" y="1536" type="line"/>
      <point x="822" y="1536" type="line"/>
      <point x="778" y="1268" type="line"/>
      <point x="790" y="1268" type="line"/>
      <point x="832" y="1346"/>
      <point x="969" y="1477"/>
      <point x="1156" y="1556"/>
      <point x="1270" y="1556" type="qcurve"/>
      <point x="1422" y="1556"/>
      <point x="1668" y="1394"/>
      <point x="1784" y="1046"/>
      <point x="1738" y="768" type="qcurve"/>
      <point x="1694" y="502"/>
      <point x="1469" y="152"/>
      <point x="1166" y="-20"/>
      <point x="1002" y="-20" type="qcurve"/>
      <point x="894" y="-20"/>
      <point x="736" y="51"/>
      <point x="640" y="174"/>
      <point x="622" y="252" type="qcurve"/>
      <point x="610" y="252" type="line"/>
      <point x="474" y="-576" type="line"/>
    </contour>
    <contour>
      <point x="686" y="768" type="qcurve"/>
      <point x="668" y="656"/>
      <point x="699" y="493"/>
      <point x="794" y="404"/>
      <point x="870" y="404" type="qcurve"/>
      <point x="946" y="404"/>
      <point x="1066" y="491"/>
      <point x="1150" y="654"/>
      <point x="1170" y="768" type="qcurve"/>
      <point x="1188" y="882"/>
      <point x="1158" y="1045"/>
      <point x="1066" y="1132"/>
      <point x="990" y="1132" type="qcurve"/>
      <point x="914" y="1132"/>
      <point x="789" y="1045"/>
      <point x="704" y="882"/>
    </contour>
  </outline>
</glyph>
<glyph name="q" format="2">
  <advance width="1828"/>
  <unicode hex="0071"/>
  <outline>
    <contour>
      <point x="910" y="-576" type="line"/>
      <point x="1046" y="252" type="line"/>
      <point x="1038" y="252" type="line"/>
      <point x="994" y="174"/>
      <point x="855" y="51"/>
      <point x="674" y="-20"/>
      <point x="566" y="-20" type="qcurve"/>
      <point x="402" y="-20"/>
      <point x="156" y="152"/>
      <point x="48" y="502"/>
      <point x="92" y="768" type="qcurve"/>
      <point x="138" y="1046"/>
      <point x="369" y="1394"/>
      <point x="670" y="1556"/>
      <point x="822" y="1556" type="qcurve"/>
      <point x="936" y="1556"/>
      <point x="1095" y="1477"/>
      <point x="1190" y="1346"/>
      <point x="1206" y="1268" type="qcurve"/>
      <point x="1218" y="1268" type="line"/>
      <point x="1264" y="1536" type="line"/>
      <point x="1812" y="1536" type="line"/>
      <point x="1462" y="-576" type="line"/>
    </contour>
    <contour>
      <point x="840" y="404" type="qcurve"/>
      <point x="916" y="404"/>
      <point x="1040" y="493"/>
      <point x="1126" y="656"/>
      <point x="1144" y="768" type="qcurve"/>
      <point x="1163" y="882"/>
      <point x="1131" y="1045"/>
      <point x="1036" y="1132"/>
      <point x="960" y="1132" type="qcurve"/>
      <point x="884" y="1132"/>
      <point x="763" y="1045"/>
      <point x="679" y="882"/>
      <point x="660" y="768" type="qcurve"/>
      <point x="641" y="654"/>
      <point x="671" y="491"/>
      <point x="764" y="404"/>
    </contour>
  </outline>
</glyph>
<glyph name="s" format="2">
  <advance width="1656"/>
  <unicode hex="0073"/>
  <outline>
    <contour>
      <point x="1581" y="1036" type="line"/>
      <point x="1607" y="1361"/>
      <point x="1361" y="1556"/>
      <point x="917" y="1556" type="curve"/>
      <point x="478" y="1556"/>
      <point x="185" y="1376"/>
      <point x="148" y="1056" type="curve"/>
      <point x="116" y="814"/>
      <point x="253" y="659"/>
      <point x="560" y="604" type="curve"/>
      <point x="826" y="556" type="line"/>
      <point x="943" y="534"/>
      <point x="993" y="502"/>
      <point x="988" y="444" type="curve"/>
      <point x="978" y="380"/>
      <point x="900" y="344"/>
      <point x="799" y="344" type="curve"/>
      <point x="674" y="344"/>
      <point x="593" y="398"/>
      <point x="590" y="496" type="curve"/>
      <point x="42" y="496" type="line"/>
      <point x="33" y="181"/>
      <point x="279" y="-28"/>
      <point x="749" y="-28" type="curve"/>
      <point x="1174" y="-28"/>
      <point x="1513" y="179"/>
      <point x="1556" y="508" type="curve"/>
      <point x="1582" y="735"/>
      <point x="1446" y="867"/>
      <point x="1139" y="924" type="curve"/>
      <point x="834" y="980" type="line"/>
      <point x="720" y="1001"/>
      <point x="692" y="1043"/>
      <point x="699" y="1088" type="curve"/>
      <point x="705" y="1152"/>
      <point x="789" y="1188"/>
      <point x="884" y="1188" type="curve"/>
      <point x="993" y="1188"/>
      <point x="1077" y="1130"/>
      <point x="1073" y="1036" type="curve"/>
    </contour>
  </outline>
</glyph>
<glyph name="t" format="2">
  <advance width="1140"/>
  <unicode hex="0074"/>
  <outline>
    <contour>
      <point x="1184" y="1536" type="line"/>
      <point x="1116" y="1136" type="line"/>
      <point x="104" y="1136" type="line"/>
      <point x="172" y="1536" type="line"/>
    </contour>
    <contour>
      <point x="428" y="1904" type="line"/>
      <point x="980" y="1904" type="line"/>
      <point x="746" y="494" type="line"/>
      <point x="741" y="462"/>
      <point x="755" y="419"/>
      <point x="798" y="398"/>
      <point x="834" y="398" type="qcurve"/>
      <point x="858" y="398"/>
      <point x="928" y="411"/>
      <point x="946" y="414" type="qcurve"/>
      <point x="962" y="26" type="line"/>
      <point x="920" y="14"/>
      <point x="779" y="-17"/>
      <point x="686" y="-22" type="qcurve"/>
      <point x="492" y="-31"/>
      <point x="249" y="69"/>
      <point x="156" y="282"/>
      <point x="186" y="442" type="qcurve"/>
    </contour>
  </outline>
</glyph>
<glyph name="u" format="2">
  <advance width="1828"/>
  <unicode hex="0075"/>
  <outline>
    <contour>
      <point x="1120" y="672" type="qcurve"/>
      <point x="1264" y="1536" type="line"/>
      <point x="1816" y="1536" type="line"/>
      <point x="1560" y="0" type="line"/>
      <point x="1036" y="0" type="line"/>
      <point x="1084" y="292" type="line"/>
      <point x="1068" y="292" type="line"/>
      <point x="997" y="145"/>
      <point x="716" y="-20"/>
      <point x="544" y="-20" type="qcurve"/>
      <point x="383" y="-20"/>
      <point x="167" y="128"/>
      <point x="77" y="388"/>
      <point x="104" y="556" type="qcurve"/>
      <point x="268" y="1536" type="line"/>
      <point x="820" y="1536" type="line"/>
      <point x="676" y="672" type="line"/>
      <point x="659" y="558"/>
      <point x="752" y="428"/>
      <point x="856" y="428" type="qcurve"/>
      <point x="925" y="428"/>
      <point x="1036" y="487"/>
      <point x="1109" y="596"/>
    </contour>
  </outline>
</glyph>
<glyph name="v" format="2">
  <advance width="1704"/>
  <unicode hex="0076"/>
  <outline>
    <contour>
      <point x="1816" y="1536" type="line"/>
      <point x="1044" y="0" type="line"/>
      <point x="404" y="0" type="line"/>
      <point x="144" y="1536" type="line"/>
      <point x="704" y="1536" type="line"/>
      <point x="784" y="520" type="line"/>
      <point x="800" y="520" type="line"/>
      <point x="1216" y="1536" type="line"/>
    </contour>
  </outline>
</glyph>
<glyph name="w" format="2">
  <advance width="2464"/>
  <unicode hex="0077"/>
  <outline>
    <contour>
      <point x="284" y="0" type="line"/>
      <point x="156" y="1536" type="line"/>
      <point x="708" y="1536" type="line"/>
      <point x="728" y="600" type="line"/>
      <point x="740" y="600" type="line"/>
      <point x="1092" y="1536" type="line"/>
      <point x="1628" y="1536" type="line"/>
      <point x="1676" y="608" type="line"/>
      <point x="1688" y="608" type="line"/>
      <point x="2012" y="1536" type="line"/>
      <point x="2564" y="1536" type="line"/>
      <point x="1924" y="0" type="line"/>
      <point x="1328" y="0" type="line"/>
      <point x="1248" y="824" type="line"/>
      <point x="1232" y="824" type="line"/>
      <point x="880" y="0" type="line"/>
    </contour>
  </outline>
</glyph>
<glyph name="x" format="2">
  <advance width="1680"/>
  <unicode hex="0078"/>
  <outline>
    <contour>
      <point x="744" y="1536" type="line"/>
      <point x="888" y="1060" type="line"/>
      <point x="1204" y="1536" type="line"/>
      <point x="1752" y="1536" type="line"/>
      <point x="1212" y="768" type="line"/>
      <point x="1516" y="0" type="line"/>
      <point x="972" y="0" type="line"/>
      <point x="792" y="488" type="line"/>
      <point x="460" y="0" type="line"/>
      <point x="-92" y="0" type="line"/>
      <point x="472" y="768" type="line"/>
      <point x="192" y="1536" type="line"/>
    </contour>
  </outline>
</glyph>
<glyph name="y" format="2">
  <advance width="1704"/>
  <unicode hex="0079"/>
  <outline>
    <contour>
      <point x="254" y="-576" type="qcurve"/>
      <point x="158" y="-576"/>
      <point x="-8" y="-547"/>
      <point x="-70" y="-522" type="qcurve"/>
      <point x="116" y="-130" type="line"/>
      <point x="180" y="-154"/>
      <point x="289" y="-168"/>
      <point x="373" y="-138"/>
      <point x="400" y="-96" type="qcurve"/>
      <point x="418" y="-68" type="line"/>
      <point x="144" y="1536" type="line"/>
      <point x="700" y="1536" type="line"/>
      <point x="770" y="472" type="line"/>
      <point x="786" y="472" type="line"/>
      <point x="1216" y="1536" type="line"/>
      <point x="1816" y="1536" type="line"/>
      <point x="980" y="-128" type="line"/>
      <point x="916" y="-255"/>
      <point x="725" y="-458"/>
      <point x="447" y="-576"/>
    </contour>
  </outline>
</glyph>
<glyph name="z" format="2">
  <advance width="1676"/>
  <unicode hex="007A"/>
  <outline>
    <contour>
      <point x="32" y="0" type="line"/>
      <point x="80" y="304" type="line"/>
      <point x="884" y="1108" type="line"/>
      <point x="888" y="1116" type="line"/>
      <point x="240" y="1116" type="line"/>
      <point x="312" y="1536" type="line"/>
      <point x="1612" y="1536" type="line"/>
      <point x="1560" y="1200" type="line"/>
      <point x="820" y="428" type="line"/>
      <point x="816" y="420" type="line"/>
      <point x="1452" y="420" type="line"/>
      <point x="1384" y="0" type="line"/>
    </contour>
  </outline>
</glyph>
<glyph name="braceleft" format="2">
  <advance width="1240"/>
  <unicode hex="007B"/>
  <outline>
    <contour>
      <point x="72" y="780" type="qcurve"/>
      <point x="116" y="1032" type="line"/>
      <point x="290" y="1032"/>
      <point x="454" y="1169"/>
      <point x="476" y="1316" type="qcurve"/>
      <point x="500" y="1472" type="line"/>
      <point x="533" y="1688"/>
      <point x="707" y="1925"/>
      <point x="955" y="2027"/>
      <point x="1250" y="2048"/>
      <point x="1404" y="2048" type="qcurve"/>
      <point x="1336" y="1648" type="line"/>
      <point x="1216" y="1648"/>
      <point x="1092" y="1594"/>
      <point x="1038" y="1484"/>
      <point x="1024" y="1400" type="qcurve"/>
      <point x="988" y="1180" type="line"/>
      <point x="976" y="1105"/>
      <point x="884" y="962"/>
      <point x="685" y="848"/>
      <point x="339" y="780"/>
    </contour>
    <contour>
      <point x="988" y="-464" type="line"/>
      <point x="834" y="-464"/>
      <point x="550" y="-443"/>
      <point x="339" y="-341"/>
      <point x="243" y="-104"/>
      <point x="276" y="112" type="qcurve"/>
      <point x="300" y="268" type="line"/>
      <point x="323" y="415"/>
      <point x="213" y="552"/>
      <point x="36" y="552" type="qcurve"/>
      <point x="76" y="804" type="line"/>
      <point x="343" y="804"/>
      <point x="666" y="736"/>
      <point x="828" y="622"/>
      <point x="872" y="479"/>
      <point x="860" y="404" type="qcurve"/>
      <point x="824" y="184" type="line"/>
      <point x="810" y="100"/>
      <point x="828" y="-10"/>
      <point x="936" y="-64"/>
      <point x="1056" y="-64" type="qcurve"/>
    </contour>
    <contour>
      <point x="32" y="552" type="line"/>
      <point x="112" y="1032" type="line"/>
      <point x="552" y="1032" type="line"/>
      <point x="472" y="552" type="line"/>
    </contour>
  </outline>
</glyph>
<glyph name="bar" format="2">
  <advance width="1140"/>
  <unicode hex="007C"/>
  <outline>
    <contour>
      <point x="1162" y="2708" type="line"/>
      <point x="604" y="-660" type="line"/>
      <point x="64" y="-660" type="line"/>
      <point x="622" y="2708" type="line"/>
    </contour>
  </outline>
</glyph>
<glyph name="braceright" format="2">
  <advance width="1240"/>
  <unicode hex="007D"/>
  <outline>
    <contour>
      <point x="1176" y="804" type="qcurve"/>
      <point x="1132" y="552" type="line"/>
      <point x="958" y="552"/>
      <point x="795" y="415"/>
      <point x="772" y="268" type="qcurve"/>
      <point x="748" y="112" type="line"/>
      <point x="715" y="-104"/>
      <point x="541" y="-341"/>
      <point x="293" y="-443"/>
      <point x="-1" y="-464"/>
      <point x="-156" y="-464" type="qcurve"/>
      <point x="-88" y="-64" type="line"/>
      <point x="32" y="-64"/>
      <point x="156" y="-10"/>
      <point x="210" y="100"/>
      <point x="224" y="184" type="qcurve"/>
      <point x="260" y="404" type="line"/>
      <point x="272" y="479"/>
      <point x="364" y="622"/>
      <point x="563" y="736"/>
      <point x="909" y="804"/>
    </contour>
    <contour>
      <point x="260" y="2048" type="line"/>
      <point x="415" y="2048"/>
      <point x="698" y="2027"/>
      <point x="909" y="1925"/>
      <point x="1005" y="1688"/>
      <point x="972" y="1472" type="qcurve"/>
      <point x="948" y="1316" type="line"/>
      <point x="926" y="1169"/>
      <point x="1035" y="1032"/>
      <point x="1212" y="1032" type="qcurve"/>
      <point x="1172" y="780" type="line"/>
      <point x="905" y="780"/>
      <point x="582" y="848"/>
      <point x="420" y="962"/>
      <point x="376" y="1105"/>
      <point x="388" y="1180" type="qcurve"/>
      <point x="424" y="1400" type="line"/>
      <point x="438" y="1484"/>
      <point x="420" y="1594"/>
      <point x="312" y="1648"/>
      <point x="192" y="1648" type="qcurve"/>
    </contour>
    <contour>
      <point x="1216" y="1032" type="line"/>
      <point x="1136" y="552" type="line"/>
      <point x="696" y="552" type="line"/>
      <point x="776" y="1032" type="line"/>
    </contour>
  </outline>
</glyph>
<glyph name="asciitilde" format="2">
  <advance width="1952"/>
  <unicode hex="007E"/>
  <outline>
    <contour>
      <point x="164" y="516" type="line"/>
      <point x="188" y="722"/>
      <point x="334" y="1024"/>
      <point x="570" y="1188"/>
      <point x="728" y="1188" type="qcurve"/>
      <point x="818" y="1188"/>
      <point x="976" y="1116"/>
      <point x="1072" y="1020" type="qcurve"/>
      <point x="1114" y="978"/>
      <point x="1177" y="924"/>
      <point x="1228" y="924" type="qcurve"/>
      <point x="1291" y="924"/>
      <point x="1394" y="1028"/>
      <point x="1412" y="1148" type="qcurve"/>
      <point x="1812" y="1148" type="line"/>
      <point x="1786" y="944"/>
      <point x="1633" y="642"/>
      <point x="1396" y="476"/>
      <point x="1244" y="476" type="qcurve"/>
      <point x="1145" y="476"/>
      <point x="985" y="556"/>
      <point x="896" y="644" type="qcurve"/>
      <point x="848" y="692"/>
      <point x="795" y="740"/>
      <point x="744" y="740" type="qcurve"/>
      <point x="681" y="740"/>
      <point x="579" y="636"/>
      <point x="564" y="516" type="qcurve"/>
    </contour>
  </outline>
</glyph>
<glyph name="exclamdown" format="2">
  <advance width="1000"/>
  <unicode hex="00A1"/>
  <outline>
    <contour>
      <point x="612" y="1564" type="qcurve"/>
      <point x="729" y="1564"/>
      <point x="876" y="1401"/>
      <point x="864" y="1284" type="qcurve"/>
      <point x="852" y="1170"/>
      <point x="669" y="1008"/>
      <point x="552" y="1008" type="qcurve"/>
      <point x="441" y="1008"/>
      <point x="292" y="1170"/>
      <point x="304" y="1284" type="qcurve"/>
      <point x="312" y="1362"/>
      <point x="405" y="1489"/>
      <point x="540" y="1564"/>
    </contour>
    <contour>
      <point x="12" y="-516" type="line"/>
      <point x="296" y="892" type="line"/>
      <point x="748" y="892" type="line"/>
      <point x="568" y="-516" type="line"/>
    </contour>
  </outline>
</glyph>
<glyph name="cent" format="2">
  <advance width="1708"/>
  <unicode hex="00A2"/>
  <outline>
    <contour>
      <point x="620" y="0" type="line"/>
      <point x="980" y="2048" type="line"/>
      <point x="1144" y="2048" type="line"/>
      <point x="784" y="0" type="line"/>
    </contour>
    <contour>
      <point x="748" y="232" type="qcurve"/>
      <point x="498" y="232"/>
      <point x="174" y="431"/>
      <point x="44" y="788"/>
      <point x="84" y="1024" type="qcurve"/>
      <point x="122" y="1260"/>
      <point x="371" y="1617"/>
      <point x="762" y="1816"/>
      <point x="1012" y="1816" type="qcurve"/>
      <point x="1351" y="1816"/>
      <point x="1688" y="1456"/>
      <point x="1640" y="1156" type="qcurve"/>
      <point x="1128" y="1156" type="line"/>
      <point x="1137" y="1276"/>
      <point x="1042" y="1404"/>
      <point x="952" y="1404" type="qcurve"/>
      <point x="878" y="1404"/>
      <point x="755" y="1321"/>
      <point x="668" y="1154"/>
      <point x="648" y="1028" type="qcurve"/>
      <point x="628" y="902"/>
      <point x="659" y="735"/>
      <point x="752" y="652"/>
      <point x="824" y="652" type="qcurve"/>
      <point x="886" y="652"/>
      <point x="991" y="709"/>
      <point x="1068" y="820"/>
      <point x="1088" y="900" type="qcurve"/>
      <point x="1600" y="900" type="line"/>
      <point x="1562" y="696"/>
      <point x="1332" y="396"/>
      <point x="976" y="232"/>
    </contour>
  </outline>
</glyph>
<glyph name="sterling" format="2">
  <advance width="1968"/>
  <unicode hex="00A3"/>
  <outline>
    <contour>
      <point x="1656" y="0" type="line"/>
      <point x="80" y="0" type="line"/>
      <point x="156" y="448" type="line"/>
      <point x="1732" y="448" type="line"/>
    </contour>
    <contour>
      <point x="1420" y="828" type="line"/>
      <point x="212" y="828" type="line"/>
      <point x="284" y="1244" type="line"/>
      <point x="1492" y="1244" type="line"/>
    </contour>
    <contour>
      <point x="1092" y="1496" type="qcurve"/>
      <point x="984" y="656" type="line"/>
      <point x="965" y="512"/>
      <point x="780" y="349"/>
      <point x="580" y="280" type="qcurve"/>
      <point x="320" y="448" type="line"/>
      <point x="355" y="464"/>
      <point x="395" y="505"/>
      <point x="417" y="568"/>
      <point x="424" y="616" type="qcurve"/>
      <point x="536" y="1496" type="line"/>
      <point x="559" y="1676"/>
      <point x="763" y="1936"/>
      <point x="1089" y="2076"/>
      <point x="1296" y="2076" type="qcurve"/>
      <point x="1517" y="2076"/>
      <point x="1796" y="1941"/>
      <point x="1915" y="1682"/>
      <point x="1896" y="1472" type="qcurve"/>
      <point x="1372" y="1472" type="line"/>
      <point x="1379" y="1544"/>
      <point x="1345" y="1618"/>
      <point x="1275" y="1644"/>
      <point x="1228" y="1644" type="qcurve"/>
      <point x="1187" y="1644"/>
      <point x="1132" y="1610"/>
      <point x="1099" y="1544"/>
    </contour>
  </outline>
</glyph>
<glyph name="currency" format="2">
  <advance width="2232"/>
  <unicode hex="00A4"/>
  <outline>
    <contour>
      <point x="988" y="-28" type="qcurve"/>
      <point x="810" y="-28"/>
      <point x="520" y="103"/>
      <point x="323" y="339"/>
      <point x="241" y="653"/>
      <point x="272" y="836" type="qcurve"/>
      <point x="301" y="1019"/>
      <point x="486" y="1332"/>
      <point x="761" y="1566"/>
      <point x="1094" y="1696"/>
      <point x="1272" y="1696" type="qcurve"/>
      <point x="1447" y="1696"/>
      <point x="1735" y="1566"/>
      <point x="1933" y="1332"/>
      <point x="2017" y="1019"/>
      <point x="1988" y="836" type="qcurve"/>
      <point x="1957" y="653"/>
      <point x="1770" y="339"/>
      <point x="1494" y="103"/>
      <point x="1163" y="-28"/>
    </contour>
    <contour>
      <point x="1036" y="260" type="qcurve"/>
      <point x="1155" y="260"/>
      <point x="1379" y="347"/>
      <point x="1564" y="503"/>
      <point x="1690" y="713"/>
      <point x="1712" y="836" type="qcurve"/>
      <point x="1739" y="1002"/>
      <point x="1625" y="1262"/>
      <point x="1387" y="1412"/>
      <point x="1228" y="1412" type="qcurve"/>
      <point x="1063" y="1412"/>
      <point x="775" y="1262"/>
      <point x="579" y="1002"/>
      <point x="552" y="836" type="qcurve"/>
      <point x="523" y="672"/>
      <point x="632" y="411"/>
      <point x="871" y="260"/>
    </contour>
    <contour>
      <point x="1828" y="1248" type="line"/>
      <point x="1652" y="1464" type="line"/>
      <point x="1988" y="1748" type="line"/>
      <point x="2168" y="1532" type="line"/>
    </contour>
    <contour>
      <point x="1688" y="-44" type="line"/>
      <point x="1448" y="240" type="line"/>
      <point x="1696" y="452" type="line"/>
      <point x="1940" y="172" type="line"/>
    </contour>
    <contour>
      <point x="280" y="-44" type="line"/>
      <point x="104" y="172" type="line"/>
      <point x="440" y="452" type="line"/>
      <point x="620" y="240" type="line"/>
    </contour>
    <contour>
      <point x="572" y="1248" type="line"/>
      <point x="332" y="1532" type="line"/>
      <point x="580" y="1748" type="line"/>
      <point x="824" y="1464" type="line"/>
    </contour>
  </outline>
</glyph>
<glyph name="yen" format="2">
  <advance width="1656"/>
  <unicode hex="00A5"/>
  <outline>
    <contour>
      <point x="808" y="2048" type="line"/>
      <point x="1004" y="1088" type="line"/>
      <point x="592" y="772" type="line"/>
      <point x="252" y="2048" type="line"/>
    </contour>
    <contour>
      <point x="768" y="1104" type="line"/>
      <point x="1272" y="2048" type="line"/>
      <point x="1828" y="2048" type="line"/>
      <point x="1060" y="772" type="line"/>
    </contour>
    <contour>
      <point x="1144" y="1080" type="line"/>
      <point x="964" y="0" type="line"/>
      <point x="416" y="0" type="line"/>
      <point x="596" y="1080" type="line"/>
    </contour>
    <contour>
      <point x="1520" y="1080" type="line"/>
      <point x="1472" y="788" type="line"/>
      <point x="120" y="788" type="line"/>
      <point x="168" y="1080" type="line"/>
    </contour>
    <contour>
      <point x="1456" y="684" type="line"/>
      <point x="1404" y="392" type="line"/>
      <point x="52" y="392" type="line"/>
      <point x="104" y="684" type="line"/>
    </contour>
  </outline>
</glyph>
<glyph name="brokenbar" format="2">
  <advance width="1120"/>
  <unicode hex="00A6"/>
  <outline>
    <contour>
      <point x="284" y="584" type="line"/>
      <point x="772" y="584" type="line"/>
      <point x="612" y="-384" type="line"/>
      <point x="124" y="-384" type="line"/>
    </contour>
    <contour>
      <point x="1016" y="2048" type="line"/>
      <point x="856" y="1084" type="line"/>
      <point x="368" y="1084" type="line"/>
      <point x="528" y="2048" type="line"/>
    </contour>
  </outline>
</glyph>
<glyph name="section" format="2">
  <advance width="1748"/>
  <unicode hex="00A7"/>
  <outline>
    <contour>
      <point x="1616" y="1524" type="qcurve"/>
      <point x="1144" y="1524" type="line"/>
      <point x="1152" y="1566"/>
      <point x="1072" y="1624"/>
      <point x="992" y="1624" type="qcurve"/>
      <point x="964" y="1624"/>
      <point x="889" y="1616"/>
      <point x="830" y="1578"/>
      <point x="824" y="1532" type="qcurve"/>
      <point x="811" y="1472"/>
      <point x="919" y="1396"/>
      <point x="968" y="1384" type="qcurve"/>
      <point x="1328" y="1240" type="line"/>
      <point x="1365" y="1225"/>
      <point x="1477" y="1162"/>
      <point x="1576" y="1052"/>
      <point x="1616" y="884"/>
      <point x="1580" y="764" type="qcurve"/>
      <point x="1552" y="674"/>
      <point x="1442" y="582"/>
      <point x="1336" y="546"/>
      <point x="1312" y="540" type="qcurve"/>
      <point x="1300" y="536" type="line"/>
      <point x="1380" y="455"/>
      <point x="1448" y="258"/>
      <point x="1428" y="132" type="qcurve"/>
      <point x="1400" y="-32"/>
      <point x="1194" y="-277"/>
      <point x="880" y="-412"/>
      <point x="688" y="-412" type="qcurve"/>
      <point x="486" y="-412"/>
      <point x="206" y="-269"/>
      <point x="80" y="-12"/>
      <point x="108" y="160" type="qcurve"/>
      <point x="580" y="160" type="line"/>
      <point x="570" y="100"/>
      <point x="666" y="35"/>
      <point x="772" y="44" type="qcurve"/>
      <point x="825" y="47"/>
      <point x="938" y="84"/>
      <point x="948" y="132" type="qcurve"/>
      <point x="954" y="168"/>
      <point x="905" y="226"/>
      <point x="836" y="268"/>
      <point x="808" y="280" type="qcurve"/>
      <point x="452" y="420" type="line"/>
      <point x="411" y="435"/>
      <point x="296" y="498"/>
      <point x="197" y="609"/>
      <point x="157" y="779"/>
      <point x="192" y="900" type="qcurve"/>
      <point x="220" y="992"/>
      <point x="326" y="1082"/>
      <point x="436" y="1116"/>
      <point x="468" y="1124" type="qcurve"/>
      <point x="468" y="1124" type="line"/>
      <point x="395" y="1205"/>
      <point x="326" y="1403"/>
      <point x="348" y="1532" type="qcurve"/>
      <point x="374" y="1688"/>
      <point x="574" y="1934"/>
      <point x="882" y="2076"/>
      <point x="1068" y="2076" type="qcurve"/>
      <point x="1258" y="2076"/>
      <point x="1521" y="1932"/>
      <point x="1642" y="1682"/>
    </contour>
    <contour>
      <point x="1136" y="728" type="qcurve"/>
      <point x="1153" y="755"/>
      <point x="1105" y="823"/>
      <point x="1016" y="856" type="qcurve"/>
      <point x="736" y="956" type="line"/>
      <point x="708" y="966"/>
      <point x="668" y="966"/>
      <point x="642" y="950"/>
      <point x="632" y="936" type="qcurve"/>
      <point x="616" y="912"/>
      <point x="668" y="838"/>
      <point x="756" y="808" type="qcurve"/>
      <point x="1044" y="704" type="line"/>
      <point x="1068" y="696"/>
      <point x="1101" y="696"/>
      <point x="1126" y="712"/>
    </contour>
  </outline>
</glyph>
<glyph name="dieresis" format="2">
  <advance width="1400"/>
  <unicode hex="00A8"/>
  <outline>
    <contour>
      <point x="572" y="1716" type="qcurve"/>
      <point x="458" y="1716"/>
      <point x="322" y="1872"/>
      <point x="340" y="1980" type="qcurve"/>
      <point x="355" y="2064"/>
      <point x="498" y="2180"/>
      <point x="588" y="2180" type="qcurve"/>
      <point x="699" y="2180"/>
      <point x="830" y="2024"/>
      <point x="812" y="1916" type="qcurve"/>
      <point x="800" y="1832"/>
      <point x="659" y="1716"/>
    </contour>
    <contour>
      <point x="1208" y="1716" type="qcurve"/>
      <point x="1094" y="1716"/>
      <point x="958" y="1872"/>
      <point x="976" y="1980" type="qcurve"/>
      <point x="991" y="2064"/>
      <point x="1134" y="2180"/>
      <point x="1224" y="2180" type="qcurve"/>
      <point x="1335" y="2180"/>
      <point x="1466" y="2024"/>
      <point x="1448" y="1916" type="qcurve"/>
      <point x="1436" y="1832"/>
      <point x="1295" y="1716"/>
    </contour>
  </outline>
</glyph>
<glyph name="copyright" format="2">
  <advance width="2576"/>
  <unicode hex="00A9"/>
  <outline>
    <contour>
      <point x="792" y="1024" type="qcurve"/>
      <point x="817" y="1174"/>
      <point x="1005" y="1421"/>
      <point x="1276" y="1568"/>
      <point x="1426" y="1568" type="qcurve"/>
      <point x="1559" y="1568"/>
      <point x="1765" y="1450"/>
      <point x="1876" y="1247"/>
      <point x="1868" y="1120" type="qcurve"/>
      <point x="1534" y="1120" type="line"/>
      <point x="1531" y="1179"/>
      <point x="1448" y="1248"/>
      <point x="1374" y="1248" type="qcurve"/>
      <point x="1310" y="1248"/>
      <point x="1199" y="1194"/>
      <point x="1124" y="1094"/>
      <point x="1112" y="1026" type="qcurve"/>
      <point x="1101" y="962"/>
      <point x="1135" y="860"/>
      <point x="1220" y="800"/>
      <point x="1286" y="800" type="qcurve"/>
      <point x="1359" y="800"/>
      <point x="1480" y="870"/>
      <point x="1502" y="928" type="qcurve"/>
      <point x="1836" y="928" type="line"/>
      <point x="1802" y="801"/>
      <point x="1623" y="598"/>
      <point x="1379" y="480"/>
      <point x="1246" y="480" type="qcurve"/>
      <point x="1096" y="480"/>
      <point x="873" y="627"/>
      <point x="767" y="874"/>
    </contour>
    <contour>
      <point x="1156" y="-32" type="qcurve"/>
      <point x="938" y="-32"/>
      <point x="582" y="132"/>
      <point x="338" y="423"/>
      <point x="237" y="806"/>
      <point x="274" y="1024" type="qcurve"/>
      <point x="311" y="1243"/>
      <point x="539" y="1626"/>
      <point x="878" y="1916"/>
      <point x="1288" y="2080"/>
      <point x="1506" y="2080" type="qcurve"/>
      <point x="1725" y="2080"/>
      <point x="2080" y="1916"/>
      <point x="2321" y="1626"/>
      <point x="2421" y="1243"/>
      <point x="2386" y="1024" type="qcurve"/>
      <point x="2351" y="806"/>
      <point x="2124" y="423"/>
      <point x="1785" y="132"/>
      <point x="1375" y="-32"/>
    </contour>
    <contour>
      <point x="1156" y="368" type="qcurve"/>
      <point x="1301" y="368"/>
      <point x="1579" y="482"/>
      <point x="1811" y="682"/>
      <point x="1967" y="942"/>
      <point x="1991" y="1088" type="qcurve"/>
      <point x="2012" y="1217"/>
      <point x="1960" y="1433"/>
      <point x="1829" y="1592"/>
      <point x="1632" y="1680"/>
      <point x="1506" y="1680" type="qcurve"/>
      <point x="1361" y="1680"/>
      <point x="1083" y="1566"/>
      <point x="850" y="1365"/>
      <point x="693" y="1105"/>
      <point x="668" y="958" type="qcurve"/>
      <point x="647" y="831"/>
      <point x="699" y="616"/>
      <point x="831" y="456"/>
      <point x="1030" y="368"/>
    </contour>
  </outline>
</glyph>
<glyph name="ordfeminine" format="2">
  <advance width="1444"/>
  <unicode hex="00AA"/>
  <outline>
    <contour>
      <point x="964" y="1184" type="qcurve"/>
      <point x="1044" y="1652" type="line"/>
      <point x="1056" y="1733"/>
      <point x="991" y="1828"/>
      <point x="904" y="1828" type="qcurve"/>
      <point x="811" y="1828"/>
      <point x="696" y="1758"/>
      <point x="684" y="1692" type="qcurve"/>
      <point x="436" y="1708" type="line"/>
      <point x="460" y="1849"/>
      <point x="735" y="2032"/>
      <point x="936" y="2032" type="qcurve"/>
      <point x="1125" y="2032"/>
      <point x="1326" y="1841"/>
      <point x="1296" y="1652" type="qcurve"/>
      <point x="1224" y="1220" type="line"/>
      <point x="1215" y="1166"/>
      <point x="1205" y="1037"/>
      <point x="1220" y="968" type="qcurve"/>
      <point x="964" y="968" type="line"/>
      <point x="958" y="1013"/>
      <point x="955" y="1124"/>
    </contour>
    <contour>
      <point x="1096" y="1580" type="line"/>
      <point x="1068" y="1420" type="line"/>
      <point x="860" y="1420" type="line"/>
      <point x="737" y="1420"/>
      <point x="605" y="1328"/>
      <point x="596" y="1268" type="qcurve"/>
      <point x="587" y="1214"/>
      <point x="657" y="1148"/>
      <point x="744" y="1148" type="qcurve"/>
      <point x="802" y="1148"/>
      <point x="931" y="1200"/>
      <point x="1024" y="1274"/>
      <point x="1028" y="1308" type="qcurve"/>
      <point x="1028" y="1144" type="line"/>
      <point x="983" y="1075"/>
      <point x="795" y="952"/>
      <point x="648" y="952" type="qcurve"/>
      <point x="477" y="952"/>
      <point x="320" y="1123"/>
      <point x="344" y="1264" type="qcurve"/>
      <point x="368" y="1417"/>
      <point x="639" y="1580"/>
      <point x="888" y="1580" type="qcurve"/>
    </contour>
  </outline>
</glyph>
<glyph name="logicalnot" format="2">
  <advance width="1708"/>
  <unicode hex="00AC"/>
  <outline>
    <contour>
      <point x="1516" y="1108" type="line"/>
      <point x="1476" y="872" type="line"/>
      <point x="272" y="872" type="line"/>
      <point x="312" y="1108" type="line"/>
    </contour>
    <contour>
      <point x="1500" y="1000" type="line"/>
      <point x="1420" y="516" type="line"/>
      <point x="1132" y="516" type="line"/>
      <point x="1212" y="1000" type="line"/>
    </contour>
  </outline>
</glyph>
<glyph name="registered" format="2">
  <advance width="1856"/>
  <unicode hex="00AE"/>
  <outline>
    <contour>
      <point x="660" y="916" type="line"/>
      <point x="782" y="1654" type="line"/>
      <point x="1134" y="1654" type="line"/>
      <point x="1221" y="1654"/>
      <point x="1335" y="1592"/>
      <point x="1383" y="1480"/>
      <point x="1370" y="1404" type="qcurve"/>
      <point x="1357" y="1327"/>
      <point x="1272" y="1219"/>
      <point x="1136" y="1162"/>
      <point x="1048" y="1162" type="qcurve"/>
      <point x="816" y="1162" type="line"/>
      <point x="840" y="1314" type="line"/>
      <point x="1038" y="1314" type="line"/>
      <point x="1086" y="1314"/>
      <point x="1145" y="1361"/>
      <point x="1152" y="1404" type="qcurve"/>
      <point x="1160" y="1451"/>
      <point x="1116" y="1498"/>
      <point x="1068" y="1498" type="qcurve"/>
      <point x="968" y="1498" type="line"/>
      <point x="872" y="916" type="line"/>
    </contour>
    <contour>
      <point x="1204" y="1252" type="line"/>
      <point x="1306" y="916" type="line"/>
      <point x="1074" y="916" type="line"/>
      <point x="988" y="1252" type="line"/>
    </contour>
    <contour>
      <point x="1012" y="476" type="qcurve"/>
      <point x="846" y="476"/>
      <point x="556" y="600"/>
      <point x="336" y="820"/>
      <point x="212" y="1110"/>
      <point x="212" y="1276" type="qcurve"/>
      <point x="212" y="1442"/>
      <point x="336" y="1732"/>
      <point x="556" y="1952"/>
      <point x="846" y="2076"/>
      <point x="1012" y="2076" type="qcurve"/>
      <point x="1178" y="2076"/>
      <point x="1468" y="1952"/>
      <point x="1688" y="1732"/>
      <point x="1812" y="1442"/>
      <point x="1812" y="1276" type="qcurve"/>
      <point x="1812" y="1110"/>
      <point x="1688" y="820"/>
      <point x="1469" y="600"/>
      <point x="1179" y="476"/>
    </contour>
    <contour>
      <point x="1012" y="700" type="qcurve"/>
      <point x="1172" y="700"/>
      <point x="1433" y="856"/>
      <point x="1588" y="1117"/>
      <point x="1588" y="1276" type="qcurve"/>
      <point x="1588" y="1435"/>
      <point x="1433" y="1697"/>
      <point x="1171" y="1852"/>
      <point x="1012" y="1852" type="qcurve"/>
      <point x="853" y="1852"/>
      <point x="592" y="1697"/>
      <point x="436" y="1435"/>
      <point x="436" y="1276" type="qcurve"/>
      <point x="436" y="1117"/>
      <point x="592" y="856"/>
      <point x="853" y="700"/>
    </contour>
  </outline>
</glyph>
<glyph name="macron" format="2">
  <advance width="1812"/>
  <unicode hex="00AF"/>
  <outline>
    <contour>
      <point x="1616" y="2048" type="line"/>
      <point x="1576" y="1796" type="line"/>
      <point x="572" y="1796" type="line"/>
      <point x="612" y="2048" type="line"/>
    </contour>
  </outline>
</glyph>
<glyph name="degree" format="2">
  <advance width="1304"/>
  <unicode hex="00B0"/>
  <outline>
    <contour>
      <point x="780" y="1036" type="qcurve"/>
      <point x="639" y="1036"/>
      <point x="406" y="1174"/>
      <point x="268" y="1407"/>
      <point x="268" y="1548" type="qcurve"/>
      <point x="268" y="1690"/>
      <point x="406" y="1922"/>
      <point x="639" y="2060"/>
      <point x="780" y="2060" type="qcurve"/>
      <point x="922" y="2060"/>
      <point x="1154" y="1922"/>
      <point x="1292" y="1690"/>
      <point x="1292" y="1548" type="qcurve"/>
      <point x="1292" y="1407"/>
      <point x="1154" y="1174"/>
      <point x="922" y="1036"/>
    </contour>
    <contour>
      <point x="780" y="1376" type="qcurve"/>
      <point x="828" y="1376"/>
      <point x="906" y="1422"/>
      <point x="952" y="1501"/>
      <point x="952" y="1548" type="qcurve"/>
      <point x="952" y="1596"/>
      <point x="906" y="1674"/>
      <point x="828" y="1720"/>
      <point x="780" y="1720" type="qcurve"/>
      <point x="733" y="1720"/>
      <point x="654" y="1674"/>
      <point x="608" y="1596"/>
      <point x="608" y="1548" type="qcurve"/>
      <point x="608" y="1501"/>
      <point x="654" y="1422"/>
      <point x="733" y="1376"/>
    </contour>
  </outline>
</glyph>
<glyph name="plusminus" format="2">
  <advance width="1952"/>
  <unicode hex="00B1"/>
  <outline>
    <contour>
      <point x="116" y="64" type="line"/>
      <point x="184" y="480" type="line"/>
      <point x="1672" y="480" type="line"/>
      <point x="1604" y="64" type="line"/>
    </contour>
    <contour>
      <point x="256" y="912" type="line"/>
      <point x="324" y="1312" type="line"/>
      <point x="1812" y="1312" type="line"/>
      <point x="1744" y="912" type="line"/>
    </contour>
    <contour>
      <point x="724" y="608" type="line"/>
      <point x="892" y="1616" type="line"/>
      <point x="1340" y="1616" type="line"/>
      <point x="1172" y="608" type="line"/>
    </contour>
  </outline>
</glyph>
<glyph name="twosuperior" format="2">
  <advance width="1196"/>
  <unicode hex="00B2"/>
  <outline>
    <contour>
      <point x="152" y="1024" type="line"/>
      <point x="192" y="1288" type="line"/>
      <point x="760" y="1660" type="line"/>
      <point x="810" y="1694"/>
      <point x="897" y="1752"/>
      <point x="956" y="1816"/>
      <point x="964" y="1860" type="qcurve"/>
      <point x="973" y="1920"/>
      <point x="883" y="1980"/>
      <point x="808" y="1980" type="qcurve"/>
      <point x="736" y="1980"/>
      <point x="623" y="1914"/>
      <point x="608" y="1836" type="qcurve"/>
      <point x="256" y="1836" type="line"/>
      <point x="286" y="2040"/>
      <point x="616" y="2268"/>
      <point x="844" y="2268" type="qcurve"/>
      <point x="1008" y="2268"/>
      <point x="1220" y="2155"/>
      <point x="1312" y="1968"/>
      <point x="1296" y="1856" type="qcurve"/>
      <point x="1284" y="1774"/>
      <point x="1199" y="1623"/>
      <point x="1020" y="1478"/>
      <point x="868" y="1404" type="qcurve"/>
      <point x="728" y="1336" type="line"/>
      <point x="724" y="1324" type="line"/>
      <point x="1212" y="1324" type="line"/>
      <point x="1164" y="1024" type="line"/>
    </contour>
  </outline>
</glyph>
<glyph name="threesuperior" format="2">
  <advance width="1264"/>
  <unicode hex="00B3"/>
  <outline>
    <contour>
      <point x="688" y="1008" type="qcurve"/>
      <point x="439" y="1008"/>
      <point x="156" y="1217"/>
      <point x="180" y="1388" type="qcurve"/>
      <point x="548" y="1388" type="line"/>
      <point x="545" y="1349"/>
      <point x="631" y="1312"/>
      <point x="700" y="1312" type="qcurve"/>
      <point x="787" y="1312"/>
      <point x="907" y="1373"/>
      <point x="916" y="1424" type="qcurve"/>
      <point x="925" y="1472"/>
      <point x="837" y="1512"/>
      <point x="744" y="1512" type="qcurve"/>
      <point x="568" y="1512" type="line"/>
      <point x="608" y="1784" type="line"/>
      <point x="768" y="1784" type="line"/>
      <point x="852" y="1784"/>
      <point x="960" y="1854"/>
      <point x="972" y="1908" type="qcurve"/>
      <point x="978" y="1938"/>
      <point x="928" y="1980"/>
      <point x="856" y="1980" type="qcurve"/>
      <point x="790" y="1980"/>
      <point x="653" y="1938"/>
      <point x="644" y="1896" type="qcurve"/>
      <point x="292" y="1896" type="line"/>
      <point x="312" y="2006"/>
      <point x="477" y="2174"/>
      <point x="724" y="2268"/>
      <point x="868" y="2268" type="qcurve"/>
      <point x="1026" y="2268"/>
      <point x="1241" y="2159"/>
      <point x="1340" y="1984"/>
      <point x="1324" y="1884" type="qcurve"/>
      <point x="1309" y="1782"/>
      <point x="1148" y="1676"/>
      <point x="1028" y="1664" type="qcurve"/>
      <point x="1028" y="1652" type="line"/>
      <point x="1163" y="1643"/>
      <point x="1310" y="1484"/>
      <point x="1292" y="1364" type="qcurve"/>
      <point x="1276" y="1260"/>
      <point x="1117" y="1099"/>
      <point x="856" y="1008"/>
    </contour>
  </outline>
</glyph>
<glyph name="acute" format="2">
  <advance width="1400"/>
  <unicode hex="00B4"/>
  <outline>
    <contour>
      <point x="674" y="1728" type="line"/>
      <point x="942" y="2176" type="line"/>
      <point x="1414" y="2176" type="line"/>
      <point x="1038" y="1728" type="line"/>
    </contour>
  </outline>
</glyph>
<glyph name="mu" format="2">
  <advance width="1960"/>
  <unicode hex="00B5"/>
  <outline>
    <contour>
      <point x="-76" y="-544" type="line"/>
      <point x="268" y="1536" type="line"/>
      <point x="820" y="1536" type="line"/>
      <point x="676" y="672" type="line"/>
      <point x="665" y="600"/>
      <point x="721" y="490"/>
      <point x="841" y="428"/>
      <point x="924" y="428" type="qcurve"/>
      <point x="1009" y="428"/>
      <point x="1149" y="490"/>
      <point x="1241" y="600"/>
      <point x="1252" y="672" type="qcurve"/>
      <point x="1396" y="1536" type="line"/>
      <point x="1948" y="1536" type="line"/>
      <point x="1692" y="0" type="line"/>
      <point x="1168" y="0" type="line"/>
      <point x="1204" y="212" type="line"/>
      <point x="1192" y="212" type="line"/>
      <point x="1142" y="128"/>
      <point x="965" y="28"/>
      <point x="856" y="28" type="qcurve"/>
      <point x="752" y="28"/>
      <point x="606" y="128"/>
      <point x="584" y="212" type="qcurve"/>
      <point x="572" y="212" type="line"/>
      <point x="448" y="-544" type="line"/>
    </contour>
  </outline>
</glyph>
<glyph name="paragraph" format="2">
  <advance width="1736"/>
  <unicode hex="00B6"/>
  <outline>
    <contour>
      <point x="1436" y="1648" type="line"/>
      <point x="1100" y="1648" type="line"/>
      <point x="956" y="760" type="line"/>
      <point x="836" y="760" type="line"/>
      <point x="606" y="760"/>
      <point x="317" y="927"/>
      <point x="202" y="1218"/>
      <point x="232" y="1404" type="qcurve"/>
      <point x="264" y="1588"/>
      <point x="475" y="1879"/>
      <point x="818" y="2048"/>
      <point x="1048" y="2048" type="qcurve"/>
      <point x="1504" y="2048" type="line"/>
    </contour>
    <contour>
      <point x="1076" y="0" type="line"/>
      <point x="1416" y="2048" type="line"/>
      <point x="1816" y="2048" type="line"/>
      <point x="1476" y="0" type="line"/>
    </contour>
  </outline>
</glyph>
<glyph name="cedilla" format="2">
  <advance width="1256"/>
  <unicode hex="00B8"/>
  <outline>
    <contour>
      <point x="408" y="8" type="line"/>
      <point x="604" y="8" type="line"/>
      <point x="572" y="-84" type="line"/>
      <point x="686" y="-102"/>
      <point x="798" y="-236"/>
      <point x="780" y="-332" type="qcurve"/>
      <point x="756" y="-494"/>
      <point x="406" y="-680"/>
      <point x="124" y="-680" type="qcurve"/>
      <point x="160" y="-468" type="line"/>
      <point x="307" y="-468"/>
      <point x="473" y="-404"/>
      <point x="488" y="-344" type="qcurve"/>
      <point x="500" y="-287"/>
      <point x="417" y="-215"/>
      <point x="324" y="-200" type="qcurve"/>
    </contour>
  </outline>
</glyph>
<glyph name="onesuperior" format="2">
  <advance width="918"/>
  <unicode hex="00B9"/>
  <outline>
    <contour>
      <point x="424" y="1024" type="line"/>
      <point x="574" y="1932" type="line"/>
      <point x="568" y="1932" type="line"/>
      <point x="260" y="1764" type="line"/>
      <point x="310" y="2060" type="line"/>
      <point x="656" y="2252" type="line"/>
      <point x="976" y="2252" type="line"/>
      <point x="772" y="1024" type="line"/>
    </contour>
  </outline>
</glyph>
<glyph name="ordmasculine" format="2">
  <advance width="1432"/>
  <unicode hex="00BA"/>
  <outline>
    <contour>
      <point x="328" y="1436" type="qcurve"/>
      <point x="344" y="1540" type="line"/>
      <point x="368" y="1684"/>
      <point x="527" y="1906"/>
      <point x="772" y="2032"/>
      <point x="924" y="2032" type="qcurve"/>
      <point x="1155" y="2032"/>
      <point x="1380" y="1756"/>
      <point x="1344" y="1540" type="qcurve"/>
      <point x="1328" y="1436" type="line"/>
      <point x="1304" y="1294"/>
      <point x="1146" y="1074"/>
      <point x="902" y="948"/>
      <point x="748" y="948" type="qcurve"/>
      <point x="514" y="948"/>
      <point x="292" y="1223"/>
    </contour>
    <contour>
      <point x="596" y="1540" type="qcurve"/>
      <point x="580" y="1436" type="line"/>
      <point x="559" y="1313"/>
      <point x="658" y="1152"/>
      <point x="784" y="1152" type="qcurve"/>
      <point x="907" y="1152"/>
      <point x="1055" y="1313"/>
      <point x="1076" y="1436" type="qcurve"/>
      <point x="1092" y="1540" type="line"/>
      <point x="1113" y="1660"/>
      <point x="1018" y="1828"/>
      <point x="892" y="1828" type="qcurve"/>
      <point x="769" y="1828"/>
      <point x="617" y="1660"/>
    </contour>
  </outline>
</glyph>
<glyph name="questiondown" format="2">
  <advance width="1688"/>
  <unicode hex="00BF"/>
  <outline>
    <contour>
      <point x="1160" y="864" type="line"/>
      <point x="1152" y="816" type="line"/>
      <point x="1125" y="652"/>
      <point x="1039" y="456"/>
      <point x="918" y="337"/>
      <point x="836" y="288" type="qcurve"/>
      <point x="766" y="246"/>
      <point x="651" y="168"/>
      <point x="577" y="80"/>
      <point x="568" y="24" type="qcurve"/>
      <point x="556" y="-51"/>
      <point x="645" y="-144"/>
      <point x="720" y="-144" type="qcurve"/>
      <point x="774" y="-144"/>
      <point x="874" y="-94"/>
      <point x="944" y="-6"/>
      <point x="952" y="52" type="qcurve"/>
      <point x="1464" y="52" type="line"/>
      <point x="1426" y="-168"/>
      <point x="1186" y="-443"/>
      <point x="840" y="-572"/>
      <point x="644" y="-572" type="qcurve"/>
      <point x="432" y="-572"/>
      <point x="118" y="-447"/>
      <point x="-35" y="-196"/>
      <point x="-4" y="-8" type="qcurve"/>
      <point x="16" y="114"/>
      <point x="128" y="297"/>
      <point x="297" y="436"/>
      <point x="404" y="492" type="qcurve"/>
      <point x="484" y="534"/>
      <point x="597" y="622"/>
      <point x="667" y="736"/>
      <point x="680" y="816" type="qcurve"/>
      <point x="688" y="864" type="line"/>
    </contour>
    <contour>
      <point x="1016" y="1536" type="qcurve"/>
      <point x="1133" y="1536"/>
      <point x="1280" y="1373"/>
      <point x="1268" y="1256" type="qcurve"/>
      <point x="1256" y="1142"/>
      <point x="1073" y="980"/>
      <point x="956" y="980" type="qcurve"/>
      <point x="845" y="980"/>
      <point x="696" y="1142"/>
      <point x="708" y="1256" type="qcurve"/>
      <point x="716" y="1334"/>
      <point x="809" y="1461"/>
      <point x="944" y="1536"/>
    </contour>
  </outline>
</glyph>
<glyph name="Adieresis" format="2">
  <advance width="2240"/>
  <unicode hex="00C4"/>
  <outline>
    <contour>
      <point x="536" y="0" type="line"/>
      <point x="-64" y="0" type="line"/>
      <point x="952" y="2048" type="line"/>
      <point x="1712" y="2048" type="line"/>
      <point x="2048" y="0" type="line"/>
      <point x="1448" y="0" type="line"/>
      <point x="1248" y="1484" type="line"/>
      <point x="1232" y="1484" type="line"/>
    </contour>
    <contour>
      <point x="560" y="808" type="line"/>
      <point x="1688" y="808" type="line"/>
      <point x="1616" y="392" type="line"/>
      <point x="488" y="392" type="line"/>
    </contour>
    <contour>
      <point x="1080" y="2228" type="qcurve"/>
      <point x="966" y="2228"/>
      <point x="830" y="2384"/>
      <point x="848" y="2492" type="qcurve"/>
      <point x="863" y="2576"/>
      <point x="1006" y="2692"/>
      <point x="1096" y="2692" type="qcurve"/>
      <point x="1207" y="2692"/>
      <point x="1338" y="2536"/>
      <point x="1320" y="2428" type="qcurve"/>
      <point x="1308" y="2344"/>
      <point x="1167" y="2228"/>
    </contour>
    <contour>
      <point x="1716" y="2228" type="qcurve"/>
      <point x="1602" y="2228"/>
      <point x="1466" y="2384"/>
      <point x="1484" y="2492" type="qcurve"/>
      <point x="1499" y="2576"/>
      <point x="1642" y="2692"/>
      <point x="1732" y="2692" type="qcurve"/>
      <point x="1843" y="2692"/>
      <point x="1974" y="2536"/>
      <point x="1956" y="2428" type="qcurve"/>
      <point x="1944" y="2344"/>
      <point x="1803" y="2228"/>
    </contour>
  </outline>
</glyph>
<glyph name="Aring" format="2">
  <advance width="2240"/>
  <unicode hex="00C5"/>
  <outline>
    <contour>
      <point x="536" y="0" type="line"/>
      <point x="-64" y="0" type="line"/>
      <point x="952" y="2048" type="line"/>
      <point x="1712" y="2048" type="line"/>
      <point x="2048" y="0" type="line"/>
      <point x="1448" y="0" type="line"/>
      <point x="1248" y="1484" type="line"/>
      <point x="1232" y="1484" type="line"/>
    </contour>
    <contour>
      <point x="560" y="808" type="line"/>
      <point x="1688" y="808" type="line"/>
      <point x="1616" y="392" type="line"/>
      <point x="488" y="392" type="line"/>
    </contour>
    <contour>
      <point x="1354" y="2152" type="qcurve"/>
      <point x="1222" y="2152"/>
      <point x="1066" y="2333"/>
      <point x="1086" y="2460" type="qcurve"/>
      <point x="1100" y="2546"/>
      <point x="1208" y="2686"/>
      <point x="1366" y="2768"/>
      <point x="1454" y="2768" type="qcurve"/>
      <point x="1544" y="2768"/>
      <point x="1679" y="2685"/>
      <point x="1743" y="2546"/>
      <point x="1726" y="2460" type="qcurve"/>
      <point x="1710" y="2376"/>
      <point x="1600" y="2236"/>
      <point x="1442" y="2152"/>
    </contour>
    <contour>
      <point x="1386" y="2340" type="qcurve"/>
      <point x="1437" y="2340"/>
      <point x="1528" y="2411"/>
      <point x="1534" y="2460" type="qcurve"/>
      <point x="1540" y="2511"/>
      <point x="1476" y="2580"/>
      <point x="1422" y="2580" type="qcurve"/>
      <point x="1371" y="2580"/>
      <point x="1288" y="2510"/>
      <point x="1278" y="2460" type="qcurve"/>
      <point x="1269" y="2412"/>
      <point x="1332" y="2340"/>
    </contour>
  </outline>
</glyph>
<glyph name="AE" format="2">
  <advance width="2976"/>
  <unicode hex="00C6"/>
  <outline>
    <contour>
      <point x="-64" y="0" type="line"/>
      <point x="1076" y="2048" type="line"/>
      <point x="3044" y="2048" type="line"/>
      <point x="2968" y="1600" type="line"/>
      <point x="2048" y="1600" type="line"/>
      <point x="1992" y="1248" type="line"/>
      <point x="2836" y="1248" type="line"/>
      <point x="2760" y="800" type="line"/>
      <point x="1916" y="800" type="line"/>
      <point x="1860" y="448" type="line"/>
      <point x="2776" y="448" type="line"/>
      <point x="2700" y="0" type="line"/>
      <point x="1228" y="0" type="line"/>
      <point x="1476" y="1484" type="line"/>
      <point x="1336" y="1484" type="line"/>
      <point x="548" y="0" type="line"/>
    </contour>
    <contour>
      <point x="492" y="392" type="line"/>
      <point x="564" y="808" type="line"/>
      <point x="1692" y="808" type="line"/>
      <point x="1620" y="392" type="line"/>
    </contour>
  </outline>
</glyph>
<glyph name="Odieresis" format="2">
  <advance width="2240"/>
  <unicode hex="00D6"/>
  <outline>
    <contour>
      <point x="2152" y="988" type="qcurve"/>
      <point x="2096" y="654"/>
      <point x="1764" y="202"/>
      <point x="1290" y="-28"/>
      <point x="1020" y="-28" type="qcurve"/>
      <point x="732" y="-28"/>
      <point x="308" y="222"/>
      <point x="114" y="704"/>
      <point x="172" y="1052" type="qcurve"/>
      <point x="226" y="1386"/>
      <point x="558" y="1842"/>
      <point x="1036" y="2076"/>
      <point x="1308" y="2076" type="qcurve"/>
      <point x="1594" y="2076"/>
      <point x="2017" y="1824"/>
      <point x="2210" y="1338"/>
    </contour>
    <contour>
      <point x="1592" y="1052" type="qcurve"/>
      <point x="1620" y="1228"/>
      <point x="1572" y="1469"/>
      <point x="1418" y="1592"/>
      <point x="1288" y="1592" type="qcurve"/>
      <point x="1140" y="1592"/>
      <point x="912" y="1448"/>
      <point x="762" y="1178"/>
      <point x="732" y="988" type="qcurve"/>
      <point x="700" y="810"/>
      <point x="753" y="574"/>
      <point x="912" y="456"/>
      <point x="1040" y="456" type="qcurve"/>
      <point x="1186" y="456"/>
      <point x="1411" y="596"/>
      <point x="1560" y="862"/>
    </contour>
    <contour>
      <point x="1080" y="2228" type="qcurve"/>
      <point x="966" y="2228"/>
      <point x="830" y="2384"/>
      <point x="848" y="2492" type="qcurve"/>
      <point x="863" y="2576"/>
      <point x="1006" y="2692"/>
      <point x="1096" y="2692" type="qcurve"/>
      <point x="1207" y="2692"/>
      <point x="1338" y="2536"/>
      <point x="1320" y="2428" type="qcurve"/>
      <point x="1308" y="2344"/>
      <point x="1167" y="2228"/>
    </contour>
    <contour>
      <point x="1716" y="2228" type="qcurve"/>
      <point x="1602" y="2228"/>
      <point x="1466" y="2384"/>
      <point x="1484" y="2492" type="qcurve"/>
      <point x="1499" y="2576"/>
      <point x="1642" y="2692"/>
      <point x="1732" y="2692" type="qcurve"/>
      <point x="1843" y="2692"/>
      <point x="1974" y="2536"/>
      <point x="1956" y="2428" type="qcurve"/>
      <point x="1944" y="2344"/>
      <point x="1803" y="2228"/>
    </contour>
  </outline>
</glyph>
<glyph name="Thorn" format="2">
  <advance width="1964"/>
  <unicode hex="00DE"/>
  <outline>
    <contour>
      <point x="348" y="2048" type="line"/>
      <point x="904" y="2048" type="line"/>
      <point x="564" y="0" type="line"/>
      <point x="8" y="0" type="line"/>
    </contour>
    <contour>
      <point x="548" y="1704" type="line"/>
      <point x="1084" y="1704" type="line"/>
      <point x="1350" y="1704"/>
      <point x="1690" y="1538"/>
      <point x="1832" y="1244"/>
      <point x="1800" y="1052" type="qcurve"/>
      <point x="1768" y="860"/>
      <point x="1529" y="568"/>
      <point x="1134" y="404"/>
      <point x="868" y="404" type="qcurve"/>
      <point x="332" y="404" type="line"/>
      <point x="400" y="812" type="line"/>
      <point x="936" y="812" type="line"/>
      <point x="1046" y="812"/>
      <point x="1185" y="885"/>
      <point x="1258" y="994"/>
      <point x="1268" y="1048" type="qcurve"/>
      <point x="1276" y="1104"/>
      <point x="1240" y="1217"/>
      <point x="1126" y="1292"/>
      <point x="1016" y="1292" type="qcurve"/>
      <point x="480" y="1292" type="line"/>
    </contour>
  </outline>
</glyph>
<glyph name="germandbls" format="2">
  <advance width="1972"/>
  <unicode hex="00DF"/>
  <outline>
    <contour>
      <point x="4" y="0" type="line"/>
      <point x="252" y="1496" type="line"/>
      <point x="282" y="1678"/>
      <point x="516" y="1938"/>
      <point x="889" y="2076"/>
      <point x="1128" y="2076" type="qcurve"/>
      <point x="1347" y="2076"/>
      <point x="1700" y="1952"/>
      <point x="1885" y="1699"/>
      <point x="1852" y="1504" type="qcurve"/>
      <point x="1829" y="1356"/>
      <point x="1650" y="1140"/>
      <point x="1512" y="1108" type="qcurve"/>
      <point x="1508" y="1084" type="line"/>
      <point x="1709" y="1074"/>
      <point x="1888" y="781"/>
      <point x="1852" y="564" type="qcurve"/>
      <point x="1818" y="373"/>
      <point x="1596" y="123"/>
      <point x="1261" y="0"/>
      <point x="1056" y="0" type="qcurve"/>
      <point x="756" y="0" type="line"/>
      <point x="828" y="432" type="line"/>
      <point x="1012" y="432" type="line"/>
      <point x="1129" y="432"/>
      <point x="1287" y="539"/>
      <point x="1300" y="632" type="qcurve"/>
      <point x="1316" y="727"/>
      <point x="1180" y="832"/>
      <point x="1048" y="832" type="qcurve"/>
      <point x="904" y="832" type="line"/>
      <point x="968" y="1236" type="line"/>
      <point x="1060" y="1236" type="line"/>
      <point x="1114" y="1236"/>
      <point x="1203" y="1285"/>
      <point x="1263" y="1370"/>
      <point x="1272" y="1424" type="qcurve"/>
      <point x="1289" y="1516"/>
      <point x="1186" y="1628"/>
      <point x="1076" y="1628" type="qcurve"/>
      <point x="959" y="1628"/>
      <point x="806" y="1502"/>
      <point x="788" y="1392" type="qcurve"/>
      <point x="556" y="0" type="line"/>
    </contour>
  </outline>
</glyph>
<glyph name="aring" format="2">
  <advance width="1664"/>
  <unicode hex="00E5"/>
  <outline>
    <contour>
      <point x="436" y="-24" type="qcurve"/>
      <point x="290" y="-24"/>
      <point x="81" y="73"/>
      <point x="-14" y="272"/>
      <point x="12" y="424" type="qcurve"/>
      <point x="33" y="550"/>
      <point x="149" y="728"/>
      <point x="321" y="842"/>
      <point x="536" y="903"/>
      <point x="656" y="912" type="qcurve"/>
      <point x="786" y="922"/>
      <point x="948" y="952"/>
      <point x="1028" y="1004"/>
      <point x="1036" y="1048" type="qcurve"/>
      <point x="1036" y="1052" type="line"/>
      <point x="1045" y="1112"/>
      <point x="964" y="1176"/>
      <point x="892" y="1176" type="qcurve"/>
      <point x="814" y="1176"/>
      <point x="701" y="1108"/>
      <point x="680" y="1036" type="qcurve"/>
      <point x="172" y="1036" type="line"/>
      <point x="204" y="1176"/>
      <point x="403" y="1413"/>
      <point x="734" y="1556"/>
      <point x="964" y="1556" type="qcurve"/>
      <point x="1095" y="1556"/>
      <point x="1307" y="1506"/>
      <point x="1465" y="1415"/>
      <point x="1565" y="1289"/>
      <point x="1602" y="1137"/>
      <point x="1588" y="1052" type="qcurve"/>
      <point x="1412" y="0" type="line"/>
      <point x="896" y="0" type="line"/>
      <point x="932" y="216" type="line"/>
      <point x="920" y="216" type="line"/>
      <point x="860" y="130"/>
      <point x="711" y="24"/>
      <point x="536" y="-24"/>
    </contour>
    <contour>
      <point x="676" y="324" type="qcurve"/>
      <point x="738" y="324"/>
      <point x="858" y="376"/>
      <point x="944" y="474"/>
      <point x="956" y="544" type="qcurve"/>
      <point x="976" y="672" type="line"/>
      <point x="954" y="663"/>
      <point x="901" y="648"/>
      <point x="844" y="634"/>
      <point x="781" y="622"/>
      <point x="748" y="616" type="qcurve"/>
      <point x="682" y="606"/>
      <point x="592" y="561"/>
      <point x="542" y="496"/>
      <point x="536" y="456" type="qcurve"/>
      <point x="527" y="393"/>
      <point x="604" y="324"/>
    </contour>
    <contour>
      <point x="1016" y="1696" type="qcurve"/>
      <point x="926" y="1696"/>
      <point x="787" y="1783"/>
      <point x="714" y="1928"/>
      <point x="724" y="2016" type="qcurve"/>
      <point x="734" y="2104"/>
      <point x="839" y="2249"/>
      <point x="998" y="2336"/>
      <point x="1088" y="2336" type="qcurve"/>
      <point x="1178" y="2336"/>
      <point x="1317" y="2249"/>
      <point x="1390" y="2104"/>
      <point x="1380" y="2016" type="qcurve"/>
      <point x="1370" y="1928"/>
      <point x="1265" y="1783"/>
      <point x="1106" y="1696"/>
    </contour>
    <contour>
      <point x="1040" y="1892" type="qcurve"/>
      <point x="1094" y="1892"/>
      <point x="1178" y="1965"/>
      <point x="1184" y="2016" type="qcurve"/>
      <point x="1190" y="2067"/>
      <point x="1122" y="2140"/>
      <point x="1068" y="2140" type="qcurve"/>
      <point x="1011" y="2140"/>
      <point x="926" y="2067"/>
      <point x="920" y="2016" type="qcurve"/>
      <point x="914" y="1965"/>
      <point x="983" y="1892"/>
    </contour>
  </outline>
</glyph>
<glyph name="ae" format="2">
  <advance width="2552"/>
  <unicode hex="00E6"/>
  <outline>
    <contour>
      <point x="1628" y="-28" type="qcurve"/>
      <point x="1442" y="-28"/>
      <point x="1156" y="115"/>
      <point x="1108" y="268" type="qcurve"/>
      <point x="1224" y="1264" type="line"/>
      <point x="1356" y="1426"/>
      <point x="1659" y="1556"/>
      <point x="1836" y="1556" type="qcurve"/>
      <point x="2010" y="1556"/>
      <point x="2273" y="1448"/>
      <point x="2439" y="1242"/>
      <point x="2498" y="951"/>
      <point x="2468" y="768" type="qcurve"/>
      <point x="2448" y="640" type="line"/>
      <point x="1128" y="640" type="line"/>
      <point x="1176" y="944" type="line"/>
      <point x="1988" y="944" type="line"/>
      <point x="1998" y="1010"/>
      <point x="1951" y="1111"/>
      <point x="1852" y="1168"/>
      <point x="1784" y="1168" type="qcurve"/>
      <point x="1716" y="1168"/>
      <point x="1595" y="1111"/>
      <point x="1510" y="1010"/>
      <point x="1496" y="944" type="qcurve"/>
      <point x="1444" y="616" type="line"/>
      <point x="1432" y="542"/>
      <point x="1474" y="426"/>
      <point x="1578" y="360"/>
      <point x="1660" y="360" type="qcurve"/>
      <point x="1716" y="360"/>
      <point x="1817" y="391"/>
      <point x="1896" y="452"/>
      <point x="1920" y="496" type="qcurve"/>
      <point x="2424" y="496" type="line"/>
      <point x="2370" y="336"/>
      <point x="2136" y="101"/>
      <point x="1814" y="-28"/>
    </contour>
    <contour>
      <point x="676" y="324" type="qcurve"/>
      <point x="738" y="324"/>
      <point x="858" y="376"/>
      <point x="944" y="474"/>
      <point x="956" y="544" type="qcurve"/>
      <point x="976" y="672" type="line"/>
      <point x="954" y="663"/>
      <point x="901" y="648"/>
      <point x="844" y="634"/>
      <point x="781" y="622"/>
      <point x="748" y="616" type="qcurve"/>
      <point x="682" y="606"/>
      <point x="592" y="561"/>
      <point x="542" y="496"/>
      <point x="536" y="456" type="qcurve"/>
      <point x="527" y="393"/>
      <point x="604" y="324"/>
    </contour>
    <contour>
      <point x="476" y="-24" type="qcurve"/>
      <point x="308" y="-24"/>
      <point x="82" y="73"/>
      <point x="-14" y="272"/>
      <point x="12" y="424" type="qcurve"/>
      <point x="33" y="550"/>
      <point x="149" y="728"/>
      <point x="321" y="842"/>
      <point x="536" y="903"/>
      <point x="656" y="912" type="qcurve"/>
      <point x="788" y="922"/>
      <point x="949" y="952"/>
      <point x="1028" y="1004"/>
      <point x="1036" y="1048" type="qcurve"/>
      <point x="1036" y="1052" type="line"/>
      <point x="1045" y="1112"/>
      <point x="964" y="1176"/>
      <point x="892" y="1176" type="qcurve"/>
      <point x="814" y="1176"/>
      <point x="701" y="1108"/>
      <point x="680" y="1036" type="qcurve"/>
      <point x="172" y="1036" type="line"/>
      <point x="206" y="1176"/>
      <point x="404" y="1413"/>
      <point x="738" y="1556"/>
      <point x="976" y="1556" type="qcurve"/>
      <point x="1054" y="1556"/>
      <point x="1179" y="1528"/>
      <point x="1273" y="1476"/>
      <point x="1338" y="1400"/>
      <point x="1356" y="1352" type="qcurve"/>
      <point x="1148" y="232" type="line"/>
      <point x="1116" y="232" type="line"/>
      <point x="1054" y="146"/>
      <point x="851" y="32"/>
      <point x="604" y="-24"/>
    </contour>
  </outline>
</glyph>
<glyph name="edieresis" format="2">
  <advance width="1712"/>
  <unicode hex="00EB"/>
  <outline>
    <contour>
      <point x="744" y="-28" type="qcurve"/>
      <point x="498" y="-28"/>
      <point x="174" y="161"/>
      <point x="42" y="516"/>
      <point x="84" y="764" type="qcurve"/>
      <point x="124" y="1002"/>
      <point x="375" y="1358"/>
      <point x="758" y="1556"/>
      <point x="996" y="1556" type="qcurve"/>
      <point x="1170" y="1556"/>
      <point x="1433" y="1448"/>
      <point x="1599" y="1242"/>
      <point x="1658" y="951"/>
      <point x="1628" y="768" type="qcurve"/>
      <point x="1608" y="640" type="line"/>
      <point x="236" y="640" type="line"/>
      <point x="284" y="944" type="line"/>
      <point x="1148" y="944" type="line"/>
      <point x="1158" y="1010"/>
      <point x="1113" y="1111"/>
      <point x="1016" y="1168"/>
      <point x="948" y="1168" type="qcurve"/>
      <point x="880" y="1168"/>
      <point x="761" y="1110"/>
      <point x="678" y="1006"/>
      <point x="664" y="936" type="qcurve"/>
      <point x="604" y="616" type="line"/>
      <point x="592" y="542"/>
      <point x="634" y="426"/>
      <point x="738" y="360"/>
      <point x="820" y="360" type="qcurve"/>
      <point x="876" y="360"/>
      <point x="977" y="391"/>
      <point x="1056" y="452"/>
      <point x="1080" y="496" type="qcurve"/>
      <point x="1584" y="496" type="line"/>
      <point x="1530" y="336"/>
      <point x="1297" y="101"/>
      <point x="958" y="-28"/>
    </contour>
    <contour>
      <point x="728" y="1716" type="qcurve"/>
      <point x="614" y="1716"/>
      <point x="478" y="1872"/>
      <point x="496" y="1980" type="qcurve"/>
      <point x="511" y="2064"/>
      <point x="654" y="2180"/>
      <point x="744" y="2180" type="qcurve"/>
      <point x="855" y="2180"/>
      <point x="986" y="2024"/>
      <point x="968" y="1916" type="qcurve"/>
      <point x="956" y="1832"/>
      <point x="815" y="1716"/>
    </contour>
    <contour>
      <point x="1364" y="1716" type="qcurve"/>
      <point x="1250" y="1716"/>
      <point x="1114" y="1872"/>
      <point x="1132" y="1980" type="qcurve"/>
      <point x="1147" y="2064"/>
      <point x="1290" y="2180"/>
      <point x="1380" y="2180" type="qcurve"/>
      <point x="1491" y="2180"/>
      <point x="1622" y="2024"/>
      <point x="1604" y="1916" type="qcurve"/>
      <point x="1592" y="1832"/>
      <point x="1451" y="1716"/>
    </contour>
  </outline>
</glyph>
<glyph name="idieresis" format="2">
  <advance width="832"/>
  <unicode hex="00EF"/>
  <outline>
    <contour>
      <point x="12" y="0" type="line"/>
      <point x="268" y="1536" type="line"/>
      <point x="820" y="1536" type="line"/>
      <point x="564" y="0" type="line"/>
    </contour>
    <contour>
      <point x="288" y="1716" type="qcurve"/>
      <point x="174" y="1716"/>
      <point x="38" y="1872"/>
      <point x="56" y="1980" type="qcurve"/>
      <point x="71" y="2064"/>
      <point x="214" y="2180"/>
      <point x="304" y="2180" type="qcurve"/>
      <point x="415" y="2180"/>
      <point x="546" y="2024"/>
      <point x="528" y="1916" type="qcurve"/>
      <point x="516" y="1832"/>
      <point x="375" y="1716"/>
    </contour>
    <contour>
      <point x="924" y="1716" type="qcurve"/>
      <point x="810" y="1716"/>
      <point x="674" y="1872"/>
      <point x="692" y="1980" type="qcurve"/>
      <point x="707" y="2064"/>
      <point x="850" y="2180"/>
      <point x="940" y="2180" type="qcurve"/>
      <point x="1051" y="2180"/>
      <point x="1182" y="2024"/>
      <point x="1164" y="1916" type="qcurve"/>
      <point x="1152" y="1832"/>
      <point x="1011" y="1716"/>
    </contour>
  </outline>
</glyph>
<glyph name="eth" format="2">
  <advance width="1726"/>
  <unicode hex="00F0"/>
  <outline>
    <contour>
      <point x="1486" y="1916" type="line"/>
      <point x="382" y="1384" type="line"/>
      <point x="420" y="1608" type="line"/>
      <point x="1524" y="2140" type="line"/>
    </contour>
    <contour>
      <point x="720" y="-32" type="qcurve"/>
      <point x="491" y="-32"/>
      <point x="175" y="151"/>
      <point x="37" y="482"/>
      <point x="74" y="704" type="qcurve"/>
      <point x="106" y="898"/>
      <point x="312" y="1219"/>
      <point x="627" y="1410"/>
      <point x="822" y="1410" type="qcurve"/>
      <point x="900" y="1410"/>
      <point x="1030" y="1378"/>
      <point x="1132" y="1320"/>
      <point x="1168" y="1280" type="qcurve"/>
      <point x="1190" y="1280" type="line"/>
      <point x="1136" y="1434"/>
      <point x="893" y="1676"/>
      <point x="597" y="1843"/>
      <point x="464" y="1884" type="qcurve"/>
      <point x="508" y="2150" type="line"/>
      <point x="771" y="2116"/>
      <point x="1226" y="1900"/>
      <point x="1552" y="1555"/>
      <point x="1697" y="1093"/>
      <point x="1650" y="812" type="qcurve"/>
      <point x="1608" y="561"/>
      <point x="1356" y="181"/>
      <point x="967" y="-32"/>
    </contour>
    <contour>
      <point x="804" y="370" type="qcurve"/>
      <point x="884" y="370"/>
      <point x="1018" y="459"/>
      <point x="1112" y="627"/>
      <point x="1132" y="746" type="qcurve"/>
      <point x="1151" y="857"/>
      <point x="1116" y="1014"/>
      <point x="1011" y="1096"/>
      <point x="924" y="1096" type="qcurve"/>
      <point x="836" y="1096"/>
      <point x="704" y="1014"/>
      <point x="618" y="857"/>
      <point x="600" y="746" type="qcurve"/>
      <point x="581" y="628"/>
      <point x="619" y="460"/>
      <point x="723" y="370"/>
    </contour>
  </outline>
</glyph>
<glyph name="odieresis" format="2">
  <advance width="1760"/>
  <unicode hex="00F6"/>
  <outline>
    <contour>
      <point x="748" y="-28" type="qcurve"/>
      <point x="498" y="-28"/>
      <point x="175" y="171"/>
      <point x="45" y="528"/>
      <point x="84" y="764" type="qcurve"/>
      <point x="123" y="1000"/>
      <point x="371" y="1357"/>
      <point x="761" y="1556"/>
      <point x="1012" y="1556" type="qcurve"/>
      <point x="1261" y="1556"/>
      <point x="1584" y="1357"/>
      <point x="1715" y="1000"/>
      <point x="1676" y="764" type="qcurve"/>
      <point x="1637" y="528"/>
      <point x="1387" y="171"/>
      <point x="998" y="-28"/>
    </contour>
    <contour>
      <point x="816" y="380" type="qcurve"/>
      <point x="888" y="380"/>
      <point x="1007" y="474"/>
      <point x="1092" y="648"/>
      <point x="1112" y="768" type="qcurve"/>
      <point x="1132" y="889"/>
      <point x="1104" y="1062"/>
      <point x="1016" y="1156"/>
      <point x="944" y="1156" type="qcurve"/>
      <point x="872" y="1156"/>
      <point x="752" y="1062"/>
      <point x="668" y="889"/>
      <point x="648" y="768" type="qcurve"/>
      <point x="628" y="648"/>
      <point x="655" y="474"/>
      <point x="744" y="380"/>
    </contour>
    <contour>
      <point x="752" y="1716" type="qcurve"/>
      <point x="638" y="1716"/>
      <point x="502" y="1872"/>
      <point x="520" y="1980" type="qcurve"/>
      <point x="535" y="2064"/>
      <point x="678" y="2180"/>
      <point x="768" y="2180" type="qcurve"/>
      <point x="879" y="2180"/>
      <point x="1010" y="2024"/>
      <point x="992" y="1916" type="qcurve"/>
      <point x="980" y="1832"/>
      <point x="839" y="1716"/>
    </contour>
    <contour>
      <point x="1388" y="1716" type="qcurve"/>
      <point x="1274" y="1716"/>
      <point x="1138" y="1872"/>
      <point x="1156" y="1980" type="qcurve"/>
      <point x="1171" y="2064"/>
      <point x="1314" y="2180"/>
      <point x="1404" y="2180" type="qcurve"/>
      <point x="1515" y="2180"/>
      <point x="1646" y="2024"/>
      <point x="1628" y="1916" type="qcurve"/>
      <point x="1616" y="1832"/>
      <point x="1475" y="1716"/>
    </contour>
  </outline>
</glyph>
<glyph name="divide" format="2">
  <advance width="1952"/>
  <unicode hex="00F7"/>
  <outline>
    <contour>
      <point x="1760" y="1040" type="line"/>
      <point x="1692" y="624" type="line"/>
      <point x="212" y="624" type="line"/>
      <point x="280" y="1040" type="line"/>
    </contour>
    <contour>
      <point x="872" y="-32" type="qcurve"/>
      <point x="743" y="-32"/>
      <point x="590" y="155"/>
      <point x="612" y="284" type="qcurve"/>
      <point x="630" y="389"/>
      <point x="803" y="532"/>
      <point x="908" y="532" type="qcurve"/>
      <point x="1037" y="532"/>
      <point x="1186" y="349"/>
      <point x="1164" y="220" type="qcurve"/>
      <point x="1146" y="115"/>
      <point x="977" y="-32"/>
    </contour>
    <contour>
      <point x="1068" y="1132" type="qcurve"/>
      <point x="982" y="1132"/>
      <point x="852" y="1218"/>
      <point x="790" y="1362"/>
      <point x="804" y="1448" type="qcurve"/>
      <point x="822" y="1553"/>
      <point x="995" y="1696"/>
      <point x="1100" y="1696" type="qcurve"/>
      <point x="1229" y="1696"/>
      <point x="1375" y="1514"/>
      <point x="1356" y="1384" type="qcurve"/>
      <point x="1341" y="1279"/>
      <point x="1173" y="1132"/>
    </contour>
  </outline>
</glyph>
<glyph name="thorn" format="2">
  <advance width="1732"/>
  <unicode hex="00FE"/>
  <outline>
    <contour>
      <point x="352" y="2048" type="line"/>
      <point x="904" y="2048" type="line"/>
      <point x="784" y="1312" type="line"/>
      <point x="476" y="728" type="line"/>
      <point x="616" y="312" type="line"/>
      <point x="468" y="-576" type="line"/>
      <point x="-84" y="-576" type="line"/>
    </contour>
    <contour>
      <point x="576" y="1404" type="line"/>
      <point x="812" y="1404" type="line"/>
      <point x="849" y="1466"/>
      <point x="965" y="1532"/>
      <point x="1103" y="1556"/>
      <point x="1172" y="1556" type="qcurve"/>
      <point x="1321" y="1556"/>
      <point x="1569" y="1394"/>
      <point x="1687" y="1046"/>
      <point x="1640" y="768" type="qcurve"/>
      <point x="1597" y="500"/>
      <point x="1370" y="151"/>
      <point x="1065" y="-20"/>
      <point x="904" y="-20" type="qcurve"/>
      <point x="841" y="-20"/>
      <point x="714" y="-1"/>
      <point x="619" y="60"/>
      <point x="600" y="124" type="qcurve"/>
      <point x="364" y="124" type="line"/>
    </contour>
    <contour>
      <point x="1124" y="768" type="qcurve"/>
      <point x="1145" y="890"/>
      <point x="1113" y="1052"/>
      <point x="1009" y="1132"/>
      <point x="920" y="1132" type="qcurve"/>
      <point x="823" y="1132"/>
      <point x="705" y="1030"/>
      <point x="641" y="864"/>
      <point x="624" y="768" type="qcurve"/>
      <point x="609" y="676"/>
      <point x="615" y="509"/>
      <point x="699" y="404"/>
      <point x="800" y="404" type="qcurve"/>
      <point x="889" y="404"/>
      <point x="1020" y="484"/>
      <point x="1105" y="646"/>
    </contour>
  </outline>
</glyph>
<glyph name="ydieresis" format="2">
  <advance width="1704"/>
  <unicode hex="00FF"/>
  <outline>
    <contour>
      <point x="254" y="-576" type="qcurve"/>
      <point x="158" y="-576"/>
      <point x="-8" y="-547"/>
      <point x="-70" y="-522" type="qcurve"/>
      <point x="116" y="-130" type="line"/>
      <point x="180" y="-154"/>
      <point x="289" y="-168"/>
      <point x="373" y="-138"/>
      <point x="400" y="-96" type="qcurve"/>
      <point x="418" y="-68" type="line"/>
      <point x="144" y="1536" type="line"/>
      <point x="700" y="1536" type="line"/>
      <point x="770" y="472" type="line"/>
      <point x="786" y="472" type="line"/>
      <point x="1216" y="1536" type="line"/>
      <point x="1816" y="1536" type="line"/>
      <point x="980" y="-128" type="line"/>
      <point x="916" y="-255"/>
      <point x="725" y="-458"/>
      <point x="447" y="-576"/>
    </contour>
    <contour>
      <point x="722" y="1716" type="qcurve"/>
      <point x="608" y="1716"/>
      <point x="472" y="1872"/>
      <point x="490" y="1980" type="qcurve"/>
      <point x="505" y="2064"/>
      <point x="648" y="2180"/>
      <point x="738" y="2180" type="qcurve"/>
      <point x="849" y="2180"/>
      <point x="980" y="2024"/>
      <point x="962" y="1916" type="qcurve"/>
      <point x="950" y="1832"/>
      <point x="809" y="1716"/>
    </contour>
    <contour>
      <point x="1358" y="1716" type="qcurve"/>
      <point x="1244" y="1716"/>
      <point x="1108" y="1872"/>
      <point x="1126" y="1980" type="qcurve"/>
      <point x="1141" y="2064"/>
      <point x="1284" y="2180"/>
      <point x="1374" y="2180" type="qcurve"/>
      <point x="1485" y="2180"/>
      <point x="1616" y="2024"/>
      <point x="1598" y="1916" type="qcurve"/>
      <point x="1586" y="1832"/>
      <point x="1445" y="1716"/>
    </contour>
  </outline>
</glyph>
<glyph name="Hbar" format="2">
  <advance width="2344"/>
  <unicode hex="0126"/>
  <outline>
    <contour>
      <point x="2428" y="1744" type="line"/>
      <point x="2384" y="1480" type="line"/>
      <point x="192" y="1480" type="line"/>
      <point x="236" y="1744" type="line"/>
    </contour>
    <contour>
      <point x="116" y="0" type="line"/>
      <point x="456" y="2048" type="line"/>
      <point x="1012" y="2048" type="line"/>
      <point x="880" y="1248" type="line"/>
      <point x="1616" y="1248" type="line"/>
      <point x="1748" y="2048" type="line"/>
      <point x="2304" y="2048" type="line"/>
      <point x="1964" y="0" type="line"/>
      <point x="1408" y="0" type="line"/>
      <point x="1540" y="800" type="line"/>
      <point x="804" y="800" type="line"/>
      <point x="672" y="0" type="line"/>
    </contour>
  </outline>
</glyph>
<glyph name="hbar" format="2">
  <advance width="1820"/>
  <unicode hex="0127"/>
  <outline>
    <contour>
      <point x="712" y="864" type="qcurve"/>
      <point x="568" y="0" type="line"/>
      <point x="16" y="0" type="line"/>
      <point x="356" y="2048" type="line"/>
      <point x="888" y="2048" type="line"/>
      <point x="756" y="1244" type="line"/>
      <point x="772" y="1244" type="line"/>
      <point x="847" y="1391"/>
      <point x="1117" y="1556"/>
      <point x="1288" y="1556" type="qcurve"/>
      <point x="1450" y="1556"/>
      <point x="1666" y="1408"/>
      <point x="1756" y="1148"/>
      <point x="1728" y="980" type="qcurve"/>
      <point x="1564" y="0" type="line"/>
      <point x="1012" y="0" type="line"/>
      <point x="1156" y="864" type="line"/>
      <point x="1174" y="978"/>
      <point x="1081" y="1108"/>
      <point x="976" y="1108" type="qcurve"/>
      <point x="908" y="1108"/>
      <point x="797" y="1049"/>
      <point x="724" y="940"/>
    </contour>
    <contour>
      <point x="8" y="1612" type="line"/>
      <point x="60" y="1908" type="line"/>
      <point x="1136" y="1908" type="line"/>
      <point x="1084" y="1612" type="line"/>
    </contour>
  </outline>
</glyph>
<glyph name="dotlessi" format="2">
  <advance width="832"/>
  <unicode hex="0131"/>
  <outline>
    <contour>
      <point x="12" y="0" type="line"/>
      <point x="268" y="1536" type="line"/>
      <point x="820" y="1536" type="line"/>
      <point x="564" y="0" type="line"/>
    </contour>
  </outline>
</glyph>
<glyph name="kgreenlandic" format="2">
  <advance width="1964"/>
  <unicode hex="0138"/>
  <outline>
    <contour>
      <point x="824" y="1536" type="line"/>
      <point x="568" y="0" type="line"/>
      <point x="48" y="0" type="line"/>
      <point x="304" y="1536" type="line"/>
    </contour>
    <contour>
      <point x="1940" y="1536" type="line"/>
      <point x="1080" y="506" type="line"/>
      <point x="592" y="506" type="line"/>
      <point x="622" y="1018" type="line"/>
      <point x="886" y="1018" type="line"/>
      <point x="1272" y="1536" type="line"/>
    </contour>
    <contour>
      <point x="996" y="0" type="line"/>
      <point x="798" y="584" type="line"/>
      <point x="1302" y="808" type="line"/>
      <point x="1660" y="0" type="line"/>
    </contour>
  </outline>
</glyph>
<glyph name="Lslash" format="2">
  <advance width="1692"/>
  <unicode hex="0141"/>
  <outline>
    <contour>
      <point x="1128" y="1352" type="line"/>
      <point x="1084" y="1076" type="line"/>
      <point x="36" y="820" type="line"/>
      <point x="80" y="1092" type="line"/>
    </contour>
    <contour>
      <point x="148" y="0" type="line"/>
      <point x="488" y="2048" type="line"/>
      <point x="1044" y="2048" type="line"/>
      <point x="780" y="448" type="line"/>
      <point x="1608" y="448" type="line"/>
      <point x="1532" y="0" type="line"/>
    </contour>
  </outline>
</glyph>
<glyph name="lslash" format="2">
  <advance width="844"/>
  <unicode hex="0142"/>
  <unicode hex="E051"/>
  <outline>
    <contour>
      <point x="996" y="1368" type="line"/>
      <point x="948" y="1092" type="line"/>
      <point x="12" y="832" type="line"/>
      <point x="56" y="1108" type="line"/>
    </contour>
    <contour>
      <point x="400" y="2048" type="line"/>
      <point x="952" y="2048" type="line"/>
      <point x="696" y="500" type="line"/>
      <point x="687" y="452"/>
      <point x="733" y="404"/>
      <point x="784" y="404" type="qcurve"/>
      <point x="808" y="404"/>
      <point x="843" y="409"/>
      <point x="852" y="412" type="qcurve"/>
      <point x="872" y="32" type="line"/>
      <point x="833" y="20"/>
      <point x="732" y="-2"/>
      <point x="636" y="-8" type="qcurve"/>
      <point x="336" y="-23"/>
      <point x="94" y="193"/>
      <point x="136" y="448" type="qcurve"/>
    </contour>
  </outline>
</glyph>
<glyph name="Eng" format="2">
  <advance width="2036"/>
  <unicode hex="014A"/>
  <outline>
    <contour>
      <point x="1312" y="0" type="line"/>
      <point x="1776" y="0" type="line"/>
      <point x="1772" y="-28" type="line"/>
      <point x="1739" y="-263"/>
      <point x="1518" y="-524"/>
      <point x="1168" y="-628"/>
      <point x="940" y="-628" type="qcurve"/>
      <point x="904" y="-628"/>
      <point x="815" y="-612"/>
      <point x="776" y="-600" type="qcurve"/>
      <point x="844" y="-200" type="line"/>
      <point x="883" y="-209"/>
      <point x="985" y="-220"/>
      <point x="1036" y="-220" type="qcurve"/>
      <point x="1147" y="-220"/>
      <point x="1293" y="-124"/>
      <point x="1308" y="-40" type="qcurve"/>
    </contour>
    <contour>
      <point x="2116" y="2048" type="line"/>
      <point x="1776" y="0" type="line"/>
      <point x="1312" y="0" type="line"/>
      <point x="752" y="1076" type="line"/>
      <point x="740" y="1076" type="line"/>
      <point x="560" y="0" type="line"/>
      <point x="4" y="0" type="line"/>
      <point x="344" y="2048" type="line"/>
      <point x="816" y="2048" type="line"/>
      <point x="1368" y="976" type="line"/>
      <point x="1384" y="976" type="line"/>
      <point x="1560" y="2048" type="line"/>
    </contour>
  </outline>
</glyph>
<glyph name="eng" format="2">
  <advance width="1852"/>
  <unicode hex="014B"/>
  <outline>
    <contour>
      <point x="1018" y="32" type="line"/>
      <point x="1570" y="38" type="line"/>
      <point x="1562" y="-8" type="line"/>
      <point x="1525" y="-224"/>
      <point x="1324" y="-472"/>
      <point x="1016" y="-576"/>
      <point x="818" y="-576" type="qcurve"/>
      <point x="749" y="-576"/>
      <point x="620" y="-568"/>
      <point x="554" y="-556" type="qcurve"/>
      <point x="674" y="-112" type="line"/>
      <point x="710" y="-121"/>
      <point x="785" y="-132"/>
      <point x="830" y="-132" type="qcurve"/>
      <point x="911" y="-132"/>
      <point x="998" y="-68"/>
      <point x="1010" y="-10" type="qcurve"/>
    </contour>
    <contour>
      <point x="712" y="864" type="qcurve"/>
      <point x="568" y="0" type="line"/>
      <point x="16" y="0" type="line"/>
      <point x="272" y="1536" type="line"/>
      <point x="796" y="1536" type="line"/>
      <point x="748" y="1244" type="line"/>
      <point x="764" y="1244" type="line"/>
      <point x="837" y="1391"/>
      <point x="1118" y="1556"/>
      <point x="1288" y="1556" type="qcurve"/>
      <point x="1451" y="1556"/>
      <point x="1667" y="1408"/>
      <point x="1757" y="1148"/>
      <point x="1728" y="980" type="qcurve"/>
      <point x="1564" y="0" type="line"/>
      <point x="1012" y="0" type="line"/>
      <point x="1156" y="864" type="line"/>
      <point x="1175" y="978"/>
      <point x="1082" y="1108"/>
      <point x="976" y="1108" type="qcurve"/>
      <point x="909" y="1108"/>
      <point x="798" y="1049"/>
      <point x="725" y="940"/>
    </contour>
  </outline>
</glyph>
<glyph name="OE" format="2">
  <advance width="2988"/>
  <unicode hex="0152"/>
  <outline>
    <contour>
      <point x="948" y="0" type="line"/>
      <point x="683" y="0"/>
      <point x="289" y="220"/>
      <point x="110" y="672"/>
      <point x="168" y="1020" type="qcurve"/>
      <point x="225" y="1370"/>
      <point x="554" y="1826"/>
      <point x="1023" y="2048"/>
      <point x="1288" y="2048" type="qcurve"/>
      <point x="3060" y="2048" type="line"/>
      <point x="2984" y="1600" type="line"/>
      <point x="2064" y="1600" type="line"/>
      <point x="2008" y="1248" type="line"/>
      <point x="2852" y="1248" type="line"/>
      <point x="2776" y="800" type="line"/>
      <point x="1932" y="800" type="line"/>
      <point x="1876" y="448" type="line"/>
      <point x="2792" y="448" type="line"/>
      <point x="2716" y="0" type="line"/>
    </contour>
    <contour>
      <point x="1318" y="448" type="line"/>
      <point x="1510" y="1600" type="line"/>
      <point x="1212" y="1600" type="line"/>
      <point x="1101" y="1600"/>
      <point x="910" y="1497"/>
      <point x="769" y="1244"/>
      <point x="732" y="1020" type="qcurve"/>
      <point x="695" y="794"/>
      <point x="754" y="546"/>
      <point x="913" y="448"/>
      <point x="1024" y="448" type="qcurve"/>
    </contour>
  </outline>
</glyph>
<glyph name="Ydieresis" format="2">
  <advance width="2152"/>
  <unicode hex="0178"/>
  <outline>
    <contour>
      <point x="260" y="2048" type="line"/>
      <point x="880" y="2048" type="line"/>
      <point x="1140" y="1216" type="line"/>
      <point x="1160" y="1216" type="line"/>
      <point x="1696" y="2048" type="line"/>
      <point x="2316" y="2048" type="line"/>
      <point x="1332" y="644" type="line"/>
      <point x="1224" y="0" type="line"/>
      <point x="672" y="0" type="line"/>
      <point x="780" y="644" type="line"/>
    </contour>
    <contour>
      <point x="1036" y="2228" type="qcurve"/>
      <point x="922" y="2228"/>
      <point x="786" y="2384"/>
      <point x="804" y="2492" type="qcurve"/>
      <point x="819" y="2576"/>
      <point x="962" y="2692"/>
      <point x="1052" y="2692" type="qcurve"/>
      <point x="1163" y="2692"/>
      <point x="1294" y="2536"/>
      <point x="1276" y="2428" type="qcurve"/>
      <point x="1264" y="2344"/>
      <point x="1123" y="2228"/>
    </contour>
    <contour>
      <point x="1672" y="2228" type="qcurve"/>
      <point x="1558" y="2228"/>
      <point x="1422" y="2384"/>
      <point x="1440" y="2492" type="qcurve"/>
      <point x="1455" y="2576"/>
      <point x="1598" y="2692"/>
      <point x="1688" y="2692" type="qcurve"/>
      <point x="1799" y="2692"/>
      <point x="1930" y="2536"/>
      <point x="1912" y="2428" type="qcurve"/>
      <point x="1900" y="2344"/>
      <point x="1759" y="2228"/>
    </contour>
  </outline>
</glyph>
<glyph name="zcaron" format="2">
  <advance width="1676"/>
  <unicode hex="017E"/>
  <outline>
    <contour>
      <point x="32" y="0" type="line"/>
      <point x="80" y="304" type="line"/>
      <point x="884" y="1108" type="line"/>
      <point x="888" y="1116" type="line"/>
      <point x="240" y="1116" type="line"/>
      <point x="312" y="1536" type="line"/>
      <point x="1612" y="1536" type="line"/>
      <point x="1560" y="1200" type="line"/>
      <point x="820" y="428" type="line"/>
      <point x="816" y="420" type="line"/>
      <point x="1452" y="420" type="line"/>
      <point x="1384" y="0" type="line"/>
    </contour>
    <contour>
      <point x="872" y="2188" type="line"/>
      <point x="1032" y="1968" type="line"/>
      <point x="1264" y="2188" type="line"/>
      <point x="1720" y="2188" type="line"/>
      <point x="1718" y="2176" type="line"/>
      <point x="1184" y="1720" type="line"/>
      <point x="800" y="1720" type="line"/>
      <point x="414" y="2176" type="line"/>
      <point x="416" y="2188" type="line"/>
    </contour>
  </outline>
</glyph>
<glyph name="longs" format="2">
  <advance width="856"/>
  <unicode hex="017F"/>
  <outline>
    <contour>
      <point x="380" y="0" type="line"/>
      <point x="-140" y="0" type="line"/>
      <point x="124" y="1596" type="line"/>
      <point x="154" y="1774"/>
      <point x="344" y="2016"/>
      <point x="650" y="2140"/>
      <point x="852" y="2140" type="qcurve"/>
      <point x="911" y="2140"/>
      <point x="1028" y="2124"/>
      <point x="1092" y="2112" type="qcurve"/>
      <point x="992" y="1716" type="line"/>
      <point x="958" y="1722"/>
      <point x="901" y="1728"/>
      <point x="848" y="1728" type="qcurve"/>
      <point x="760" y="1728"/>
      <point x="655" y="1665"/>
      <point x="644" y="1596" type="qcurve"/>
    </contour>
  </outline>
</glyph>
<glyph name="Bhook" format="2">
  <advance width="2560"/>
  <unicode hex="0181"/>
  <outline>
    <contour>
      <point x="1284" y="1604" type="line"/>
      <point x="920" y="1604" type="line"/>
      <point x="835" y="1604"/>
      <point x="726" y="1524"/>
      <point x="669" y="1404"/>
      <point x="660" y="1344" type="qcurve"/>
      <point x="636" y="1196" type="line"/>
      <point x="148" y="1196" type="line"/>
      <point x="188" y="1440" type="line"/>
      <point x="219" y="1634"/>
      <point x="436" y="1906"/>
      <point x="777" y="2048"/>
      <point x="992" y="2048" type="qcurve"/>
      <point x="1356" y="2048" type="line"/>
    </contour>
    <contour>
      <point x="684" y="0" type="line"/>
      <point x="1024" y="2048" type="line"/>
      <point x="1912" y="2048" type="line"/>
      <point x="2146" y="2048"/>
      <point x="2445" y="1922"/>
      <point x="2570" y="1692"/>
      <point x="2544" y="1536" type="qcurve"/>
      <point x="2514" y="1368"/>
      <point x="2255" y="1124"/>
      <point x="2072" y="1088" type="qcurve"/>
      <point x="2068" y="1068" type="line"/>
      <point x="2200" y="1064"/>
      <point x="2396" y="941"/>
      <point x="2488" y="724"/>
      <point x="2464" y="580" type="qcurve"/>
      <point x="2436" y="412"/>
      <point x="2218" y="150"/>
      <point x="1870" y="0"/>
      <point x="1648" y="0" type="qcurve"/>
    </contour>
    <contour>
      <point x="1316" y="444" type="line"/>
      <point x="1576" y="444" type="line"/>
      <point x="1714" y="444"/>
      <point x="1873" y="550"/>
      <point x="1888" y="652" type="qcurve"/>
      <point x="1900" y="724"/>
      <point x="1852" y="824"/>
      <point x="1738" y="876"/>
      <point x="1652" y="876" type="qcurve"/>
      <point x="1384" y="876" type="line"/>
    </contour>
    <contour>
      <point x="1444" y="1220" type="line"/>
      <point x="1672" y="1220" type="line"/>
      <point x="1744" y="1220"/>
      <point x="1864" y="1266"/>
      <point x="1942" y="1354"/>
      <point x="1952" y="1416" type="qcurve"/>
      <point x="1967" y="1512"/>
      <point x="1846" y="1612"/>
      <point x="1744" y="1612" type="qcurve"/>
      <point x="1508" y="1612" type="line"/>
    </contour>
  </outline>
</glyph>
<glyph name="btopbar" format="2">
  <advance width="1816"/>
  <unicode hex="0183"/>
  <outline>
    <contour>
      <point x="1708" y="2048" type="line"/>
      <point x="1648" y="1684" type="line"/>
      <point x="836" y="1684" type="line"/>
      <point x="768" y="1268" type="line"/>
      <point x="776" y="1268" type="line"/>
      <point x="818" y="1346"/>
      <point x="956" y="1477"/>
      <point x="1142" y="1556"/>
      <point x="1256" y="1556" type="qcurve"/>
      <point x="1408" y="1556"/>
      <point x="1655" y="1394"/>
      <point x="1770" y="1046"/>
      <point x="1724" y="768" type="qcurve"/>
      <point x="1680" y="502"/>
      <point x="1456" y="152"/>
      <point x="1152" y="-20"/>
      <point x="988" y="-20" type="qcurve"/>
      <point x="880" y="-20"/>
      <point x="723" y="51"/>
      <point x="626" y="174"/>
      <point x="608" y="252" type="qcurve"/>
      <point x="592" y="252" type="line"/>
      <point x="552" y="0" type="line"/>
      <point x="4" y="0" type="line"/>
      <point x="344" y="2048" type="line"/>
    </contour>
    <contour>
      <point x="672" y="768" type="qcurve"/>
      <point x="654" y="656"/>
      <point x="686" y="493"/>
      <point x="780" y="404"/>
      <point x="856" y="404" type="qcurve"/>
      <point x="932" y="404"/>
      <point x="1054" y="491"/>
      <point x="1138" y="654"/>
      <point x="1156" y="768" type="qcurve"/>
      <point x="1174" y="882"/>
      <point x="1144" y="1045"/>
      <point x="1052" y="1132"/>
      <point x="976" y="1132" type="qcurve"/>
      <point x="900" y="1132"/>
      <point x="776" y="1045"/>
      <point x="690" y="882"/>
    </contour>
  </outline>
</glyph>
<glyph name="Tonesix" format="2">
  <advance width="2340"/>
  <unicode hex="0184"/>
  <outline>
    <contour>
      <point x="1192" y="2048" type="line"/>
      <point x="1116" y="1600" type="line"/>
      <point x="176" y="1600" type="line"/>
      <point x="252" y="2048" type="line"/>
    </contour>
    <contour>
      <point x="984" y="1360" type="line"/>
      <point x="1408" y="1360" type="line"/>
      <point x="1666" y="1360"/>
      <point x="2025" y="1194"/>
      <point x="2190" y="892"/>
      <point x="2156" y="688" type="qcurve"/>
      <point x="2122" y="484"/>
      <point x="1854" y="174"/>
      <point x="1438" y="0"/>
      <point x="1180" y="0" type="qcurve"/>
      <point x="416" y="0" type="line"/>
      <point x="756" y="2048" type="line"/>
      <point x="1312" y="2048" type="line"/>
      <point x="1044" y="436" type="line"/>
      <point x="1252" y="436" type="line"/>
      <point x="1352" y="436"/>
      <point x="1501" y="502"/>
      <point x="1592" y="618"/>
      <point x="1604" y="692" type="qcurve"/>
      <point x="1621" y="797"/>
      <point x="1485" y="936"/>
      <point x="1336" y="936" type="qcurve"/>
      <point x="912" y="936" type="line"/>
    </contour>
  </outline>
</glyph>
<glyph name="tonesix" format="2">
  <advance width="1952"/>
  <unicode hex="0185"/>
  <outline>
    <contour>
      <point x="624" y="2112" type="line"/>
      <point x="700" y="2112" type="line"/>
      <point x="588" y="1440" type="line"/>
      <point x="512" y="1440" type="line"/>
      <point x="256" y="1640" type="line"/>
      <point x="300" y="1904" type="line"/>
    </contour>
    <contour>
      <point x="816" y="1404" type="line"/>
      <point x="1052" y="1404" type="line"/>
      <point x="1091" y="1472"/>
      <point x="1217" y="1537"/>
      <point x="1353" y="1556"/>
      <point x="1408" y="1556" type="qcurve"/>
      <point x="1557" y="1556"/>
      <point x="1806" y="1394"/>
      <point x="1925" y="1046"/>
      <point x="1880" y="768" type="qcurve"/>
      <point x="1835" y="500"/>
      <point x="1607" y="151"/>
      <point x="1303" y="-20"/>
      <point x="1144" y="-20" type="qcurve"/>
      <point x="1073" y="-20"/>
      <point x="945" y="0"/>
      <point x="855" y="62"/>
      <point x="840" y="124" type="qcurve"/>
      <point x="604" y="124" type="line"/>
    </contour>
    <contour>
      <point x="1364" y="768" type="qcurve"/>
      <point x="1383" y="888"/>
      <point x="1350" y="1050"/>
      <point x="1247" y="1132"/>
      <point x="1160" y="1132" type="qcurve"/>
      <point x="1059" y="1132"/>
      <point x="940" y="1028"/>
      <point x="879" y="862"/>
      <point x="864" y="768" type="qcurve"/>
      <point x="847" y="676"/>
      <point x="852" y="509"/>
      <point x="937" y="404"/>
      <point x="1040" y="404" type="qcurve"/>
      <point x="1127" y="404"/>
      <point x="1257" y="486"/>
      <point x="1343" y="648"/>
    </contour>
    <contour>
      <point x="592" y="2048" type="line"/>
      <point x="1144" y="2048" type="line"/>
      <point x="1024" y="1312" type="line"/>
      <point x="720" y="728" type="line"/>
      <point x="852" y="312" type="line"/>
      <point x="800" y="0" type="line"/>
      <point x="252" y="0" type="line"/>
    </contour>
  </outline>
</glyph>
<glyph name="Oopen" format="2">
  <advance width="2164"/>
  <unicode hex="0186"/>
  <outline>
    <contour>
      <point x="122" y="768" type="qcurve"/>
      <point x="678" y="768" type="line"/>
      <point x="672" y="698"/>
      <point x="700" y="583"/>
      <point x="768" y="500"/>
      <point x="878" y="456"/>
      <point x="954" y="456" type="qcurve"/>
      <point x="1101" y="456"/>
      <point x="1330" y="601"/>
      <point x="1483" y="870"/>
      <point x="1514" y="1056" type="qcurve"/>
      <point x="1543" y="1236"/>
      <point x="1489" y="1474"/>
      <point x="1333" y="1592"/>
      <point x="1206" y="1592" type="qcurve"/>
      <point x="1122" y="1592"/>
      <point x="981" y="1552"/>
      <point x="870" y="1477"/>
      <point x="791" y="1373"/>
      <point x="770" y="1308" type="qcurve"/>
      <point x="210" y="1308" type="line"/>
      <point x="242" y="1439"/>
      <point x="406" y="1709"/>
      <point x="666" y="1936"/>
      <point x="1018" y="2076"/>
      <point x="1238" y="2076" type="qcurve"/>
      <point x="1527" y="2076"/>
      <point x="1944" y="1824"/>
      <point x="2131" y="1340"/>
      <point x="2074" y="992" type="qcurve"/>
      <point x="2019" y="656"/>
      <point x="1688" y="202"/>
      <point x="1217" y="-28"/>
      <point x="950" y="-28" type="qcurve"/>
      <point x="749" y="-28"/>
      <point x="430" y="78"/>
      <point x="211" y="281"/>
      <point x="107" y="578"/>
    </contour>
  </outline>
</glyph>
<glyph name="Chook" format="2">
  <advance width="2476"/>
  <unicode hex="0187"/>
  <outline>
    <contour>
      <point x="2124" y="1280" type="line"/>
      <point x="1588" y="1280" type="line"/>
      <point x="1620" y="1488" type="line"/>
      <point x="1653" y="1699"/>
      <point x="1912" y="1985"/>
      <point x="2283" y="2132"/>
      <point x="2480" y="2132" type="qcurve"/>
      <point x="2544" y="2132"/>
      <point x="2656" y="2129"/>
      <point x="2724" y="2120" type="qcurve"/>
      <point x="2652" y="1680" type="line"/>
      <point x="2623" y="1680"/>
      <point x="2528" y="1684"/>
      <point x="2500" y="1684" type="qcurve"/>
      <point x="2437" y="1684"/>
      <point x="2280" y="1630"/>
      <point x="2155" y="1505"/>
      <point x="2140" y="1396" type="qcurve"/>
    </contour>
    <contour>
      <point x="2126" y="1280" type="qcurve"/>
      <point x="1570" y="1280" type="line"/>
      <point x="1576" y="1351"/>
      <point x="1548" y="1465"/>
      <point x="1480" y="1548"/>
      <point x="1370" y="1592"/>
      <point x="1294" y="1592" type="qcurve"/>
      <point x="1148" y="1592"/>
      <point x="918" y="1447"/>
      <point x="766" y="1178"/>
      <point x="734" y="992" type="qcurve"/>
      <point x="706" y="812"/>
      <point x="759" y="574"/>
      <point x="916" y="456"/>
      <point x="1042" y="456" type="qcurve"/>
      <point x="1126" y="456"/>
      <point x="1267" y="496"/>
      <point x="1378" y="571"/>
      <point x="1457" y="676"/>
      <point x="1478" y="740" type="qcurve"/>
      <point x="2038" y="740" type="line"/>
      <point x="2006" y="610"/>
      <point x="1842" y="339"/>
      <point x="1582" y="112"/>
      <point x="1230" y="-28"/>
      <point x="1010" y="-28" type="qcurve"/>
      <point x="722" y="-28"/>
      <point x="305" y="224"/>
      <point x="118" y="708"/>
      <point x="174" y="1056" type="qcurve"/>
      <point x="230" y="1392"/>
      <point x="560" y="1846"/>
      <point x="1032" y="2076"/>
      <point x="1298" y="2076" type="qcurve"/>
      <point x="1499" y="2076"/>
      <point x="1818" y="1970"/>
      <point x="2037" y="1767"/>
      <point x="2141" y="1471"/>
    </contour>
  </outline>
</glyph>
<glyph name="chook" format="2">
  <advance width="1872"/>
  <unicode hex="0188"/>
  <outline>
    <contour>
      <point x="1648" y="896" type="line"/>
      <point x="1148" y="896" type="line"/>
      <point x="1192" y="1152" type="line"/>
      <point x="1220" y="1322"/>
      <point x="1409" y="1560"/>
      <point x="1688" y="1684"/>
      <point x="1852" y="1684" type="qcurve"/>
      <point x="1900" y="1684"/>
      <point x="1998" y="1667"/>
      <point x="2052" y="1652" type="qcurve"/>
      <point x="1996" y="1320" type="line"/>
      <point x="1963" y="1323"/>
      <point x="1908" y="1332"/>
      <point x="1872" y="1332" type="qcurve"/>
      <point x="1788" y="1332"/>
      <point x="1707" y="1244"/>
      <point x="1692" y="1148" type="qcurve"/>
    </contour>
    <contour>
      <point x="748" y="-28" type="qcurve"/>
      <point x="498" y="-28"/>
      <point x="174" y="171"/>
      <point x="44" y="528"/>
      <point x="84" y="764" type="qcurve"/>
      <point x="122" y="1000"/>
      <point x="371" y="1357"/>
      <point x="762" y="1556"/>
      <point x="1012" y="1556" type="qcurve"/>
      <point x="1351" y="1556"/>
      <point x="1688" y="1196"/>
      <point x="1640" y="896" type="qcurve"/>
      <point x="1128" y="896" type="line"/>
      <point x="1137" y="1016"/>
      <point x="1042" y="1144"/>
      <point x="952" y="1144" type="qcurve"/>
      <point x="878" y="1144"/>
      <point x="755" y="1061"/>
      <point x="668" y="894"/>
      <point x="648" y="768" type="qcurve"/>
      <point x="628" y="642"/>
      <point x="659" y="475"/>
      <point x="752" y="392"/>
      <point x="824" y="392" type="qcurve"/>
      <point x="886" y="392"/>
      <point x="991" y="449"/>
      <point x="1068" y="560"/>
      <point x="1088" y="640" type="qcurve"/>
      <point x="1600" y="640" type="line"/>
      <point x="1562" y="436"/>
      <point x="1332" y="136"/>
      <point x="976" y="-28"/>
    </contour>
  </outline>
</glyph>
<glyph name="Dhook" format="2">
  <advance width="2744"/>
  <unicode hex="018A"/>
  <outline>
    <contour>
      <point x="144" y="1196" type="line"/>
      <point x="184" y="1440" type="line"/>
      <point x="216" y="1634"/>
      <point x="434" y="1906"/>
      <point x="774" y="2048"/>
      <point x="988" y="2048" type="qcurve"/>
      <point x="1352" y="2048" type="line"/>
      <point x="1272" y="1576" type="line"/>
      <point x="908" y="1576" type="line"/>
      <point x="781" y="1576"/>
      <point x="670" y="1434"/>
      <point x="656" y="1344" type="qcurve"/>
      <point x="632" y="1196" type="line"/>
    </contour>
    <contour>
      <point x="1484" y="0" type="qcurve"/>
      <point x="684" y="0" type="line"/>
      <point x="1024" y="2048" type="line"/>
      <point x="1792" y="2048" type="line"/>
      <point x="2108" y="2048"/>
      <point x="2532" y="1794"/>
      <point x="2710" y="1322"/>
      <point x="2656" y="996" type="qcurve"/>
      <point x="2604" y="682"/>
      <point x="2287" y="236"/>
      <point x="1796" y="0"/>
    </contour>
    <contour>
      <point x="1318" y="472" type="line"/>
      <point x="1520" y="472" type="line"/>
      <point x="1672" y="472"/>
      <point x="1911" y="579"/>
      <point x="2072" y="832"/>
      <point x="2108" y="1052" type="qcurve"/>
      <point x="2142" y="1260"/>
      <point x="2070" y="1487"/>
      <point x="1868" y="1576"/>
      <point x="1708" y="1576" type="qcurve"/>
      <point x="1502" y="1576" type="line"/>
    </contour>
  </outline>
</glyph>
<glyph name="Dtopbar" format="2">
  <advance width="1964"/>
  <unicode hex="018B"/>
  <outline>
    <contour>
      <point x="1668" y="0" type="line"/>
      <point x="904" y="0" type="line"/>
      <point x="646" y="0"/>
      <point x="289" y="176"/>
      <point x="126" y="486"/>
      <point x="160" y="688" type="qcurve"/>
      <point x="192" y="890"/>
      <point x="458" y="1192"/>
      <point x="874" y="1360"/>
      <point x="1132" y="1360" type="qcurve"/>
      <point x="1360" y="1360" type="line"/>
      <point x="1404" y="1628" type="line"/>
      <point x="500" y="1628" type="line"/>
      <point x="572" y="2064" type="line"/>
      <point x="2012" y="2064" type="line"/>
    </contour>
    <contour>
      <point x="1204" y="428" type="line"/>
      <point x="1288" y="936" type="line"/>
      <point x="1060" y="936" type="line"/>
      <point x="907" y="936"/>
      <point x="714" y="797"/>
      <point x="696" y="692" type="qcurve"/>
      <point x="684" y="618"/>
      <point x="741" y="498"/>
      <point x="874" y="428"/>
      <point x="976" y="428" type="qcurve"/>
    </contour>
  </outline>
</glyph>
<glyph name="deltaturned" format="2">
  <advance width="2060"/>
  <unicode hex="018D"/>
  <outline>
    <contour>
      <point x="1416" y="-516" type="line"/>
      <point x="196" y="-516" type="line"/>
      <point x="264" y="-104" type="line"/>
      <point x="820" y="-104" type="line"/>
      <point x="799" y="-90"/>
      <point x="741" y="-64"/>
      <point x="661" y="-16"/>
      <point x="604" y="32" type="qcurve"/>
      <point x="486" y="132"/>
      <point x="321" y="357"/>
      <point x="247" y="612"/>
      <point x="268" y="756" type="qcurve"/>
      <point x="272" y="784" type="line"/>
      <point x="306" y="1015"/>
      <point x="539" y="1362"/>
      <point x="915" y="1556"/>
      <point x="1162" y="1556" type="qcurve"/>
      <point x="1409" y="1556"/>
      <point x="1718" y="1384"/>
      <point x="1843" y="1073"/>
      <point x="1812" y="864" type="qcurve"/>
      <point x="1808" y="836" type="line"/>
      <point x="1778" y="632"/>
      <point x="1576" y="327"/>
      <point x="1303" y="142"/>
      <point x="1164" y="116" type="qcurve"/>
      <point x="1165" y="116"/>
      <point x="1128" y="116"/>
      <point x="1112" y="116" type="qcurve"/>
      <point x="1147" y="88"/>
      <point x="1246" y="-19"/>
      <point x="1350" y="-138"/>
      <point x="1435" y="-240"/>
      <point x="1456" y="-264" type="qcurve"/>
    </contour>
    <contour>
      <point x="1280" y="756" type="qcurve"/>
      <point x="1284" y="784" type="line"/>
      <point x="1298" y="877"/>
      <point x="1292" y="1041"/>
      <point x="1205" y="1144"/>
      <point x="1094" y="1144" type="qcurve"/>
      <point x="992" y="1144"/>
      <point x="869" y="1051"/>
      <point x="804" y="888"/>
      <point x="788" y="784" type="qcurve"/>
      <point x="784" y="756" type="line"/>
      <point x="762" y="606"/>
      <point x="846" y="410"/>
      <point x="920" y="368" type="qcurve"/>
      <point x="933" y="362"/>
      <point x="957" y="360"/>
      <point x="968" y="360" type="qcurve"/>
      <point x="1063" y="360"/>
      <point x="1187" y="465"/>
      <point x="1261" y="644"/>
    </contour>
  </outline>
</glyph>
<glyph name="Ereversed" format="2">
  <advance width="1752"/>
  <unicode hex="018E"/>
  <outline>
    <contour>
      <point x="1832" y="2048" type="line"/>
      <point x="1492" y="0" type="line"/>
      <point x="16" y="0" type="line"/>
      <point x="92" y="448" type="line"/>
      <point x="1012" y="448" type="line"/>
      <point x="1068" y="800" type="line"/>
      <point x="224" y="800" type="line"/>
      <point x="300" y="1248" type="line"/>
      <point x="1144" y="1248" type="line"/>
      <point x="1200" y="1600" type="line"/>
      <point x="284" y="1600" type="line"/>
      <point x="360" y="2048" type="line"/>
    </contour>
  </outline>
</glyph>
<glyph name="Schwa" format="2">
  <advance width="2232"/>
  <unicode hex="018F"/>
  <outline>
    <contour>
      <point x="966" y="-28" type="qcurve"/>
      <point x="683" y="-28"/>
      <point x="312" y="207"/>
      <point x="163" y="639"/>
      <point x="212" y="932" type="qcurve"/>
      <point x="258" y="1204" type="line"/>
      <point x="1698" y="1204" type="line"/>
      <point x="1624" y="760" type="line"/>
      <point x="720" y="760" type="line"/>
      <point x="714" y="720" type="line"/>
      <point x="703" y="644"/>
      <point x="767" y="523"/>
      <point x="921" y="452"/>
      <point x="1044" y="452" type="qcurve"/>
      <point x="1193" y="452"/>
      <point x="1391" y="561"/>
      <point x="1502" y="744"/>
      <point x="1520" y="856" type="qcurve"/>
      <point x="1574" y="1184" type="line"/>
      <point x="1588" y="1267"/>
      <point x="1568" y="1414"/>
      <point x="1469" y="1527"/>
      <point x="1259" y="1592"/>
      <point x="1082" y="1592" type="qcurve"/>
      <point x="979" y="1592"/>
      <point x="759" y="1572"/>
      <point x="569" y="1542"/>
      <point x="508" y="1528" type="qcurve"/>
      <point x="512" y="1988" type="line"/>
      <point x="536" y="1997"/>
      <point x="682" y="2026"/>
      <point x="887" y="2056"/>
      <point x="1119" y="2076"/>
      <point x="1230" y="2076" type="qcurve"/>
      <point x="1569" y="2076"/>
      <point x="1988" y="1847"/>
      <point x="2153" y="1444"/>
      <point x="2110" y="1184" type="qcurve"/>
      <point x="2056" y="856" type="line"/>
      <point x="2013" y="596"/>
      <point x="1711" y="197"/>
      <point x="1249" y="-28"/>
    </contour>
  </outline>
</glyph>
<glyph name="Eopen" format="2">
  <advance width="1960"/>
  <unicode hex="0190"/>
  <outline>
    <contour>
      <point x="1276" y="980" type="line"/>
      <point x="908" y="980" type="line"/>
      <point x="709" y="980"/>
      <point x="419" y="1109"/>
      <point x="278" y="1335"/>
      <point x="302" y="1480" type="qcurve"/>
      <point x="333" y="1668"/>
      <point x="569" y="1934"/>
      <point x="955" y="2076"/>
      <point x="1210" y="2076" type="qcurve"/>
      <point x="1435" y="2076"/>
      <point x="1762" y="1926"/>
      <point x="1921" y="1664"/>
      <point x="1894" y="1496" type="qcurve"/>
      <point x="1358" y="1496" type="line"/>
      <point x="1369" y="1573"/>
      <point x="1258" y="1644"/>
      <point x="1136" y="1644" type="qcurve"/>
      <point x="1044" y="1644"/>
      <point x="919" y="1602"/>
      <point x="848" y="1514"/>
      <point x="836" y="1444" type="qcurve"/>
      <point x="825" y="1378"/>
      <point x="864" y="1289"/>
      <point x="967" y="1244"/>
      <point x="1052" y="1244" type="qcurve"/>
      <point x="1320" y="1244" type="line"/>
    </contour>
    <contour>
      <point x="928" y="1100" type="qcurve"/>
      <point x="1296" y="1100" type="line"/>
      <point x="1254" y="840" type="line"/>
      <point x="986" y="840" type="line"/>
      <point x="886" y="840"/>
      <point x="753" y="788"/>
      <point x="678" y="687"/>
      <point x="666" y="614" type="qcurve"/>
      <point x="653" y="535"/>
      <point x="702" y="441"/>
      <point x="821" y="400"/>
      <point x="912" y="400" type="qcurve"/>
      <point x="1056" y="400"/>
      <point x="1217" y="482"/>
      <point x="1230" y="556" type="qcurve"/>
      <point x="1770" y="556" type="line"/>
      <point x="1741" y="384"/>
      <point x="1491" y="120"/>
      <point x="1101" y="-28"/>
      <point x="862" y="-28" type="qcurve"/>
      <point x="593" y="-28"/>
      <point x="239" y="114"/>
      <point x="88" y="386"/>
      <point x="120" y="580" type="qcurve"/>
      <point x="161" y="827"/>
      <point x="587" y="1100"/>
    </contour>
  </outline>
</glyph>
<glyph name="Fhook" format="2">
  <advance width="1756"/>
  <unicode hex="0191"/>
  <outline>
    <contour>
      <point x="116" y="0" type="line"/>
      <point x="672" y="0" type="line"/>
      <point x="664" y="-48" type="line"/>
      <point x="634" y="-229"/>
      <point x="488" y="-441"/>
      <point x="289" y="-545"/>
      <point x="67" y="-576"/>
      <point x="-40" y="-576" type="qcurve"/>
      <point x="-84" y="-576"/>
      <point x="-239" y="-574"/>
      <point x="-276" y="-568" type="qcurve"/>
      <point x="-208" y="-160" type="line"/>
      <point x="-192" y="-163"/>
      <point x="-136" y="-160"/>
      <point x="-116" y="-160" type="qcurve"/>
      <point x="-43" y="-160"/>
      <point x="95" y="-118"/>
      <point x="108" y="-48" type="qcurve"/>
    </contour>
    <contour>
      <point x="116" y="0" type="line"/>
      <point x="456" y="2048" type="line"/>
      <point x="1896" y="2048" type="line"/>
      <point x="1820" y="1600" type="line"/>
      <point x="936" y="1600" type="line"/>
      <point x="880" y="1248" type="line"/>
      <point x="1676" y="1248" type="line"/>
      <point x="1600" y="800" type="line"/>
      <point x="804" y="800" type="line"/>
      <point x="672" y="0" type="line"/>
    </contour>
  </outline>
</glyph>
<glyph name="florin" format="2">
  <advance width="1476"/>
  <unicode hex="0192"/>
  <outline>
    <contour>
      <point x="1396" y="1488" type="line"/>
      <point x="1336" y="1120" type="line"/>
      <point x="1024" y="1120" type="line"/>
      <point x="840" y="8" type="line"/>
      <point x="793" y="-277"/>
      <point x="436" y="-576"/>
      <point x="164" y="-576" type="qcurve"/>
      <point x="106" y="-576"/>
      <point x="-4" y="-568"/>
      <point x="-72" y="-556" type="qcurve"/>
      <point x="16" y="-148" type="line"/>
      <point x="42" y="-154"/>
      <point x="109" y="-164"/>
      <point x="140" y="-164" type="qcurve"/>
      <point x="244" y="-164"/>
      <point x="303" y="-70"/>
      <point x="316" y="8" type="qcurve"/>
      <point x="500" y="1120" type="line"/>
      <point x="280" y="1120" type="line"/>
      <point x="340" y="1488" type="line"/>
      <point x="560" y="1488" type="line"/>
      <point x="576" y="1596" type="line"/>
      <point x="623" y="1863"/>
      <point x="1009" y="2140"/>
      <point x="1316" y="2140" type="qcurve"/>
      <point x="1387" y="2140"/>
      <point x="1494" y="2125"/>
      <point x="1552" y="2116" type="qcurve"/>
      <point x="1460" y="1724" type="line"/>
      <point x="1429" y="1730"/>
      <point x="1363" y="1736"/>
      <point x="1304" y="1736" type="qcurve"/>
      <point x="1225" y="1736"/>
      <point x="1114" y="1665"/>
      <point x="1100" y="1596" type="qcurve"/>
      <point x="1084" y="1488" type="line"/>
    </contour>
  </outline>
</glyph>
<glyph name="Ghook" format="2">
  <advance width="2464"/>
  <unicode hex="0193"/>
  <unicode hex="E004"/>
  <outline>
    <contour>
      <point x="2142" y="1372" type="line"/>
      <point x="1574" y="1372" type="line"/>
      <point x="1634" y="1748" type="line"/>
      <point x="1659" y="1906"/>
      <point x="1827" y="2147"/>
      <point x="2073" y="2312"/>
      <point x="2361" y="2396"/>
      <point x="2506" y="2396" type="qcurve"/>
      <point x="2568" y="2396"/>
      <point x="2682" y="2379"/>
      <point x="2746" y="2364" type="qcurve"/>
      <point x="2674" y="1932" type="line"/>
      <point x="2637" y="1935"/>
      <point x="2568" y="1944"/>
      <point x="2530" y="1944" type="qcurve"/>
      <point x="2457" y="1944"/>
      <point x="2319" y="1918"/>
      <point x="2221" y="1834"/>
      <point x="2206" y="1748" type="qcurve"/>
    </contour>
    <contour>
      <point x="994" y="-28" type="qcurve"/>
      <point x="697" y="-28"/>
      <point x="287" y="226"/>
      <point x="110" y="696"/>
      <point x="164" y="1020" type="qcurve"/>
      <point x="206" y="1274"/>
      <point x="429" y="1666"/>
      <point x="752" y="1937"/>
      <point x="1141" y="2076"/>
      <point x="1348" y="2076" type="qcurve"/>
      <point x="1530" y="2076"/>
      <point x="1829" y="1973"/>
      <point x="2043" y="1785"/>
      <point x="2152" y="1527"/>
      <point x="2142" y="1372" type="qcurve"/>
      <point x="1582" y="1372" type="line"/>
      <point x="1578" y="1425"/>
      <point x="1532" y="1507"/>
      <point x="1453" y="1563"/>
      <point x="1345" y="1592"/>
      <point x="1280" y="1592" type="qcurve"/>
      <point x="1140" y="1592"/>
      <point x="916" y="1458"/>
      <point x="766" y="1206"/>
      <point x="736" y="1028" type="qcurve"/>
      <point x="707" y="848"/>
      <point x="764" y="592"/>
      <point x="936" y="456"/>
      <point x="1078" y="456" type="qcurve"/>
      <point x="1205" y="456"/>
      <point x="1386" y="530"/>
      <point x="1493" y="666"/>
      <point x="1508" y="758" type="qcurve"/>
      <point x="1622" y="748" type="line"/>
      <point x="1134" y="748" type="line"/>
      <point x="1200" y="1144" type="line"/>
      <point x="2124" y="1144" type="line"/>
      <point x="1934" y="0" type="line"/>
      <point x="1580" y="0" type="line"/>
      <point x="1596" y="224" type="line"/>
      <point x="1584" y="224" type="line"/>
      <point x="1469" y="104"/>
      <point x="1173" y="-28"/>
    </contour>
  </outline>
</glyph>
<glyph name="Gamma" format="2">
  <advance width="2312"/>
  <unicode hex="0194"/>
  <outline>
    <contour>
      <point x="350" y="2048" type="line"/>
      <point x="990" y="2048" type="line"/>
      <point x="1334" y="944" type="line"/>
      <point x="1429" y="641"/>
      <point x="1549" y="189"/>
      <point x="1597" y="-119"/>
      <point x="1582" y="-208" type="qcurve"/>
      <point x="1563" y="-320"/>
      <point x="1386" y="-502"/>
      <point x="1106" y="-608"/>
      <point x="930" y="-608" type="qcurve"/>
      <point x="663" y="-608"/>
      <point x="365" y="-385"/>
      <point x="396" y="-192" type="qcurve"/>
      <point x="402" y="-155"/>
      <point x="434" y="-64"/>
      <point x="510" y="81"/>
      <point x="651" y="318"/>
      <point x="878" y="681"/>
      <point x="1046" y="946" type="qcurve"/>
      <point x="1746" y="2048" type="line"/>
      <point x="2390" y="2048" type="line"/>
      <point x="1124" y="232" type="line"/>
      <point x="1079" y="167"/>
      <point x="1006" y="30"/>
      <point x="957" y="-103"/>
      <point x="948" y="-162" type="qcurve"/>
      <point x="941" y="-210"/>
      <point x="960" y="-256"/>
      <point x="990" y="-256" type="qcurve"/>
      <point x="1019" y="-256"/>
      <point x="1052" y="-210"/>
      <point x="1060" y="-160" type="qcurve"/>
      <point x="1069" y="-100"/>
      <point x="1064" y="34"/>
      <point x="1039" y="171"/>
      <point x="1016" y="232" type="qcurve"/>
    </contour>
  </outline>
</glyph>
<glyph name="hv" format="2">
  <advance width="2840"/>
  <unicode hex="0195"/>
  <outline>
    <contour>
      <point x="16" y="0" type="line"/>
      <point x="356" y="2048" type="line"/>
      <point x="888" y="2048" type="line"/>
      <point x="756" y="1244" type="line"/>
      <point x="772" y="1244" type="line"/>
      <point x="847" y="1391"/>
      <point x="1116" y="1556"/>
      <point x="1288" y="1556" type="qcurve"/>
      <point x="1450" y="1556"/>
      <point x="1665" y="1408"/>
      <point x="1756" y="1148"/>
      <point x="1728" y="980" type="qcurve"/>
      <point x="1692" y="768" type="line"/>
      <point x="1140" y="768" type="line"/>
      <point x="1156" y="864" type="line"/>
      <point x="1175" y="978"/>
      <point x="1082" y="1108"/>
      <point x="976" y="1108" type="qcurve"/>
      <point x="909" y="1108"/>
      <point x="799" y="1049"/>
      <point x="725" y="940"/>
      <point x="712" y="864" type="qcurve"/>
      <point x="568" y="0" type="line"/>
    </contour>
    <contour>
      <point x="1700" y="-28" type="qcurve"/>
      <point x="1467" y="-28"/>
      <point x="1186" y="129"/>
      <point x="1081" y="409"/>
      <point x="1112" y="592" type="qcurve"/>
      <point x="1140" y="768" type="line"/>
      <point x="1692" y="768" type="line"/>
      <point x="1664" y="592" type="line"/>
      <point x="1655" y="539"/>
      <point x="1679" y="461"/>
      <point x="1743" y="420"/>
      <point x="1792" y="420" type="qcurve"/>
      <point x="1906" y="420"/>
      <point x="2075" y="654"/>
      <point x="2202" y="1090"/>
      <point x="2252" y="1392" type="qcurve"/>
      <point x="2276" y="1536" type="line"/>
      <point x="2828" y="1536" type="line"/>
      <point x="2804" y="1392" type="line"/>
      <point x="2727" y="929"/>
      <point x="2458" y="296"/>
      <point x="2025" y="-28"/>
    </contour>
  </outline>
</glyph>
<glyph name="Khook" format="2">
  <advance width="2160"/>
  <unicode hex="0198"/>
  <outline>
    <contour>
      <point x="4" y="0" type="line"/>
      <point x="344" y="2048" type="line"/>
      <point x="900" y="2048" type="line"/>
      <point x="768" y="1256" type="line"/>
      <point x="796" y="1256" type="line"/>
      <point x="1476" y="1844" type="line"/>
      <point x="1690" y="2029"/>
      <point x="2125" y="2104"/>
      <point x="2344" y="1972" type="qcurve"/>
      <point x="2116" y="1584" type="line"/>
      <point x="2026" y="1629"/>
      <point x="1904" y="1570"/>
      <point x="1832" y="1508" type="qcurve"/>
      <point x="1344" y="1088" type="line"/>
      <point x="2000" y="0" type="line"/>
      <point x="1336" y="0" type="line"/>
      <point x="920" y="692" type="line"/>
      <point x="632" y="440" type="line"/>
      <point x="560" y="0" type="line"/>
    </contour>
  </outline>
</glyph>
<glyph name="khook" format="2">
  <advance width="1708"/>
  <unicode hex="0199"/>
  <outline>
    <contour>
      <point x="1004" y="0" type="line"/>
      <point x="768" y="488" type="line"/>
      <point x="624" y="352" type="line"/>
      <point x="564" y="0" type="line"/>
      <point x="12" y="0" type="line"/>
      <point x="248" y="1420" type="line"/>
      <point x="800" y="1420" type="line"/>
      <point x="748" y="1100" type="line"/>
      <point x="768" y="1100" type="line"/>
      <point x="1204" y="1536" type="line"/>
      <point x="1832" y="1536" type="line"/>
      <point x="1160" y="880" type="line"/>
      <point x="1592" y="0" type="line"/>
    </contour>
    <contour>
      <point x="772" y="1256" type="line"/>
      <point x="220" y="1256" type="line"/>
      <point x="268" y="1548" type="line"/>
      <point x="298" y="1730"/>
      <point x="444" y="1942"/>
      <point x="641" y="2045"/>
      <point x="862" y="2076"/>
      <point x="968" y="2076" type="qcurve"/>
      <point x="1056" y="2076"/>
      <point x="1192" y="2063"/>
      <point x="1236" y="2060" type="qcurve"/>
      <point x="1172" y="1652" type="line"/>
      <point x="1140" y="1655"/>
      <point x="1079" y="1660"/>
      <point x="1048" y="1660" type="qcurve"/>
      <point x="977" y="1660"/>
      <point x="833" y="1617"/>
      <point x="820" y="1548" type="qcurve"/>
    </contour>
  </outline>
</glyph>
<glyph name="lambdastroke" format="2">
  <advance width="1952"/>
  <unicode hex="019B"/>
  <outline>
    <contour>
      <point x="1480" y="1884" type="line"/>
      <point x="1430" y="1592" type="line"/>
      <point x="390" y="1292" type="line"/>
      <point x="438" y="1592" type="line"/>
    </contour>
    <contour>
      <point x="980" y="832" type="line"/>
      <point x="572" y="0" type="line"/>
      <point x="20" y="0" type="line"/>
      <point x="834" y="1540" type="line"/>
      <point x="1190" y="1544" type="line"/>
    </contour>
    <contour>
      <point x="838" y="2140" type="qcurve"/>
      <point x="996" y="2140"/>
      <point x="1183" y="2013"/>
      <point x="1214" y="1896" type="qcurve"/>
      <point x="1568" y="560" type="line"/>
      <point x="1577" y="526"/>
      <point x="1607" y="442"/>
      <point x="1659" y="380"/>
      <point x="1702" y="380" type="qcurve"/>
      <point x="1719" y="380"/>
      <point x="1743" y="380"/>
      <point x="1750" y="380" type="qcurve"/>
      <point x="1680" y="-24" type="line"/>
      <point x="1641" y="-30"/>
      <point x="1549" y="-28"/>
      <point x="1490" y="-28" type="qcurve"/>
      <point x="1352" y="-28"/>
      <point x="1172" y="71"/>
      <point x="1074" y="226"/>
      <point x="1058" y="308" type="qcurve"/>
      <point x="866" y="1300" type="line"/>
      <point x="770" y="1608" type="line"/>
      <point x="754" y="1661"/>
      <point x="666" y="1724"/>
      <point x="580" y="1724" type="qcurve"/>
      <point x="561" y="1724"/>
      <point x="519" y="1723"/>
      <point x="484" y="1720" type="qcurve"/>
      <point x="532" y="2104" type="line"/>
      <point x="600" y="2122"/>
      <point x="783" y="2140"/>
    </contour>
  </outline>
</glyph>
<glyph name="Mturned" format="2">
  <advance width="2780"/>
  <unicode hex="019C"/>
  <outline>
    <contour>
      <point x="1984" y="392" type="line"/>
      <point x="2260" y="2048" type="line"/>
      <point x="2780" y="2048" type="line"/>
      <point x="2440" y="0" type="line"/>
      <point x="1980" y="0" type="line"/>
    </contour>
    <contour>
      <point x="2104" y="692" type="qcurve"/>
      <point x="2240" y="696" type="line"/>
      <point x="2206" y="488"/>
      <point x="2009" y="161"/>
      <point x="1710" y="-28"/>
      <point x="1524" y="-28" type="qcurve"/>
      <point x="1364" y="-28"/>
      <point x="1149" y="90"/>
      <point x="1064" y="352"/>
      <point x="1100" y="568" type="qcurve"/>
      <point x="1344" y="2048" type="line"/>
      <point x="1856" y="2048" type="line"/>
      <point x="1612" y="568" type="line"/>
      <point x="1602" y="514"/>
      <point x="1628" y="431"/>
      <point x="1704" y="384"/>
      <point x="1768" y="384" type="qcurve"/>
      <point x="1872" y="384"/>
      <point x="2011" y="465"/>
      <point x="2090" y="604"/>
    </contour>
    <contour>
      <point x="1188" y="692" type="qcurve"/>
      <point x="1332" y="696" type="line"/>
      <point x="1296" y="482"/>
      <point x="1102" y="156"/>
      <point x="802" y="-28"/>
      <point x="608" y="-28" type="qcurve"/>
      <point x="426" y="-28"/>
      <point x="215" y="92"/>
      <point x="149" y="354"/>
      <point x="184" y="568" type="qcurve"/>
      <point x="428" y="2048" type="line"/>
      <point x="940" y="2048" type="line"/>
      <point x="696" y="568" type="line"/>
      <point x="687" y="514"/>
      <point x="713" y="431"/>
      <point x="788" y="384"/>
      <point x="852" y="384" type="qcurve"/>
      <point x="956" y="384"/>
      <point x="1093" y="463"/>
      <point x="1172" y="602"/>
    </contour>
  </outline>
</glyph>
<glyph name="Nhookleft" format="2">
  <advance width="2108"/>
  <unicode hex="019D"/>
  <outline>
    <contour>
      <point x="76" y="0" type="line"/>
      <point x="632" y="0" type="line"/>
      <point x="624" y="-48" type="line"/>
      <point x="594" y="-230"/>
      <point x="448" y="-442"/>
      <point x="250" y="-545"/>
      <point x="28" y="-576"/>
      <point x="-80" y="-576" type="qcurve"/>
      <point x="-123" y="-576"/>
      <point x="-278" y="-574"/>
      <point x="-316" y="-568" type="qcurve"/>
      <point x="-248" y="-160" type="line"/>
      <point x="-231" y="-163"/>
      <point x="-175" y="-160"/>
      <point x="-156" y="-160" type="qcurve"/>
      <point x="-82" y="-160"/>
      <point x="58" y="-118"/>
      <point x="68" y="-48" type="qcurve"/>
    </contour>
    <contour>
      <point x="2188" y="2048" type="line"/>
      <point x="1848" y="0" type="line"/>
      <point x="1384" y="0" type="line"/>
      <point x="824" y="1076" type="line"/>
      <point x="812" y="1076" type="line"/>
      <point x="632" y="0" type="line"/>
      <point x="76" y="0" type="line"/>
      <point x="416" y="2048" type="line"/>
      <point x="888" y="2048" type="line"/>
      <point x="1440" y="976" type="line"/>
      <point x="1456" y="976" type="line"/>
      <point x="1632" y="2048" type="line"/>
    </contour>
  </outline>
</glyph>
<glyph name="Ohorn" format="2">
  <advance width="2364"/>
  <unicode hex="01A0"/>
  <outline>
    <contour>
      <point x="2256" y="2116" type="qcurve"/>
      <point x="2556" y="2116" type="line"/>
      <point x="2506" y="1810"/>
      <point x="2204" y="1468"/>
      <point x="1924" y="1468" type="qcurve"/>
      <point x="1964" y="1704" type="line"/>
      <point x="2103" y="1704"/>
      <point x="2224" y="1921"/>
    </contour>
    <contour>
      <point x="2152" y="988" type="qcurve"/>
      <point x="2096" y="654"/>
      <point x="1764" y="202"/>
      <point x="1290" y="-28"/>
      <point x="1020" y="-28" type="qcurve"/>
      <point x="732" y="-28"/>
      <point x="308" y="222"/>
      <point x="114" y="704"/>
      <point x="172" y="1052" type="qcurve"/>
      <point x="226" y="1386"/>
      <point x="558" y="1842"/>
      <point x="1036" y="2076"/>
      <point x="1308" y="2076" type="qcurve"/>
      <point x="1594" y="2076"/>
      <point x="2017" y="1824"/>
      <point x="2210" y="1338"/>
    </contour>
    <contour>
      <point x="1592" y="1052" type="qcurve"/>
      <point x="1620" y="1228"/>
      <point x="1572" y="1469"/>
      <point x="1418" y="1592"/>
      <point x="1288" y="1592" type="qcurve"/>
      <point x="1140" y="1592"/>
      <point x="912" y="1448"/>
      <point x="762" y="1178"/>
      <point x="732" y="988" type="qcurve"/>
      <point x="700" y="810"/>
      <point x="753" y="574"/>
      <point x="912" y="456"/>
      <point x="1040" y="456" type="qcurve"/>
      <point x="1186" y="456"/>
      <point x="1411" y="596"/>
      <point x="1560" y="862"/>
    </contour>
  </outline>
</glyph>
